<svg width="22" height="22" viewBox="0 0 22 22" fill="none" xmlns="http://www.w3.org/2000/svg">
<path d="M20.625 0H1.375C1.01033 0 0.660591 0.144866 0.402728 0.402728C0.144866 0.660591 0 1.01033 0 1.375V20.625C0 20.9897 0.144866 21.3394 0.402728 21.5973C0.660591 21.8551 1.01033 22 1.375 22H20.625C20.9897 22 21.3394 21.8551 21.5973 21.5973C21.8551 21.3394 22 20.9897 22 20.625V1.375C22 1.01033 21.8551 0.660591 21.5973 0.402728C21.3394 0.144866 20.9897 0 20.625 0ZM6.875 18.5625H3.4375V8.25H6.875V18.5625ZM5.15625 6.875C4.74833 6.875 4.34956 6.75404 4.01039 6.52741C3.67121 6.30078 3.40685 5.97866 3.25075 5.60178C3.09464 5.22491 3.0538 4.81021 3.13338 4.41013C3.21296 4.01004 3.4094 3.64254 3.69784 3.35409C3.98629 3.06565 4.35379 2.86921 4.75388 2.78963C5.15396 2.71005 5.56866 2.75089 5.94553 2.907C6.32241 3.0631 6.64453 3.32746 6.87116 3.66664C7.09779 4.00581 7.21875 4.40458 7.21875 4.8125C7.21875 5.35951 7.00145 5.88411 6.61466 6.27091C6.22786 6.6577 5.70326 6.875 5.15625 6.875ZM18.5625 18.5625H15.125V11.6875C15.125 11.1169 14.355 10.6562 13.4062 10.6562C12.0312 10.6562 11.6875 12.4919 11.6875 13.0625V18.5625H8.25V8.25H11.6875V10.6562C11.6875 8.9375 13.2275 8.25 15.125 8.25C16.0367 8.25 16.911 8.61216 17.5557 9.25682C18.2003 9.90148 18.5625 10.7758 18.5625 11.6875V18.5625Z" fill="url(#paint0_linear_12_193)"/>
<defs>
<linearGradient id="paint0_linear_12_193" x1="-1.03555e-06" y1="25.575" x2="23.9348" y2="22.3207" gradientUnits="userSpaceOnUse">
<stop stop-color="#EE2762"/>
<stop offset="1" stop-color="#F05B3A"/>
</linearGradient>
</defs>
</svg>
