<svg width="66" height="58" viewBox="0 0 66 58" fill="none" xmlns="http://www.w3.org/2000/svg">
<path fill-rule="evenodd" clip-rule="evenodd" d="M54.458 32.0044C54.8303 32.0078 55.1957 32.0593 55.5475 32.1486L56.719 30.8957L57.443 31.3179L58.1671 31.7401L57.6719 33.3843C57.928 33.6451 58.1534 33.9403 58.3413 34.263L60.049 34.2115L60.2641 35.025L60.4793 35.8385L58.9731 36.6485C58.9697 37.0227 58.9185 37.3899 58.8297 37.7435L60.0763 38.9208L59.6562 39.6485L59.2361 40.3796L57.6002 39.8819C57.3406 40.1393 57.0469 40.3659 56.7292 40.5547L56.7805 42.2709L55.971 42.4871L55.1616 42.7034L54.3556 41.1897C53.9833 41.1862 53.6178 41.1347 53.2661 41.0455L52.0946 42.2983L51.3705 41.8762L50.6465 41.454L51.1417 39.8098C50.8855 39.549 50.6601 39.2538 50.4723 38.9311L48.7646 38.9826L48.5494 38.1691L48.3343 37.3556L49.8404 36.5456C49.8439 36.1714 49.8951 35.8041 49.9839 35.4506L48.7373 34.2733L49.1574 33.5456L49.5775 32.8179L51.2134 33.3156C51.473 33.0582 51.7667 32.8316 52.0843 32.6429L52.0331 30.9266L52.8425 30.7104L53.652 30.4941L54.458 32.0078V32.0044ZM62.8188 23.3512C62.5012 23.9073 62.689 24.6143 63.2423 24.937C63.7956 25.2562 64.4992 25.0674 64.8202 24.5114C65.2506 23.7631 66.5143 25.9667 65.657 25.9667C65.0183 25.9667 64.5026 26.485 64.5026 27.1269C64.5026 27.7688 65.0183 28.2871 65.657 28.2871C66.668 28.2871 65.1549 30.3259 64.8202 29.7424C64.5026 29.1864 63.7956 28.9976 63.2423 29.3168C62.689 29.636 62.5012 30.3465 62.8188 30.9026C63.2287 31.6165 60.7355 31.6131 61.1453 30.9026C61.4629 30.3465 61.2751 29.6395 60.7218 29.3168C60.1685 28.9976 59.4649 29.1864 59.1439 29.7424C58.7033 30.5113 57.5558 28.2871 58.3071 28.2871C58.9458 28.2871 59.4615 27.7688 59.4615 27.1269C59.4615 26.485 58.9458 25.9667 58.3071 25.9667C57.6685 25.9667 58.635 23.6292 59.1439 24.5114C59.4615 25.0674 60.1685 25.2562 60.7218 24.937C61.2751 24.6178 61.4629 23.9073 61.1453 23.3512C60.7355 22.6372 63.2287 22.6407 62.8188 23.3512ZM61.2273 25.8157C61.9479 25.3969 62.8701 25.6441 63.2867 26.3718C63.7034 27.096 63.4575 28.0228 62.7335 28.4415C62.0128 28.8603 61.0907 28.6132 60.674 27.8855C60.2573 27.1612 60.5032 26.2345 61.2273 25.8157ZM37.0192 4.81252V3.76218C37.0192 3.69697 37.0704 3.64548 37.1353 3.63518L38.1565 3.42237L39.1469 1.69928L38.8225 0.703868C38.7986 0.642083 38.8191 0.573434 38.8737 0.53911L39.7754 0.0173768C39.8266 -0.0135153 39.8949 -0.00321793 39.9359 0.0482689L40.636 0.837733H42.6135L43.3068 0.0551338C43.3478 0.00364698 43.4161 -0.0135153 43.4742 0.0173768L44.3793 0.542542C44.4305 0.570002 44.4544 0.635219 44.4339 0.697003L44.106 1.69928L45.0965 3.42237L46.1177 3.63518C46.1826 3.64205 46.2338 3.69697 46.2338 3.76218V4.81252C46.2338 4.87087 46.1928 4.92579 46.1279 4.93952L45.0999 5.15576L44.1095 6.87542L44.4373 7.88113C44.4578 7.94291 44.4339 8.00813 44.3827 8.03559L43.4776 8.56076C43.423 8.59165 43.3512 8.57449 43.3103 8.523L42.6169 7.7404H40.6394L39.9393 8.52986C39.8949 8.57792 39.83 8.59165 39.7788 8.56076L38.8737 8.03559C38.8191 8.0047 38.7986 7.93262 38.8225 7.87083L39.1469 6.87542L38.1565 5.15233L37.1284 4.93608C37.0636 4.92235 37.0226 4.87087 37.0226 4.80908L37.0192 4.81252ZM40.9229 3.0654C41.2576 2.86975 41.6436 2.83199 41.9885 2.92467C42.3369 3.01734 42.6477 3.24388 42.8424 3.5837C43.037 3.92008 43.0746 4.30794 42.9824 4.65462C42.8902 5.00473 42.6648 5.31709 42.3266 5.51274C41.9919 5.70839 41.606 5.74614 41.261 5.65347C40.9127 5.56079 40.6019 5.33425 40.4072 4.99444C40.2125 4.65805 40.175 4.27019 40.2672 3.92351C40.3594 3.5734 40.5848 3.26105 40.9229 3.0654ZM41.7802 3.71413C41.6333 3.67294 41.4728 3.6901 41.3293 3.77248C41.1859 3.85486 41.0903 3.98873 41.0527 4.13632C41.0117 4.28392 41.0288 4.44524 41.1108 4.58941C41.1927 4.73357 41.3259 4.82968 41.4728 4.86743C41.6197 4.90519 41.7802 4.89146 41.9236 4.80908C42.0671 4.7267 42.1627 4.59284 42.2003 4.44524C42.2413 4.29765 42.2242 4.13632 42.1422 3.99216C42.0602 3.848 41.927 3.75189 41.7802 3.71413ZM39.6558 3.14777C39.0274 4.24273 39.3997 5.63974 40.4892 6.27131C41.5787 6.90288 42.9687 6.52874 43.5972 5.43379C44.2256 4.33884 43.8533 2.94183 42.7638 2.31026C41.6743 1.67868 40.2842 2.05282 39.6558 3.14777ZM31.657 40.6027V38.7458C31.657 38.6325 31.7458 38.5364 31.862 38.5226L33.6687 38.1451L35.4208 35.0971L34.8436 33.3362C34.7992 33.2298 34.8367 33.1028 34.9324 33.0479L36.5342 32.1177C36.623 32.0628 36.7459 32.0834 36.8211 32.1692L38.0608 33.5662H41.565L42.7945 32.1829C42.8663 32.0902 42.9892 32.0593 43.0883 32.1143L44.6901 33.0444C44.7823 33.0959 44.8267 33.2092 44.7891 33.319L44.2085 35.0971L45.9606 38.1451L47.7673 38.5226C47.8834 38.5364 47.9722 38.6325 47.9722 38.7458V40.6027C47.9722 40.7091 47.8971 40.8052 47.7844 40.8258L45.9606 41.2068L44.2085 44.2548L44.7891 46.0329C44.8267 46.1427 44.7823 46.256 44.6901 46.3075L43.0883 47.2376C42.9892 47.296 42.8628 47.2651 42.7945 47.169L41.565 45.7857H38.0608L36.8211 47.1827C36.7459 47.272 36.623 47.2891 36.5342 47.2342L34.9324 46.304C34.8333 46.2457 34.7992 46.1221 34.8436 46.0157L35.4208 44.2548L33.6687 41.2068L31.8449 40.8258C31.7322 40.8052 31.6536 40.7091 31.657 40.6027V40.6027ZM36.3224 37.6508C35.209 39.5867 35.8716 42.0649 37.7979 43.1839C39.7241 44.3029 42.19 43.637 43.3034 41.7011C44.4168 39.7652 43.7543 37.287 41.828 36.168C39.9017 35.049 37.4358 35.7149 36.3224 37.6508V37.6508ZM38.5663 37.5066C39.1606 37.16 39.8402 37.0913 40.455 37.2561C41.0698 37.4208 41.6231 37.8224 41.968 38.4231C42.313 39.0204 42.3813 39.7034 42.2173 40.3213C42.0534 40.9391 41.6538 41.4952 41.0561 41.8418C40.4618 42.1885 39.7822 42.2572 39.1674 42.0924C38.5527 41.9276 37.9994 41.526 37.6544 40.9254C37.3095 40.3281 37.2412 39.6451 37.4051 39.0272C37.569 38.4094 37.9686 37.8533 38.5663 37.5066V37.5066ZM38.3716 56.8279L37.4734 55.9252C37.4188 55.8703 37.4153 55.781 37.4666 55.7158L38.1599 54.6483L37.5383 52.3108L36.4078 51.7376C36.3327 51.7067 36.2917 51.6278 36.3122 51.5522L36.6401 50.32C36.6571 50.2513 36.7254 50.1999 36.804 50.2067L38.0813 50.2788L39.7822 48.5694L39.7105 47.296C39.7002 47.2171 39.7446 47.1415 39.8198 47.1209L41.0459 46.7914C41.1142 46.7708 41.1927 46.8052 41.2269 46.8772L41.8041 48.0271L44.13 48.6518L45.1921 47.955C45.257 47.907 45.3458 47.907 45.4005 47.9619L46.2987 48.8646C46.3499 48.9161 46.3602 48.9985 46.3158 49.0637L45.6156 50.1381L46.2372 52.4756L47.378 53.0557C47.4497 53.09 47.4838 53.1689 47.4633 53.2376L47.1355 54.4698C47.115 54.5453 47.0398 54.5934 46.9613 54.5797L45.6942 54.5076L43.9933 56.2169L44.0651 57.5007C44.0719 57.5796 44.0207 57.6483 43.9524 57.6654L42.7262 57.995C42.6511 58.0156 42.5725 57.9709 42.5418 57.8988L41.9714 56.7627L39.6456 56.138L38.5766 56.8417C38.5117 56.8863 38.4263 56.876 38.3785 56.8245L38.3716 56.8279ZM39.2118 53.114C39.608 54.5968 41.1244 55.479 42.6033 55.0808C44.0787 54.6826 44.9565 53.1586 44.5603 51.6724C44.1641 50.1896 42.6477 49.3074 41.1688 49.7056C39.6934 50.1037 38.8156 51.6278 39.2118 53.114V53.114ZM12.3841 6.95437C12.9272 6.95437 13.3677 7.79875 13.3677 8.83878C13.3677 9.87882 14.0372 10.0504 14.5495 9.158C15.0686 8.25527 15.8678 7.74726 16.3391 8.01843C16.8104 8.29302 16.7729 9.24381 16.2537 10.1465C15.738 11.0424 16.2298 11.5333 17.1212 11.0184C18.0195 10.4967 18.9655 10.4589 19.2388 10.9326C19.512 11.4063 19.0031 12.2129 18.1049 12.7312C17.2169 13.2461 17.3945 13.9188 18.4225 13.9188C19.4505 13.9188 20.2975 14.3616 20.2975 14.9074C20.2975 15.4531 19.4573 15.8959 18.4225 15.8959C17.3876 15.8959 17.2169 16.5687 18.1049 17.0835C19.0031 17.6053 19.5086 18.4085 19.2388 18.8821C18.9655 19.3558 18.0195 19.3181 17.1212 18.7963C16.2298 18.278 15.7414 18.7723 16.2537 19.6682C16.7729 20.5709 16.8104 21.5217 16.3391 21.7963C15.8678 22.0709 15.0652 21.5595 14.5495 20.6567C14.0098 19.7197 13.3677 19.9153 13.3677 20.9759C13.3677 22.0366 12.9272 22.8604 12.3841 22.8604C11.8411 22.8604 11.4005 22.016 11.4005 20.9759C11.4005 19.9359 10.7311 19.7643 10.2188 20.6567C9.69964 21.5595 8.89703 22.0675 8.42912 21.7963C7.9578 21.5217 7.99537 20.5709 8.51451 19.6682C9.03023 18.7723 8.53842 18.2815 7.64701 18.7963C6.74876 19.3181 5.80271 19.3558 5.52948 18.8821C5.25625 18.4085 5.76514 17.6018 6.66338 17.0835C7.55138 16.5687 7.37378 15.8959 6.34575 15.8959C5.31089 15.8959 4.47071 15.4531 4.47071 14.9074C4.47071 14.3616 5.31089 13.9188 6.34575 13.9188C7.38061 13.9188 7.55138 13.2461 6.66338 12.7312C5.76514 12.2095 5.25966 11.4063 5.52948 10.9326C5.80271 10.4589 6.74876 10.4967 7.64701 11.0184C8.58282 11.5607 9.04047 11.0664 8.51451 10.1465C7.99537 9.24381 7.9578 8.29302 8.42912 8.01843C8.90044 7.74383 9.70306 8.25527 10.2188 9.158C10.7311 10.0504 11.4005 9.87195 11.4005 8.83878C11.4005 7.80562 11.8411 6.95437 12.3841 6.95437V6.95437ZM12.3841 12.23C13.1218 12.23 13.7878 12.5321 14.2728 13.0161C14.7544 13.5001 15.0549 14.1728 15.0549 14.9142C15.0549 15.6556 14.7544 16.325 14.2728 16.8124C13.7878 17.2964 13.1218 17.5984 12.3841 17.5984C11.6464 17.5984 10.9804 17.2964 10.4954 16.8124C10.0139 16.325 9.7133 15.6556 9.7133 14.9142C9.7133 14.1728 10.0139 13.5035 10.4954 13.0161C10.977 12.5321 11.6464 12.23 12.3841 12.23ZM13.4839 13.809C13.2038 13.5275 12.8145 13.3525 12.3841 13.3525C11.9538 13.3525 11.5678 13.5275 11.2844 13.809C11.0009 14.0904 10.8301 14.4817 10.8301 14.9142C10.8301 15.3467 11.0043 15.7346 11.2844 16.0195C11.5644 16.3009 11.9538 16.476 12.3841 16.476C12.8145 16.476 13.2004 16.3009 13.4839 16.0195C13.7639 15.738 13.9381 15.3467 13.9381 14.9142C13.9381 14.4817 13.7639 14.0939 13.4839 13.809ZM12.3841 11.015C14.5256 11.015 16.264 12.7621 16.264 14.9142C16.264 17.0664 14.5256 18.8135 12.3841 18.8135C10.2427 18.8135 8.50426 17.0664 8.50426 14.9142C8.50426 12.7621 10.2427 11.015 12.3841 11.015ZM30.9979 22.3695C31.5546 22.8466 32.0361 23.3855 32.4357 23.9725L35.0314 23.4061C35.1168 23.3787 35.2124 23.4233 35.25 23.5057L35.5574 24.2024L35.8648 24.8992C35.8989 24.9782 35.875 25.0709 35.8033 25.1223L33.6345 26.691C33.8019 27.3912 33.8804 28.112 33.8599 28.8363L36.2917 29.9106C36.3771 29.9415 36.4283 30.0308 36.4078 30.12L36.2507 30.8648L36.0936 31.6097C36.0765 31.6921 36.0014 31.7538 35.916 31.7538L33.2452 31.7401C33.1086 32.0696 32.9515 32.3923 32.7704 32.7115C32.5894 33.0273 32.3879 33.3293 32.1728 33.6108L33.5116 35.9174C33.5628 35.9929 33.5526 36.0959 33.4843 36.1577L32.9207 36.6691L32.3572 37.1806C32.2957 37.2389 32.2001 37.2458 32.1284 37.1909L29.9767 35.6051C29.3619 35.9826 28.6993 36.2778 28.0128 36.4803L27.7464 39.1371C27.7464 39.2263 27.6747 39.3052 27.5825 39.3155L26.8277 39.3945L26.0729 39.4734C25.9875 39.4837 25.909 39.4322 25.8816 39.3464L25.0688 36.7927C24.3618 36.7378 23.6548 36.5902 22.9683 36.343L21.1992 38.3339C21.1445 38.4059 21.0455 38.4265 20.9635 38.3819L20.3078 38.0009L19.652 37.6199H19.6452V37.613H19.6349V37.6062H19.6247V37.5993H19.6179V37.5925H19.611V37.5856H19.6042V37.5787H19.6008V37.5719H19.5974V37.565H19.594V37.5581H19.5905V37.5513H19.5871V37.5444H19.5837V37.5375H19.5803V37.5307V37.5238V37.5169V37.5101V37.5032V37.4963V37.4895V37.4826V37.4757V37.4689V37.462V37.4552V37.4483V37.4414V37.4346V37.4277V37.4208V37.414L20.4171 34.8637C19.8604 34.39 19.3788 33.8476 18.9792 33.2607L16.3699 33.8305C16.2845 33.8511 16.1991 33.803 16.1649 33.7275L15.8575 33.0307L15.5502 32.3339C15.5126 32.2481 15.5433 32.152 15.6219 32.104L17.7804 30.5456C17.613 29.8454 17.5345 29.1246 17.555 28.4003L15.1096 27.3191C15.0276 27.2848 14.9866 27.1955 15.0037 27.1132L15.1608 26.3683L15.3179 25.6235C15.3384 25.5342 15.4204 25.4725 15.5092 25.4793L18.1663 25.4931C18.3029 25.1635 18.4601 24.8409 18.6411 24.5217C18.8221 24.2059 19.0236 23.9038 19.2388 23.6224L17.8931 21.3055C17.8487 21.2299 17.8658 21.1338 17.9273 21.0789L18.4908 20.5675L19.0543 20.056C19.1226 19.9943 19.2251 19.9943 19.2934 20.056L21.4348 21.635C22.0496 21.2574 22.7122 20.9622 23.3987 20.7597L23.6651 18.0892C23.6753 18 23.7436 17.9348 23.8256 17.9245L24.5804 17.8455L25.3352 17.7666C25.4274 17.7563 25.5094 17.8181 25.5299 17.9073L26.3393 20.4508C27.0463 20.5057 27.7533 20.6533 28.4398 20.9004L30.2157 18.8993V18.8924H30.2226V18.8856H30.2294V18.8787H30.2397V18.8718H30.2499V18.865H30.2601V18.8581H30.2704V18.8513H30.2841V18.8444H30.3011V18.8375H30.3319V18.8307H30.3968V18.8375H30.4138V18.8444H30.4275V18.8513H30.4377V18.8581H30.4412L31.0969 19.2391L31.7527 19.6201C31.8312 19.6682 31.8654 19.7643 31.8312 19.8501L30.9979 22.3832V22.3695ZM19.8296 27.8546H23.1323C23.1903 27.6555 23.2757 27.4564 23.3816 27.2676C23.7505 26.6223 24.3447 26.1933 25.0073 26.0148C25.4308 25.9015 25.8851 25.8912 26.3256 25.9976L27.9787 23.1212C25.2703 21.9851 22.0803 23.0183 20.5742 25.6406C20.1712 26.3443 19.9252 27.096 19.8296 27.8546V27.8546ZM23.1357 29.3786H19.833C20.0619 31.1532 21.0831 32.8042 22.7429 33.7653C24.4028 34.7298 26.3359 34.7916 27.9787 34.1051L26.3256 31.2287C25.6836 31.3831 24.98 31.3008 24.3618 30.9438C23.7436 30.5834 23.3201 30.017 23.1323 29.3786H23.1357ZM27.6406 30.4701L29.2936 33.3465C29.8981 32.8831 30.4241 32.2927 30.8305 31.5891C32.3367 28.9667 31.6331 25.675 29.297 23.8867L27.644 26.7631C27.9548 27.0926 28.1734 27.4907 28.2861 27.9198C28.4637 28.5857 28.3885 29.3168 28.0197 29.9621C27.9104 30.1509 27.784 30.3225 27.6406 30.4735V30.4701ZM26.2812 27.6074C26.0046 27.4461 25.6904 27.4152 25.4035 27.4907C25.1166 27.5663 24.8605 27.755 24.7033 28.0331C24.5428 28.3111 24.5121 28.6269 24.5872 28.9152C24.6624 29.2035 24.8502 29.461 25.1234 29.6189C25.4001 29.7802 25.7143 29.8111 26.0012 29.7356C26.2881 29.6601 26.5442 29.4713 26.7013 29.1967C26.8619 28.9186 26.8926 28.6029 26.8175 28.3145C26.7423 28.0262 26.5545 27.7688 26.2778 27.6109L26.2812 27.6074ZM31.2813 2.72558C31.0388 2.62604 30.7929 2.54023 30.5402 2.46815L30.4753 2.45099L30.4617 2.38577L29.9152 0.0482689H27.6611L27.1146 2.38577L27.1009 2.45099L27.036 2.46815C26.7833 2.54023 26.534 2.62604 26.2949 2.72558C26.049 2.82856 25.8133 2.94183 25.5879 3.07226L25.5299 3.10659L25.4752 3.07226L23.4431 1.80569L22.6473 2.60545L21.8515 3.40521L23.1118 5.44752L23.1459 5.50244L23.1118 5.56079C22.9854 5.78733 22.8693 6.02417 22.7668 6.27131C22.6678 6.51501 22.5824 6.76215 22.5107 7.01615L22.4936 7.08137L22.4287 7.0951L20.1028 7.64429V9.90971L22.4287 10.4589L22.4936 10.4726L22.5107 10.5378C22.5824 10.7919 22.6678 11.0424 22.7668 11.2827C22.8693 11.5298 22.982 11.7667 23.1118 11.9932L23.1459 12.0516L23.1118 12.1065L21.8515 14.1488L22.6473 14.9486L23.4431 15.7483L25.4752 14.4817L25.5299 14.4474L25.5879 14.4817C25.8133 14.6087 26.049 14.7254 26.2949 14.8284C26.534 14.928 26.7833 15.0138 27.036 15.0859L27.1009 15.103L27.1146 15.1682L27.6611 17.5057H29.9152L30.4617 15.1682L30.4753 15.103L30.5402 15.0859C30.7929 15.0138 31.0423 14.928 31.2813 14.8284C31.5272 14.7254 31.7629 14.6122 31.9883 14.4817L32.0464 14.4474L32.101 14.4817L34.1332 15.7483L34.929 14.9486L35.7247 14.1488L34.4645 12.1065L34.4303 12.0516L34.4645 11.9932C34.5908 11.7667 34.707 11.5298 34.8094 11.2827C34.9085 11.039 34.9938 10.7919 35.0656 10.5378L35.0826 10.4726L35.1475 10.4589L37.4734 9.90971V7.64429L35.1475 7.0951L35.0826 7.08137L35.0656 7.01615C34.9938 6.76215 34.9085 6.51158 34.8094 6.27131C34.707 6.02417 34.5942 5.78733 34.4645 5.56079L34.4303 5.50244L34.4645 5.44752L35.7247 3.40521L34.929 2.60545L34.1332 1.80569L32.101 3.07226L32.0464 3.10659L31.9883 3.07226C31.7629 2.94526 31.5272 2.82856 31.2813 2.72558V2.72558ZM29.4302 10.8777L30.5744 12.8719L30.6393 12.9852L30.5197 13.0332C30.2465 13.1465 29.963 13.2323 29.6727 13.2907C29.3858 13.3456 29.0887 13.3765 28.7881 13.3765C28.4876 13.3765 28.1904 13.3456 27.9035 13.2907C27.6098 13.2323 27.3263 13.1465 27.0565 13.0332L26.937 12.9852L27.0019 12.8719L28.146 10.8777L28.187 10.8021L28.269 10.8227C28.351 10.8433 28.4363 10.8605 28.5251 10.8708C28.6105 10.8811 28.6993 10.888 28.7881 10.888C28.8769 10.888 28.9657 10.8811 29.0511 10.8708C29.1399 10.8605 29.2253 10.8433 29.3073 10.8227L29.3892 10.8021L29.4302 10.8777V10.8777ZM31.418 12.3811L30.2738 10.3868L30.2328 10.3113L30.2909 10.2495C30.4138 10.126 30.5197 9.98522 30.6051 9.83076C30.6905 9.67974 30.7588 9.51841 30.8066 9.35022L30.8305 9.26784H33.334L33.3169 9.39484C33.2349 9.99895 33.0368 10.5653 32.7465 11.0699C32.4494 11.5882 32.0532 12.0447 31.5819 12.4085L31.4794 12.4875L31.4145 12.3742L31.418 12.3811ZM26.1549 5.17636L27.299 7.17061L27.34 7.24613L27.2819 7.30791C27.159 7.43491 27.0531 7.57221 26.9643 7.72667C26.8789 7.8777 26.8106 8.03902 26.7628 8.20721L26.7389 8.28959H24.2354L24.2525 8.16259C24.3345 7.55848 24.5326 6.99212 24.8229 6.48755C25.12 5.96925 25.5196 5.51274 25.9875 5.1489L26.09 5.06995L26.1549 5.18322V5.17636ZM28.1426 6.67977L26.9985 4.68551L26.9336 4.57224L27.0531 4.52419C27.3263 4.41092 27.6098 4.32511 27.9035 4.26676C28.1904 4.21184 28.4876 4.18094 28.7881 4.18094C29.0887 4.18094 29.3858 4.21184 29.6727 4.26676C29.9664 4.32511 30.2499 4.41092 30.5197 4.52419L30.6393 4.57224L30.5744 4.68551L29.4302 6.67977L29.3892 6.75528L29.3073 6.73469C29.2253 6.7141 29.1399 6.69693 29.0511 6.68664C28.9657 6.67634 28.8769 6.66947 28.7881 6.66947C28.6993 6.66947 28.6105 6.67634 28.5251 6.68664C28.4363 6.69693 28.351 6.7141 28.269 6.73469L28.187 6.75528L28.146 6.67977H28.1426ZM27.299 10.3868L26.1549 12.3811L26.09 12.4943L25.9875 12.4154C25.5196 12.0516 25.1234 11.595 24.8229 11.0767C24.5326 10.5722 24.3345 10.0058 24.2525 9.40171L24.2354 9.27471H26.7389L26.7628 9.35708C26.8106 9.52871 26.8789 9.69003 26.9643 9.83763C27.0531 9.98866 27.159 10.1294 27.2785 10.2564L27.3366 10.3182L27.2956 10.3937L27.299 10.3868ZM30.2704 7.17061L31.4145 5.17636L31.4794 5.06308L31.5819 5.14203C32.0498 5.50587 32.446 5.96239 32.7465 6.48069C33.0368 6.98526 33.2349 7.55161 33.3169 8.15573L33.334 8.28273H30.8305L30.8066 8.20035C30.7588 8.02872 30.6905 7.8674 30.6051 7.7198C30.5163 7.56878 30.4104 7.42805 30.2909 7.30104L30.2328 7.23926L30.2738 7.16375L30.2704 7.17061ZM29.157 7.87426C29.2765 7.92232 29.3824 7.9944 29.4712 8.08708C29.56 8.17632 29.6317 8.28616 29.6829 8.40286C29.7308 8.51957 29.7581 8.64313 29.7581 8.777C29.7581 8.91087 29.7308 9.03443 29.6829 9.15114C29.6351 9.27127 29.56 9.37768 29.4712 9.46692C29.3824 9.55617 29.2731 9.62825 29.157 9.67974C29.0409 9.72779 28.9179 9.75525 28.7847 9.75525C28.6515 9.75525 28.5286 9.72779 28.4124 9.67974C28.2929 9.62825 28.187 9.55617 28.0982 9.46692C28.0094 9.37768 27.9377 9.27127 27.8865 9.15114C27.8387 9.03443 27.8113 8.91087 27.8113 8.777C27.8113 8.64313 27.8387 8.51957 27.8865 8.40286C27.9343 8.28273 28.0094 8.17632 28.0982 8.08708C28.187 7.99783 28.2929 7.92575 28.4124 7.87426C28.5286 7.82621 28.6515 7.79875 28.7847 7.79875C28.9179 7.79875 29.0409 7.82621 29.157 7.87426ZM8.66137 23.1212C9.05755 23.1212 9.3786 23.7356 9.3786 24.4942C9.3786 25.2528 9.86699 25.3763 10.2393 24.7276C10.6184 24.0686 11.2024 23.6979 11.5439 23.897C11.8889 24.096 11.8582 24.7894 11.4825 25.4484C11.1068 26.1006 11.4654 26.461 12.1143 26.0834C12.7701 25.7024 13.46 25.675 13.6581 26.0216C13.8561 26.3683 13.4873 26.9553 12.8315 27.3328C12.1826 27.7104 12.3158 28.1978 13.0638 28.1978C13.8117 28.1978 14.4299 28.5205 14.4299 28.9186C14.4299 29.3168 13.8186 29.6395 13.0638 29.6395C12.309 29.6395 12.186 30.1303 12.8315 30.5044C13.4873 30.8854 13.8561 31.4724 13.6581 31.8156C13.46 32.1623 12.7701 32.1314 12.1143 31.7538C11.4654 31.3763 11.1068 31.7367 11.4825 32.3889C11.8616 33.0479 11.8889 33.7412 11.5439 33.9403C11.199 34.1394 10.615 33.7687 10.2393 33.1097C9.8465 32.4266 9.3786 32.5708 9.3786 33.3431C9.3786 34.1154 9.05755 34.7161 8.66137 34.7161C8.26519 34.7161 7.94414 34.1016 7.94414 33.3431C7.94414 32.5845 7.45574 32.4609 7.08347 33.1097C6.70436 33.7687 6.12034 34.1394 5.7788 33.9403C5.43385 33.7412 5.46459 33.0479 5.84028 32.3889C6.21597 31.7367 5.85735 31.3763 5.20843 31.7538C4.55268 32.1349 3.86278 32.1623 3.66469 31.8156C3.4666 31.469 3.83546 30.882 4.49121 30.5044C5.14013 30.1269 5.00693 29.6395 4.25896 29.6395C3.50417 29.6395 2.89282 29.3168 2.89282 28.9186C2.89282 28.5205 3.50417 28.1978 4.25896 28.1978C5.01376 28.1978 5.13671 27.707 4.49121 27.3328C3.83546 26.9518 3.4666 26.3649 3.66469 26.0216C3.86278 25.675 4.55268 25.7059 5.20843 26.0834C5.89151 26.4782 6.2228 26.1178 5.84028 25.4484C5.46117 24.7894 5.43385 24.096 5.7788 23.897C6.12375 23.6979 6.70778 24.0686 7.08347 24.7276C7.45916 25.3798 7.94414 25.2459 7.94414 24.4942C7.94414 23.7425 8.26519 23.1212 8.66137 23.1212ZM8.66137 26.8283C9.81235 26.8283 10.7447 27.7653 10.7447 28.9221C10.7447 30.0788 9.81235 31.0159 8.66137 31.0159C7.51039 31.0159 6.58141 30.0788 6.58141 28.9221C6.58141 27.7653 7.51381 26.8283 8.66137 26.8283V26.8283ZM16.2196 7.30791L15.7927 6.87885C15.7653 6.85139 15.7653 6.8102 15.7892 6.77931L16.1205 6.27474L15.8234 5.16606L15.2872 4.89489C15.253 4.88116 15.2325 4.84341 15.2428 4.80565L15.3999 4.2187C15.4067 4.18438 15.4409 4.16035 15.4784 4.16378L16.083 4.19811L16.889 3.38805L16.8548 2.78393C16.848 2.74618 16.8719 2.70842 16.9061 2.70156L17.4901 2.54366C17.5242 2.53337 17.5584 2.55053 17.5755 2.58485L17.8487 3.13061L18.9519 3.42924L19.4539 3.09629C19.4847 3.07226 19.5256 3.07226 19.553 3.09972L19.9799 3.52878C20.0038 3.5528 20.0072 3.59399 19.9867 3.62489L19.6554 4.13632L19.9526 5.245L20.4956 5.5196C20.5298 5.53676 20.5468 5.57109 20.5366 5.60541L20.3795 6.19236C20.3692 6.22669 20.3351 6.25071 20.2975 6.24385L19.6964 6.20952L18.8904 7.01958L18.9245 7.63056C18.9245 7.66832 18.9041 7.69921 18.8699 7.70951L18.2859 7.8674C18.2517 7.8777 18.2141 7.8571 18.1971 7.82278L17.9273 7.28388L16.8241 6.98526L16.3152 7.31821C16.2845 7.3388 16.2435 7.33537 16.2196 7.31134V7.30791ZM16.6192 5.54706C16.807 6.25071 17.5277 6.66947 18.2278 6.48069C18.928 6.2919 19.3446 5.56766 19.1568 4.864C18.9689 4.16035 18.2483 3.74159 17.5482 3.93037C16.848 4.11916 16.4313 4.84341 16.6192 5.54706V5.54706ZM50.445 10.2152C51.1929 10.4246 51.9033 10.7232 52.5625 11.0973L55.5919 9.20949L56.8283 10.452L58.0646 11.6946L56.1862 14.7392C56.5585 15.4051 56.8556 16.119 57.0639 16.8673L60.534 17.6842V21.1991L57.0639 22.016C56.8556 22.7677 56.5585 23.4816 56.1862 24.1441L58.0646 27.1887L56.8283 28.4312L55.5919 29.6738L52.5625 27.7859C51.8999 28.1601 51.1895 28.4587 50.445 28.6681L49.6287 32.1554H46.1314L45.3151 28.6681C44.5671 28.4587 43.8567 28.1601 43.1976 27.7859L40.1681 29.6738L38.9318 28.4312L37.6954 27.1887L39.5738 24.1441C39.2016 23.4782 38.9044 22.7643 38.6961 22.016L35.2261 21.1991V17.6842L38.6961 16.8673C38.9044 16.1156 39.2016 15.4016 39.5738 14.7392L37.6954 11.6946L38.9318 10.452L40.1681 9.20949L43.1976 11.0973C43.8601 10.7232 44.5705 10.4246 45.3151 10.2152L46.1314 6.72783H49.6287L50.445 10.2152V10.2152ZM47.8834 16.6922C49.3964 16.6922 50.6226 17.9245 50.6226 19.4451C50.6226 20.9656 49.3964 22.1979 47.8834 22.1979C46.3704 22.1979 45.1443 20.9656 45.1443 19.4451C45.1443 17.9245 46.3704 16.6922 47.8834 16.6922ZM47.8834 13.0161C51.4149 13.0161 54.277 15.8925 54.277 19.4416C54.277 22.9908 51.4149 25.8672 47.8834 25.8672C44.352 25.8672 41.4899 22.9908 41.4899 19.4416C41.4899 15.8925 44.352 13.0161 47.8834 13.0161V13.0161ZM3.09432 23.7082C3.43927 23.6944 3.77056 23.6052 4.0677 23.4439L4.80542 23.9038L5.1333 23.5743L5.46117 23.2448L5.00693 22.5068C5.08548 22.3592 5.14696 22.2013 5.19136 22.0331C5.23576 21.8649 5.25966 21.6968 5.2665 21.5286L6.02812 21.1167L5.90858 20.667L5.78905 20.2174L4.92496 20.2448C4.74736 19.9599 4.50487 19.7128 4.21115 19.5274L4.23847 18.659L3.79106 18.5389L3.34364 18.4188L2.9338 19.1842C2.58885 19.1979 2.25756 19.2906 1.96042 19.4485L1.2227 18.9886L0.894826 19.3181L0.566951 19.6476L1.02119 20.3856C0.942641 20.5332 0.881165 20.691 0.836765 20.8592C0.792365 21.0274 0.768457 21.1956 0.761627 21.3638L0 21.7757L0.119538 22.2254L0.239076 22.6784L1.10316 22.651C1.28076 22.9359 1.52325 23.183 1.81697 23.3684L1.78965 24.2368L2.23706 24.3569L2.68448 24.477L3.09432 23.7116V23.7082ZM3.60663 22.4759C3.34364 22.6304 3.0226 22.6819 2.70497 22.5961C2.38734 22.5102 2.1346 22.3043 1.98433 22.04C1.83064 21.7757 1.77941 21.4531 1.86479 21.1338C1.95017 20.8146 2.1551 20.5606 2.41808 20.4096C2.68106 20.2551 3.00211 20.2036 3.31974 20.2895C3.63736 20.3753 3.8901 20.5812 4.04038 20.8455C4.19407 21.1098 4.2453 21.4325 4.15992 21.7517C4.07453 22.0709 3.86961 22.3249 3.60663 22.4759V22.4759ZM53.7681 34.1943C55.0864 33.8408 56.4423 34.6268 56.7975 35.9517C57.1493 37.2767 56.3672 38.6394 55.0489 38.9963C53.7305 39.3499 52.3746 38.5638 52.0195 37.2389C51.6677 35.914 52.4498 34.5513 53.7681 34.1943Z" fill="black"/>
<path fill-rule="evenodd" clip-rule="evenodd" d="M54.458 32.0044C54.8303 32.0078 55.1957 32.0593 55.5475 32.1486L56.719 30.8957L57.443 31.3179L58.1671 31.7401L57.6719 33.3843C57.928 33.6451 58.1534 33.9403 58.3413 34.263L60.049 34.2115L60.2641 35.025L60.4793 35.8385L58.9731 36.6485C58.9697 37.0227 58.9185 37.3899 58.8297 37.7435L60.0763 38.9208L59.6562 39.6485L59.2361 40.3796L57.6002 39.8819C57.3406 40.1393 57.0469 40.3659 56.7292 40.5547L56.7805 42.2709L55.971 42.4871L55.1616 42.7034L54.3556 41.1897C53.9833 41.1862 53.6178 41.1347 53.2661 41.0455L52.0946 42.2983L51.3705 41.8762L50.6465 41.454L51.1417 39.8098C50.8855 39.549 50.6601 39.2538 50.4723 38.9311L48.7646 38.9826L48.5494 38.1691L48.3343 37.3556L49.8404 36.5456C49.8439 36.1714 49.8951 35.8041 49.9839 35.4506L48.7373 34.2733L49.1574 33.5456L49.5775 32.8179L51.2134 33.3156C51.473 33.0582 51.7667 32.8316 52.0843 32.6429L52.0331 30.9266L52.8425 30.7104L53.652 30.4941L54.458 32.0078V32.0044ZM62.8188 23.3512C62.5012 23.9073 62.689 24.6143 63.2423 24.937C63.7956 25.2562 64.4992 25.0674 64.8202 24.5114C65.2506 23.7631 66.5143 25.9667 65.657 25.9667C65.0183 25.9667 64.5026 26.485 64.5026 27.1269C64.5026 27.7688 65.0183 28.2871 65.657 28.2871C66.668 28.2871 65.1549 30.3259 64.8202 29.7424C64.5026 29.1864 63.7956 28.9976 63.2423 29.3168C62.689 29.636 62.5012 30.3465 62.8188 30.9026C63.2287 31.6165 60.7355 31.6131 61.1453 30.9026C61.4629 30.3465 61.2751 29.6395 60.7218 29.3168C60.1685 28.9976 59.4649 29.1864 59.1439 29.7424C58.7033 30.5113 57.5558 28.2871 58.3071 28.2871C58.9458 28.2871 59.4615 27.7688 59.4615 27.1269C59.4615 26.485 58.9458 25.9667 58.3071 25.9667C57.6685 25.9667 58.635 23.6292 59.1439 24.5114C59.4615 25.0674 60.1685 25.2562 60.7218 24.937C61.2751 24.6178 61.4629 23.9073 61.1453 23.3512C60.7355 22.6372 63.2287 22.6407 62.8188 23.3512ZM61.2273 25.8157C61.9479 25.3969 62.8701 25.6441 63.2867 26.3718C63.7034 27.096 63.4575 28.0228 62.7335 28.4415C62.0128 28.8603 61.0907 28.6132 60.674 27.8855C60.2573 27.1612 60.5032 26.2345 61.2273 25.8157ZM37.0192 4.81252V3.76218C37.0192 3.69697 37.0704 3.64548 37.1353 3.63518L38.1565 3.42237L39.1469 1.69928L38.8225 0.703868C38.7986 0.642083 38.8191 0.573434 38.8737 0.53911L39.7754 0.0173768C39.8266 -0.0135153 39.8949 -0.00321793 39.9359 0.0482689L40.636 0.837733H42.6135L43.3068 0.0551338C43.3478 0.00364698 43.4161 -0.0135153 43.4742 0.0173768L44.3793 0.542542C44.4305 0.570002 44.4544 0.635219 44.4339 0.697003L44.106 1.69928L45.0965 3.42237L46.1177 3.63518C46.1826 3.64205 46.2338 3.69697 46.2338 3.76218V4.81252C46.2338 4.87087 46.1928 4.92579 46.1279 4.93952L45.0999 5.15576L44.1095 6.87542L44.4373 7.88113C44.4578 7.94291 44.4339 8.00813 44.3827 8.03559L43.4776 8.56076C43.423 8.59165 43.3512 8.57449 43.3103 8.523L42.6169 7.7404H40.6394L39.9393 8.52986C39.8949 8.57792 39.83 8.59165 39.7788 8.56076L38.8737 8.03559C38.8191 8.0047 38.7986 7.93262 38.8225 7.87083L39.1469 6.87542L38.1565 5.15233L37.1284 4.93608C37.0636 4.92235 37.0226 4.87087 37.0226 4.80908L37.0192 4.81252ZM40.9229 3.0654C41.2576 2.86975 41.6436 2.83199 41.9885 2.92467C42.3369 3.01734 42.6477 3.24388 42.8424 3.5837C43.037 3.92008 43.0746 4.30794 42.9824 4.65462C42.8902 5.00473 42.6648 5.31709 42.3266 5.51274C41.9919 5.70839 41.606 5.74614 41.261 5.65347C40.9127 5.56079 40.6019 5.33425 40.4072 4.99444C40.2125 4.65805 40.175 4.27019 40.2672 3.92351C40.3594 3.5734 40.5848 3.26105 40.9229 3.0654ZM41.7802 3.71413C41.6333 3.67294 41.4728 3.6901 41.3293 3.77248C41.1859 3.85486 41.0903 3.98873 41.0527 4.13632C41.0117 4.28392 41.0288 4.44524 41.1108 4.58941C41.1927 4.73357 41.3259 4.82968 41.4728 4.86743C41.6197 4.90519 41.7802 4.89146 41.9236 4.80908C42.0671 4.7267 42.1627 4.59284 42.2003 4.44524C42.2413 4.29765 42.2242 4.13632 42.1422 3.99216C42.0602 3.848 41.927 3.75189 41.7802 3.71413ZM39.6558 3.14777C39.0274 4.24273 39.3997 5.63974 40.4892 6.27131C41.5787 6.90288 42.9687 6.52874 43.5972 5.43379C44.2256 4.33884 43.8533 2.94183 42.7638 2.31026C41.6743 1.67868 40.2842 2.05282 39.6558 3.14777ZM31.657 40.6027V38.7458C31.657 38.6325 31.7458 38.5364 31.862 38.5226L33.6687 38.1451L35.4208 35.0971L34.8436 33.3362C34.7992 33.2298 34.8367 33.1028 34.9324 33.0479L36.5342 32.1177C36.623 32.0628 36.7459 32.0834 36.8211 32.1692L38.0608 33.5662H41.565L42.7945 32.1829C42.8663 32.0902 42.9892 32.0593 43.0883 32.1143L44.6901 33.0444C44.7823 33.0959 44.8267 33.2092 44.7891 33.319L44.2085 35.0971L45.9606 38.1451L47.7673 38.5226C47.8834 38.5364 47.9722 38.6325 47.9722 38.7458V40.6027C47.9722 40.7091 47.8971 40.8052 47.7844 40.8258L45.9606 41.2068L44.2085 44.2548L44.7891 46.0329C44.8267 46.1427 44.7823 46.256 44.6901 46.3075L43.0883 47.2376C42.9892 47.296 42.8628 47.2651 42.7945 47.169L41.565 45.7857H38.0608L36.8211 47.1827C36.7459 47.272 36.623 47.2891 36.5342 47.2342L34.9324 46.304C34.8333 46.2457 34.7992 46.1221 34.8436 46.0157L35.4208 44.2548L33.6687 41.2068L31.8449 40.8258C31.7322 40.8052 31.6536 40.7091 31.657 40.6027V40.6027ZM36.3224 37.6508C35.209 39.5867 35.8716 42.0649 37.7979 43.1839C39.7241 44.3029 42.19 43.637 43.3034 41.7011C44.4168 39.7652 43.7543 37.287 41.828 36.168C39.9017 35.049 37.4358 35.7149 36.3224 37.6508V37.6508ZM38.5663 37.5066C39.1606 37.16 39.8402 37.0913 40.455 37.2561C41.0698 37.4208 41.6231 37.8224 41.968 38.4231C42.313 39.0204 42.3813 39.7034 42.2173 40.3213C42.0534 40.9391 41.6538 41.4952 41.0561 41.8418C40.4618 42.1885 39.7822 42.2572 39.1674 42.0924C38.5527 41.9276 37.9994 41.526 37.6544 40.9254C37.3095 40.3281 37.2412 39.6451 37.4051 39.0272C37.569 38.4094 37.9686 37.8533 38.5663 37.5066V37.5066ZM38.3716 56.8279L37.4734 55.9252C37.4188 55.8703 37.4153 55.781 37.4666 55.7158L38.1599 54.6483L37.5383 52.3108L36.4078 51.7376C36.3327 51.7067 36.2917 51.6278 36.3122 51.5522L36.6401 50.32C36.6571 50.2513 36.7254 50.1999 36.804 50.2067L38.0813 50.2788L39.7822 48.5694L39.7105 47.296C39.7002 47.2171 39.7446 47.1415 39.8198 47.1209L41.0459 46.7914C41.1142 46.7708 41.1927 46.8052 41.2269 46.8772L41.8041 48.0271L44.13 48.6518L45.1921 47.955C45.257 47.907 45.3458 47.907 45.4005 47.9619L46.2987 48.8646C46.3499 48.9161 46.3602 48.9985 46.3158 49.0637L45.6156 50.1381L46.2372 52.4756L47.378 53.0557C47.4497 53.09 47.4838 53.1689 47.4633 53.2376L47.1355 54.4698C47.115 54.5453 47.0398 54.5934 46.9613 54.5797L45.6942 54.5076L43.9933 56.2169L44.0651 57.5007C44.0719 57.5796 44.0207 57.6483 43.9524 57.6654L42.7262 57.995C42.6511 58.0156 42.5725 57.9709 42.5418 57.8988L41.9714 56.7627L39.6456 56.138L38.5766 56.8417C38.5117 56.8863 38.4263 56.876 38.3785 56.8245L38.3716 56.8279ZM39.2118 53.114C39.608 54.5968 41.1244 55.479 42.6033 55.0808C44.0787 54.6826 44.9565 53.1586 44.5603 51.6724C44.1641 50.1896 42.6477 49.3074 41.1688 49.7056C39.6934 50.1037 38.8156 51.6278 39.2118 53.114V53.114ZM12.3841 6.95437C12.9272 6.95437 13.3677 7.79875 13.3677 8.83878C13.3677 9.87882 14.0372 10.0504 14.5495 9.158C15.0686 8.25527 15.8678 7.74726 16.3391 8.01843C16.8104 8.29302 16.7729 9.24381 16.2537 10.1465C15.738 11.0424 16.2298 11.5333 17.1212 11.0184C18.0195 10.4967 18.9655 10.4589 19.2388 10.9326C19.512 11.4063 19.0031 12.2129 18.1049 12.7312C17.2169 13.2461 17.3945 13.9188 18.4225 13.9188C19.4505 13.9188 20.2975 14.3616 20.2975 14.9074C20.2975 15.4531 19.4573 15.8959 18.4225 15.8959C17.3876 15.8959 17.2169 16.5687 18.1049 17.0835C19.0031 17.6053 19.5086 18.4085 19.2388 18.8821C18.9655 19.3558 18.0195 19.3181 17.1212 18.7963C16.2298 18.278 15.7414 18.7723 16.2537 19.6682C16.7729 20.5709 16.8104 21.5217 16.3391 21.7963C15.8678 22.0709 15.0652 21.5595 14.5495 20.6567C14.0098 19.7197 13.3677 19.9153 13.3677 20.9759C13.3677 22.0366 12.9272 22.8604 12.3841 22.8604C11.8411 22.8604 11.4005 22.016 11.4005 20.9759C11.4005 19.9359 10.7311 19.7643 10.2188 20.6567C9.69964 21.5595 8.89703 22.0675 8.42912 21.7963C7.9578 21.5217 7.99537 20.5709 8.51451 19.6682C9.03023 18.7723 8.53842 18.2815 7.64701 18.7963C6.74876 19.3181 5.80271 19.3558 5.52948 18.8821C5.25625 18.4085 5.76514 17.6018 6.66338 17.0835C7.55138 16.5687 7.37378 15.8959 6.34575 15.8959C5.31089 15.8959 4.47071 15.4531 4.47071 14.9074C4.47071 14.3616 5.31089 13.9188 6.34575 13.9188C7.38061 13.9188 7.55138 13.2461 6.66338 12.7312C5.76514 12.2095 5.25966 11.4063 5.52948 10.9326C5.80271 10.4589 6.74876 10.4967 7.64701 11.0184C8.58282 11.5607 9.04047 11.0664 8.51451 10.1465C7.99537 9.24381 7.9578 8.29302 8.42912 8.01843C8.90044 7.74383 9.70306 8.25527 10.2188 9.158C10.7311 10.0504 11.4005 9.87195 11.4005 8.83878C11.4005 7.80562 11.8411 6.95437 12.3841 6.95437V6.95437ZM12.3841 12.23C13.1218 12.23 13.7878 12.5321 14.2728 13.0161C14.7544 13.5001 15.0549 14.1728 15.0549 14.9142C15.0549 15.6556 14.7544 16.325 14.2728 16.8124C13.7878 17.2964 13.1218 17.5984 12.3841 17.5984C11.6464 17.5984 10.9804 17.2964 10.4954 16.8124C10.0139 16.325 9.7133 15.6556 9.7133 14.9142C9.7133 14.1728 10.0139 13.5035 10.4954 13.0161C10.977 12.5321 11.6464 12.23 12.3841 12.23ZM13.4839 13.809C13.2038 13.5275 12.8145 13.3525 12.3841 13.3525C11.9538 13.3525 11.5678 13.5275 11.2844 13.809C11.0009 14.0904 10.8301 14.4817 10.8301 14.9142C10.8301 15.3467 11.0043 15.7346 11.2844 16.0195C11.5644 16.3009 11.9538 16.476 12.3841 16.476C12.8145 16.476 13.2004 16.3009 13.4839 16.0195C13.7639 15.738 13.9381 15.3467 13.9381 14.9142C13.9381 14.4817 13.7639 14.0939 13.4839 13.809ZM12.3841 11.015C14.5256 11.015 16.264 12.7621 16.264 14.9142C16.264 17.0664 14.5256 18.8135 12.3841 18.8135C10.2427 18.8135 8.50426 17.0664 8.50426 14.9142C8.50426 12.7621 10.2427 11.015 12.3841 11.015ZM30.9979 22.3695C31.5546 22.8466 32.0361 23.3855 32.4357 23.9725L35.0314 23.4061C35.1168 23.3787 35.2124 23.4233 35.25 23.5057L35.5574 24.2024L35.8648 24.8992C35.8989 24.9782 35.875 25.0709 35.8033 25.1223L33.6345 26.691C33.8019 27.3912 33.8804 28.112 33.8599 28.8363L36.2917 29.9106C36.3771 29.9415 36.4283 30.0308 36.4078 30.12L36.2507 30.8648L36.0936 31.6097C36.0765 31.6921 36.0014 31.7538 35.916 31.7538L33.2452 31.7401C33.1086 32.0696 32.9515 32.3923 32.7704 32.7115C32.5894 33.0273 32.3879 33.3293 32.1728 33.6108L33.5116 35.9174C33.5628 35.9929 33.5526 36.0959 33.4843 36.1577L32.9207 36.6691L32.3572 37.1806C32.2957 37.2389 32.2001 37.2458 32.1284 37.1909L29.9767 35.6051C29.3619 35.9826 28.6993 36.2778 28.0128 36.4803L27.7464 39.1371C27.7464 39.2263 27.6747 39.3052 27.5825 39.3155L26.8277 39.3945L26.0729 39.4734C25.9875 39.4837 25.909 39.4322 25.8816 39.3464L25.0688 36.7927C24.3618 36.7378 23.6548 36.5902 22.9683 36.343L21.1992 38.3339C21.1445 38.4059 21.0455 38.4265 20.9635 38.3819L20.3078 38.0009L19.652 37.6199H19.6452V37.613H19.6349V37.6062H19.6247V37.5993H19.6179V37.5925H19.611V37.5856H19.6042V37.5787H19.6008V37.5719H19.5974V37.565H19.594V37.5581H19.5905V37.5513H19.5871V37.5444H19.5837V37.5375H19.5803V37.5307V37.5238V37.5169V37.5101V37.5032V37.4963V37.4895V37.4826V37.4757V37.4689V37.462V37.4552V37.4483V37.4414V37.4346V37.4277V37.4208V37.414L20.4171 34.8637C19.8604 34.39 19.3788 33.8476 18.9792 33.2607L16.3699 33.8305C16.2845 33.8511 16.1991 33.803 16.1649 33.7275L15.8575 33.0307L15.5502 32.3339C15.5126 32.2481 15.5433 32.152 15.6219 32.104L17.7804 30.5456C17.613 29.8454 17.5345 29.1246 17.555 28.4003L15.1096 27.3191C15.0276 27.2848 14.9866 27.1955 15.0037 27.1132L15.1608 26.3683L15.3179 25.6235C15.3384 25.5342 15.4204 25.4725 15.5092 25.4793L18.1663 25.4931C18.3029 25.1635 18.4601 24.8409 18.6411 24.5217C18.8221 24.2059 19.0236 23.9038 19.2388 23.6224L17.8931 21.3055C17.8487 21.2299 17.8658 21.1338 17.9273 21.0789L18.4908 20.5675L19.0543 20.056C19.1226 19.9943 19.2251 19.9943 19.2934 20.056L21.4348 21.635C22.0496 21.2574 22.7122 20.9622 23.3987 20.7597L23.6651 18.0892C23.6753 18 23.7436 17.9348 23.8256 17.9245L24.5804 17.8455L25.3352 17.7666C25.4274 17.7563 25.5094 17.8181 25.5299 17.9073L26.3393 20.4508C27.0463 20.5057 27.7533 20.6533 28.4398 20.9004L30.2157 18.8993V18.8924H30.2226V18.8856H30.2294V18.8787H30.2397V18.8718H30.2499V18.865H30.2601V18.8581H30.2704V18.8513H30.2841V18.8444H30.3011V18.8375H30.3319V18.8307H30.3968V18.8375H30.4138V18.8444H30.4275V18.8513H30.4377V18.8581H30.4412L31.0969 19.2391L31.7527 19.6201C31.8312 19.6682 31.8654 19.7643 31.8312 19.8501L30.9979 22.3832V22.3695ZM19.8296 27.8546H23.1323C23.1903 27.6555 23.2757 27.4564 23.3816 27.2676C23.7505 26.6223 24.3447 26.1933 25.0073 26.0148C25.4308 25.9015 25.8851 25.8912 26.3256 25.9976L27.9787 23.1212C25.2703 21.9851 22.0803 23.0183 20.5742 25.6406C20.1712 26.3443 19.9252 27.096 19.8296 27.8546V27.8546ZM23.1357 29.3786H19.833C20.0619 31.1532 21.0831 32.8042 22.7429 33.7653C24.4028 34.7298 26.3359 34.7916 27.9787 34.1051L26.3256 31.2287C25.6836 31.3831 24.98 31.3008 24.3618 30.9438C23.7436 30.5834 23.3201 30.017 23.1323 29.3786H23.1357ZM27.6406 30.4701L29.2936 33.3465C29.8981 32.8831 30.4241 32.2927 30.8305 31.5891C32.3367 28.9667 31.6331 25.675 29.297 23.8867L27.644 26.7631C27.9548 27.0926 28.1734 27.4907 28.2861 27.9198C28.4637 28.5857 28.3885 29.3168 28.0197 29.9621C27.9104 30.1509 27.784 30.3225 27.6406 30.4735V30.4701ZM26.2812 27.6074C26.0046 27.4461 25.6904 27.4152 25.4035 27.4907C25.1166 27.5663 24.8605 27.755 24.7033 28.0331C24.5428 28.3111 24.5121 28.6269 24.5872 28.9152C24.6624 29.2035 24.8502 29.461 25.1234 29.6189C25.4001 29.7802 25.7143 29.8111 26.0012 29.7356C26.2881 29.6601 26.5442 29.4713 26.7013 29.1967C26.8619 28.9186 26.8926 28.6029 26.8175 28.3145C26.7423 28.0262 26.5545 27.7688 26.2778 27.6109L26.2812 27.6074ZM31.2813 2.72558C31.0388 2.62604 30.7929 2.54023 30.5402 2.46815L30.4753 2.45099L30.4617 2.38577L29.9152 0.0482689H27.6611L27.1146 2.38577L27.1009 2.45099L27.036 2.46815C26.7833 2.54023 26.534 2.62604 26.2949 2.72558C26.049 2.82856 25.8133 2.94183 25.5879 3.07226L25.5299 3.10659L25.4752 3.07226L23.4431 1.80569L22.6473 2.60545L21.8515 3.40521L23.1118 5.44752L23.1459 5.50244L23.1118 5.56079C22.9854 5.78733 22.8693 6.02417 22.7668 6.27131C22.6678 6.51501 22.5824 6.76215 22.5107 7.01615L22.4936 7.08137L22.4287 7.0951L20.1028 7.64429V9.90971L22.4287 10.4589L22.4936 10.4726L22.5107 10.5378C22.5824 10.7919 22.6678 11.0424 22.7668 11.2827C22.8693 11.5298 22.982 11.7667 23.1118 11.9932L23.1459 12.0516L23.1118 12.1065L21.8515 14.1488L22.6473 14.9486L23.4431 15.7483L25.4752 14.4817L25.5299 14.4474L25.5879 14.4817C25.8133 14.6087 26.049 14.7254 26.2949 14.8284C26.534 14.928 26.7833 15.0138 27.036 15.0859L27.1009 15.103L27.1146 15.1682L27.6611 17.5057H29.9152L30.4617 15.1682L30.4753 15.103L30.5402 15.0859C30.7929 15.0138 31.0423 14.928 31.2813 14.8284C31.5272 14.7254 31.7629 14.6122 31.9883 14.4817L32.0464 14.4474L32.101 14.4817L34.1332 15.7483L34.929 14.9486L35.7247 14.1488L34.4645 12.1065L34.4303 12.0516L34.4645 11.9932C34.5908 11.7667 34.707 11.5298 34.8094 11.2827C34.9085 11.039 34.9938 10.7919 35.0656 10.5378L35.0826 10.4726L35.1475 10.4589L37.4734 9.90971V7.64429L35.1475 7.0951L35.0826 7.08137L35.0656 7.01615C34.9938 6.76215 34.9085 6.51158 34.8094 6.27131C34.707 6.02417 34.5942 5.78733 34.4645 5.56079L34.4303 5.50244L34.4645 5.44752L35.7247 3.40521L34.929 2.60545L34.1332 1.80569L32.101 3.07226L32.0464 3.10659L31.9883 3.07226C31.7629 2.94526 31.5272 2.82856 31.2813 2.72558V2.72558ZM29.4302 10.8777L30.5744 12.8719L30.6393 12.9852L30.5197 13.0332C30.2465 13.1465 29.963 13.2323 29.6727 13.2907C29.3858 13.3456 29.0887 13.3765 28.7881 13.3765C28.4876 13.3765 28.1904 13.3456 27.9035 13.2907C27.6098 13.2323 27.3263 13.1465 27.0565 13.0332L26.937 12.9852L27.0019 12.8719L28.146 10.8777L28.187 10.8021L28.269 10.8227C28.351 10.8433 28.4363 10.8605 28.5251 10.8708C28.6105 10.8811 28.6993 10.888 28.7881 10.888C28.8769 10.888 28.9657 10.8811 29.0511 10.8708C29.1399 10.8605 29.2253 10.8433 29.3073 10.8227L29.3892 10.8021L29.4302 10.8777V10.8777ZM31.418 12.3811L30.2738 10.3868L30.2328 10.3113L30.2909 10.2495C30.4138 10.126 30.5197 9.98522 30.6051 9.83076C30.6905 9.67974 30.7588 9.51841 30.8066 9.35022L30.8305 9.26784H33.334L33.3169 9.39484C33.2349 9.99895 33.0368 10.5653 32.7465 11.0699C32.4494 11.5882 32.0532 12.0447 31.5819 12.4085L31.4794 12.4875L31.4145 12.3742L31.418 12.3811ZM26.1549 5.17636L27.299 7.17061L27.34 7.24613L27.2819 7.30791C27.159 7.43491 27.0531 7.57221 26.9643 7.72667C26.8789 7.8777 26.8106 8.03902 26.7628 8.20721L26.7389 8.28959H24.2354L24.2525 8.16259C24.3345 7.55848 24.5326 6.99212 24.8229 6.48755C25.12 5.96925 25.5196 5.51274 25.9875 5.1489L26.09 5.06995L26.1549 5.18322V5.17636ZM28.1426 6.67977L26.9985 4.68551L26.9336 4.57224L27.0531 4.52419C27.3263 4.41092 27.6098 4.32511 27.9035 4.26676C28.1904 4.21184 28.4876 4.18094 28.7881 4.18094C29.0887 4.18094 29.3858 4.21184 29.6727 4.26676C29.9664 4.32511 30.2499 4.41092 30.5197 4.52419L30.6393 4.57224L30.5744 4.68551L29.4302 6.67977L29.3892 6.75528L29.3073 6.73469C29.2253 6.7141 29.1399 6.69693 29.0511 6.68664C28.9657 6.67634 28.8769 6.66947 28.7881 6.66947C28.6993 6.66947 28.6105 6.67634 28.5251 6.68664C28.4363 6.69693 28.351 6.7141 28.269 6.73469L28.187 6.75528L28.146 6.67977H28.1426ZM27.299 10.3868L26.1549 12.3811L26.09 12.4943L25.9875 12.4154C25.5196 12.0516 25.1234 11.595 24.8229 11.0767C24.5326 10.5722 24.3345 10.0058 24.2525 9.40171L24.2354 9.27471H26.7389L26.7628 9.35708C26.8106 9.52871 26.8789 9.69003 26.9643 9.83763C27.0531 9.98866 27.159 10.1294 27.2785 10.2564L27.3366 10.3182L27.2956 10.3937L27.299 10.3868ZM30.2704 7.17061L31.4145 5.17636L31.4794 5.06308L31.5819 5.14203C32.0498 5.50587 32.446 5.96239 32.7465 6.48069C33.0368 6.98526 33.2349 7.55161 33.3169 8.15573L33.334 8.28273H30.8305L30.8066 8.20035C30.7588 8.02872 30.6905 7.8674 30.6051 7.7198C30.5163 7.56878 30.4104 7.42805 30.2909 7.30104L30.2328 7.23926L30.2738 7.16375L30.2704 7.17061ZM29.157 7.87426C29.2765 7.92232 29.3824 7.9944 29.4712 8.08708C29.56 8.17632 29.6317 8.28616 29.6829 8.40286C29.7308 8.51957 29.7581 8.64313 29.7581 8.777C29.7581 8.91087 29.7308 9.03443 29.6829 9.15114C29.6351 9.27127 29.56 9.37768 29.4712 9.46692C29.3824 9.55617 29.2731 9.62825 29.157 9.67974C29.0409 9.72779 28.9179 9.75525 28.7847 9.75525C28.6515 9.75525 28.5286 9.72779 28.4124 9.67974C28.2929 9.62825 28.187 9.55617 28.0982 9.46692C28.0094 9.37768 27.9377 9.27127 27.8865 9.15114C27.8387 9.03443 27.8113 8.91087 27.8113 8.777C27.8113 8.64313 27.8387 8.51957 27.8865 8.40286C27.9343 8.28273 28.0094 8.17632 28.0982 8.08708C28.187 7.99783 28.2929 7.92575 28.4124 7.87426C28.5286 7.82621 28.6515 7.79875 28.7847 7.79875C28.9179 7.79875 29.0409 7.82621 29.157 7.87426ZM8.66137 23.1212C9.05755 23.1212 9.3786 23.7356 9.3786 24.4942C9.3786 25.2528 9.86699 25.3763 10.2393 24.7276C10.6184 24.0686 11.2024 23.6979 11.5439 23.897C11.8889 24.096 11.8582 24.7894 11.4825 25.4484C11.1068 26.1006 11.4654 26.461 12.1143 26.0834C12.7701 25.7024 13.46 25.675 13.6581 26.0216C13.8561 26.3683 13.4873 26.9553 12.8315 27.3328C12.1826 27.7104 12.3158 28.1978 13.0638 28.1978C13.8117 28.1978 14.4299 28.5205 14.4299 28.9186C14.4299 29.3168 13.8186 29.6395 13.0638 29.6395C12.309 29.6395 12.186 30.1303 12.8315 30.5044C13.4873 30.8854 13.8561 31.4724 13.6581 31.8156C13.46 32.1623 12.7701 32.1314 12.1143 31.7538C11.4654 31.3763 11.1068 31.7367 11.4825 32.3889C11.8616 33.0479 11.8889 33.7412 11.5439 33.9403C11.199 34.1394 10.615 33.7687 10.2393 33.1097C9.8465 32.4266 9.3786 32.5708 9.3786 33.3431C9.3786 34.1154 9.05755 34.7161 8.66137 34.7161C8.26519 34.7161 7.94414 34.1016 7.94414 33.3431C7.94414 32.5845 7.45574 32.4609 7.08347 33.1097C6.70436 33.7687 6.12034 34.1394 5.7788 33.9403C5.43385 33.7412 5.46459 33.0479 5.84028 32.3889C6.21597 31.7367 5.85735 31.3763 5.20843 31.7538C4.55268 32.1349 3.86278 32.1623 3.66469 31.8156C3.4666 31.469 3.83546 30.882 4.49121 30.5044C5.14013 30.1269 5.00693 29.6395 4.25896 29.6395C3.50417 29.6395 2.89282 29.3168 2.89282 28.9186C2.89282 28.5205 3.50417 28.1978 4.25896 28.1978C5.01376 28.1978 5.13671 27.707 4.49121 27.3328C3.83546 26.9518 3.4666 26.3649 3.66469 26.0216C3.86278 25.675 4.55268 25.7059 5.20843 26.0834C5.89151 26.4782 6.2228 26.1178 5.84028 25.4484C5.46117 24.7894 5.43385 24.096 5.7788 23.897C6.12375 23.6979 6.70778 24.0686 7.08347 24.7276C7.45916 25.3798 7.94414 25.2459 7.94414 24.4942C7.94414 23.7425 8.26519 23.1212 8.66137 23.1212ZM8.66137 26.8283C9.81235 26.8283 10.7447 27.7653 10.7447 28.9221C10.7447 30.0788 9.81235 31.0159 8.66137 31.0159C7.51039 31.0159 6.58141 30.0788 6.58141 28.9221C6.58141 27.7653 7.51381 26.8283 8.66137 26.8283V26.8283ZM16.2196 7.30791L15.7927 6.87885C15.7653 6.85139 15.7653 6.8102 15.7892 6.77931L16.1205 6.27474L15.8234 5.16606L15.2872 4.89489C15.253 4.88116 15.2325 4.84341 15.2428 4.80565L15.3999 4.2187C15.4067 4.18438 15.4409 4.16035 15.4784 4.16378L16.083 4.19811L16.889 3.38805L16.8548 2.78393C16.848 2.74618 16.8719 2.70842 16.9061 2.70156L17.4901 2.54366C17.5242 2.53337 17.5584 2.55053 17.5755 2.58485L17.8487 3.13061L18.9519 3.42924L19.4539 3.09629C19.4847 3.07226 19.5256 3.07226 19.553 3.09972L19.9799 3.52878C20.0038 3.5528 20.0072 3.59399 19.9867 3.62489L19.6554 4.13632L19.9526 5.245L20.4956 5.5196C20.5298 5.53676 20.5468 5.57109 20.5366 5.60541L20.3795 6.19236C20.3692 6.22669 20.3351 6.25071 20.2975 6.24385L19.6964 6.20952L18.8904 7.01958L18.9245 7.63056C18.9245 7.66832 18.9041 7.69921 18.8699 7.70951L18.2859 7.8674C18.2517 7.8777 18.2141 7.8571 18.1971 7.82278L17.9273 7.28388L16.8241 6.98526L16.3152 7.31821C16.2845 7.3388 16.2435 7.33537 16.2196 7.31134V7.30791ZM16.6192 5.54706C16.807 6.25071 17.5277 6.66947 18.2278 6.48069C18.928 6.2919 19.3446 5.56766 19.1568 4.864C18.9689 4.16035 18.2483 3.74159 17.5482 3.93037C16.848 4.11916 16.4313 4.84341 16.6192 5.54706V5.54706ZM50.445 10.2152C51.1929 10.4246 51.9033 10.7232 52.5625 11.0973L55.5919 9.20949L56.8283 10.452L58.0646 11.6946L56.1862 14.7392C56.5585 15.4051 56.8556 16.119 57.0639 16.8673L60.534 17.6842V21.1991L57.0639 22.016C56.8556 22.7677 56.5585 23.4816 56.1862 24.1441L58.0646 27.1887L56.8283 28.4312L55.5919 29.6738L52.5625 27.7859C51.8999 28.1601 51.1895 28.4587 50.445 28.6681L49.6287 32.1554H46.1314L45.3151 28.6681C44.5671 28.4587 43.8567 28.1601 43.1976 27.7859L40.1681 29.6738L38.9318 28.4312L37.6954 27.1887L39.5738 24.1441C39.2016 23.4782 38.9044 22.7643 38.6961 22.016L35.2261 21.1991V17.6842L38.6961 16.8673C38.9044 16.1156 39.2016 15.4016 39.5738 14.7392L37.6954 11.6946L38.9318 10.452L40.1681 9.20949L43.1976 11.0973C43.8601 10.7232 44.5705 10.4246 45.3151 10.2152L46.1314 6.72783H49.6287L50.445 10.2152V10.2152ZM47.8834 16.6922C49.3964 16.6922 50.6226 17.9245 50.6226 19.4451C50.6226 20.9656 49.3964 22.1979 47.8834 22.1979C46.3704 22.1979 45.1443 20.9656 45.1443 19.4451C45.1443 17.9245 46.3704 16.6922 47.8834 16.6922ZM47.8834 13.0161C51.4149 13.0161 54.277 15.8925 54.277 19.4416C54.277 22.9908 51.4149 25.8672 47.8834 25.8672C44.352 25.8672 41.4899 22.9908 41.4899 19.4416C41.4899 15.8925 44.352 13.0161 47.8834 13.0161V13.0161ZM3.09432 23.7082C3.43927 23.6944 3.77056 23.6052 4.0677 23.4439L4.80542 23.9038L5.1333 23.5743L5.46117 23.2448L5.00693 22.5068C5.08548 22.3592 5.14696 22.2013 5.19136 22.0331C5.23576 21.8649 5.25966 21.6968 5.2665 21.5286L6.02812 21.1167L5.90858 20.667L5.78905 20.2174L4.92496 20.2448C4.74736 19.9599 4.50487 19.7128 4.21115 19.5274L4.23847 18.659L3.79106 18.5389L3.34364 18.4188L2.9338 19.1842C2.58885 19.1979 2.25756 19.2906 1.96042 19.4485L1.2227 18.9886L0.894826 19.3181L0.566951 19.6476L1.02119 20.3856C0.942641 20.5332 0.881165 20.691 0.836765 20.8592C0.792365 21.0274 0.768457 21.1956 0.761627 21.3638L0 21.7757L0.119538 22.2254L0.239076 22.6784L1.10316 22.651C1.28076 22.9359 1.52325 23.183 1.81697 23.3684L1.78965 24.2368L2.23706 24.3569L2.68448 24.477L3.09432 23.7116V23.7082ZM3.60663 22.4759C3.34364 22.6304 3.0226 22.6819 2.70497 22.5961C2.38734 22.5102 2.1346 22.3043 1.98433 22.04C1.83064 21.7757 1.77941 21.4531 1.86479 21.1338C1.95017 20.8146 2.1551 20.5606 2.41808 20.4096C2.68106 20.2551 3.00211 20.2036 3.31974 20.2895C3.63736 20.3753 3.8901 20.5812 4.04038 20.8455C4.19407 21.1098 4.2453 21.4325 4.15992 21.7517C4.07453 22.0709 3.86961 22.3249 3.60663 22.4759V22.4759ZM53.7681 34.1943C55.0864 33.8408 56.4423 34.6268 56.7975 35.9517C57.1493 37.2767 56.3672 38.6394 55.0489 38.9963C53.7305 39.3499 52.3746 38.5638 52.0195 37.2389C51.6677 35.914 52.4498 34.5513 53.7681 34.1943Z" fill="url(#paint0_linear_7_265)"/>
<defs>
<linearGradient id="paint0_linear_7_265" x1="-3.10665e-06" y1="67.425" x2="71.4222" y2="56.3746" gradientUnits="userSpaceOnUse">
<stop stop-color="#EE2762"/>
<stop offset="1" stop-color="#F05B3A"/>
</linearGradient>
</defs>
</svg>
