<svg width="62" height="62" viewBox="0 0 62 62" fill="none" xmlns="http://www.w3.org/2000/svg">
<path fill-rule="evenodd" clip-rule="evenodd" d="M46.2839 23.7111C46.1716 23.7111 46.0593 23.7224 45.9507 23.7412L41.7887 17.6599C41.8673 17.528 41.9309 17.3811 41.9796 17.2304L52.4296 15.8325L46.6731 23.7525C46.5496 23.7262 46.4186 23.7111 46.2876 23.7111H46.2839ZM29.3251 31.4239L29.3176 53.6806C29.3176 57.6293 27.6371 60.0143 25.3876 61.0957C24.4182 61.5629 23.344 61.7815 22.2624 61.7702C21.1919 61.7626 20.1065 61.5328 19.0922 61.1032C16.6743 60.0784 14.6569 57.9232 14.2153 54.939C12.8454 55.2066 11.5878 55.1463 10.4687 54.8298C9.26352 54.4831 8.2305 53.8351 7.40708 52.9685C6.59488 52.1132 5.99603 51.0393 5.64795 49.8374C5.25495 48.4809 5.18384 46.9587 5.49449 45.3875C3.78402 44.9655 2.35426 43.7749 1.38486 42.2188C0.883324 41.4162 0.505298 40.5119 0.2695 39.5662C0.0374443 38.6167 -0.0523837 37.6258 0.0299586 36.6499C0.194643 34.6981 1.02555 32.7916 2.72105 31.3636C1.02555 29.9393 0.194643 28.0328 0.0299586 26.0773C-0.0523837 25.0977 0.0374443 24.1067 0.2695 23.161C0.501555 22.2153 0.883324 21.311 1.38486 20.5084C2.35426 18.9523 3.78402 17.7617 5.49449 17.3397C5.18384 15.7685 5.25495 14.2462 5.64795 12.8898C5.99603 11.6879 6.59488 10.614 7.40708 9.75874C8.2305 8.89213 9.26352 8.24406 10.4687 7.89742C11.5841 7.57715 12.8454 7.51686 14.2153 7.78815C14.6569 4.80401 16.6743 2.6488 19.0922 1.62394C20.1065 1.19441 21.1919 0.96457 22.2624 0.957034C23.3478 0.949499 24.4182 1.16427 25.3876 1.63148C27.6371 2.71662 29.3176 5.0979 29.3176 9.04661L29.3251 30.4593V31.3033C29.3251 31.3221 29.3251 31.3448 29.3251 31.3636C29.3251 31.3824 29.3251 31.405 29.3251 31.4239ZM27.7643 30.3651L27.7568 9.04284C27.7568 5.79872 26.4581 3.88089 24.7177 3.04442C23.9691 2.68271 23.1307 2.51692 22.2773 2.52069C21.409 2.52823 20.5257 2.71662 19.7023 3.06703C17.5988 3.95624 15.8734 5.89669 15.7049 8.5794C16.2813 10.1468 17.1946 11.0511 18.164 11.5786C18.9986 12.0308 19.9006 12.2229 20.6904 12.3209C20.7578 11.3902 21.0647 10.452 21.6635 9.53643C21.8993 9.17472 22.3859 9.07299 22.7452 9.31036C23.1045 9.54774 23.2056 10.0376 22.9698 10.3993C22.4271 11.2282 22.21 12.076 22.2437 12.8936C22.2848 13.8092 22.6404 14.7059 23.2131 15.5198C23.4638 15.874 23.3815 16.3638 23.0297 16.6162C22.6778 16.8687 22.1913 16.7858 21.9405 16.4316C21.394 15.6554 20.9973 14.8077 20.8064 13.9222C19.8108 13.8205 18.5981 13.6019 17.4266 12.9652C16.2214 12.3096 15.0949 11.232 14.3575 9.41963C13.07 9.09559 11.906 9.1182 10.9029 9.40456C9.97092 9.67208 9.17744 10.1694 8.5449 10.8326C7.90487 11.507 7.42953 12.3586 7.15257 13.3156C6.8232 14.4572 6.7708 15.7496 7.05151 17.0985C7.20496 17.0872 7.36591 17.0797 7.53433 17.0721C8.10699 17.0533 8.7545 17.0721 9.56669 17.1324C9.99712 17.1663 10.3227 17.5431 10.2891 17.9764C10.2554 18.4097 9.88109 18.7375 9.45066 18.7036C8.6759 18.6433 8.08079 18.6245 7.58299 18.6433C7.26859 18.6546 6.98039 18.6772 6.70717 18.7112C6.65103 18.73 6.5874 18.7451 6.52377 18.7488V18.7375V18.7488C4.94429 18.8845 3.60062 19.9093 2.71357 21.3336C2.30186 21.9929 1.98746 22.739 1.79657 23.5227C1.60569 24.3026 1.53083 25.124 1.5982 25.9341C1.74417 27.6899 2.5676 29.393 4.28556 30.561H16.476C16.9101 30.561 17.2582 30.9152 17.2582 31.3485C17.2582 31.7818 16.9064 32.136 16.476 32.136H4.27807C2.56011 33.3003 1.73669 35.0071 1.59072 36.7629C1.52335 37.573 1.59446 38.3944 1.78909 39.1744C1.98372 39.9581 2.29437 40.7041 2.70608 41.3635C3.59313 42.7877 4.93681 43.8126 6.51628 43.9482V43.9595V43.9482C6.57991 43.952 6.64354 43.9671 6.69968 43.9859C6.97291 44.0198 7.26111 44.0462 7.5755 44.0537C8.0733 44.0688 8.66467 44.0537 9.44318 43.9934C9.8736 43.9595 10.2516 44.2873 10.2816 44.7206C10.3153 45.1539 9.98963 45.5345 9.55921 45.5646C8.74701 45.6287 8.0995 45.6438 7.52685 45.6249C7.35842 45.6211 7.19748 45.6098 7.04402 45.5985C6.76705 46.9474 6.81571 48.2436 7.14508 49.3815C7.42205 50.3423 7.89739 51.19 8.53741 51.8645C9.16621 52.5314 9.96343 53.0287 10.8954 53.2925C11.8985 53.5788 13.0625 53.6015 14.35 53.2774C15.0874 51.4651 16.214 50.3875 17.4191 49.7319C18.5907 49.0951 19.8071 48.8766 20.7989 48.7748C20.9898 47.8894 21.3865 47.0416 21.933 46.2654C22.1838 45.9113 22.6703 45.8284 23.0222 46.0808C23.374 46.3333 23.4563 46.8231 23.2056 47.1773C22.6292 47.9911 22.2736 48.8879 22.2362 49.8035C22.2025 50.6211 22.4196 51.4689 22.9623 52.2978C23.1981 52.6595 23.1008 53.1455 22.7377 53.3867C22.3747 53.6278 21.8956 53.5261 21.656 53.1606C21.0572 52.245 20.7503 51.3031 20.6829 50.3762C19.8969 50.4741 18.9911 50.6663 18.1565 51.1184C17.1833 51.6459 16.2738 52.5502 15.6974 54.1177C15.8659 56.8004 17.5913 58.7408 19.6948 59.63C20.522 59.9804 21.4053 60.1688 22.2699 60.1764C23.1232 60.1839 23.9616 60.0143 24.7102 59.6526C26.4506 58.8162 27.7494 56.8983 27.7494 53.6542L27.7568 32.3319C27.2853 32.4939 26.8586 32.7313 26.5105 33.0441C26.0164 33.4849 25.6609 34.0915 25.5037 34.8828C25.4213 35.3085 25.0096 35.5874 24.5867 35.5045C24.1637 35.4216 23.8868 35.0071 23.9691 34.5813C24.1974 33.4284 24.7326 32.5316 25.4775 31.8685C25.702 31.6688 25.9416 31.4917 26.1961 31.3372C25.9416 31.1827 25.6983 31.0056 25.4775 30.806C24.7326 30.1428 24.1974 29.2423 23.9691 28.0931C23.8868 27.6673 24.1637 27.2529 24.5867 27.17C25.0096 27.0871 25.4213 27.3659 25.5037 27.7917C25.6609 28.5829 26.0164 29.1895 26.5105 29.6304C26.8623 29.9431 27.2852 30.1805 27.7606 30.3425L27.7643 30.3651ZM19.3392 24.9093C17.64 24.4421 16.3936 23.647 15.5066 22.69C14.8516 23.1648 14.0169 23.534 13.1336 23.7676C11.9658 24.0766 10.6821 24.1557 9.58166 23.9259C9.15872 23.8392 8.88924 23.421 8.97532 22.9952C9.06141 22.5694 9.47686 22.2981 9.8998 22.3848C10.7607 22.5657 11.7862 22.4978 12.7369 22.2454C13.4443 22.057 14.0955 21.7744 14.5858 21.4202C13.71 19.8641 13.5378 18.1158 13.7736 16.6878C13.8447 16.2583 14.2452 15.9682 14.6719 16.036C15.0986 16.1076 15.3868 16.5107 15.3194 16.9403C15.1173 18.1761 15.297 19.7172 16.184 21.0171C16.8764 22.0344 18.0143 22.9085 19.7547 23.3871C20.1701 23.5001 20.4172 23.9334 20.3011 24.3516C20.1888 24.7699 19.7584 25.0185 19.343 24.9017L19.3392 24.9093ZM19.7509 39.3326C18.0105 39.8111 16.8727 40.6853 16.1803 41.7026C15.2932 43.0025 15.1136 44.5435 15.3157 45.7794C15.3868 46.2089 15.0949 46.6121 14.6682 46.6837C14.2415 46.7553 13.841 46.4614 13.7699 46.0318C13.5341 44.6076 13.7025 42.8593 14.5821 41.3032C14.0918 40.9528 13.4443 40.6664 12.7331 40.478C11.7824 40.2256 10.7569 40.1578 9.89606 40.3386C9.47312 40.4253 9.06141 40.154 8.97158 39.7282C8.8855 39.3025 9.15498 38.888 9.57792 38.7976C10.6783 38.5677 11.9621 38.6469 13.1299 38.9558C14.0132 39.1894 14.8478 39.5624 15.5028 40.0334C16.3899 39.0764 17.6362 38.2814 19.3355 37.8142C19.7509 37.7011 20.1814 37.946 20.2936 38.3643C20.4059 38.7825 20.1626 39.2158 19.7472 39.3288L19.7509 39.3326ZM40.1868 3.58323L40.9653 14.5439L45.9919 8.70751C45.8796 8.46636 45.8197 8.19508 45.8197 7.91249C45.8197 7.78815 45.831 7.66758 45.8534 7.55078L40.2392 3.54932C40.2392 3.54932 40.2055 3.56816 40.1868 3.57946V3.58323ZM39.3858 14.3932L38.626 3.69626C38.5063 3.65105 38.394 3.59453 38.2892 3.53048L34.217 6.27347C34.2319 6.3752 34.2432 6.47694 34.2432 6.58244C34.2432 6.9027 34.1646 7.20413 34.0261 7.46788L39.3896 14.3932H39.3858ZM60.0949 24.5249L60.7911 36.6311C61.4985 36.9061 62 37.5956 62 38.4057C62 39.4494 61.1654 40.2972 60.1286 40.3085L56.7825 47.9195C57.0782 48.2549 57.2616 48.6995 57.2616 49.1855C57.2616 50.2368 56.4157 51.0883 55.3715 51.0883C55.1544 51.0883 54.9448 51.0506 54.7501 50.9828L50.5282 55.4552C50.6181 55.6775 50.6667 55.9149 50.6667 56.1711C50.6667 57.2224 49.8208 58.0739 48.7766 58.0739C48.3237 58.0739 47.9082 57.9119 47.5826 57.6444L42.7993 60.0332C42.7993 60.0558 42.7993 60.0746 42.7993 60.0972C42.7993 61.1485 41.9534 62 40.9092 62C39.8649 62 39.019 61.1485 39.019 60.0972C39.019 60.0596 39.019 60.0219 39.019 59.9842L34.0448 57.3354C33.7716 57.4899 33.4534 57.5803 33.1166 57.5803C32.0723 57.5803 31.2265 56.7288 31.2265 55.6775C31.2265 54.8901 31.7018 54.2118 32.383 53.9217L32.6974 42.1924C32.0686 41.8834 31.6344 41.2316 31.6344 40.4818C31.6344 39.732 32.0873 39.05 32.7386 38.7486L32.7086 27.5091C32.0499 27.2114 31.5933 26.5445 31.5933 25.7721C31.5933 25.0411 32.0012 24.4081 32.6001 24.0879L31.6681 8.35333C30.9607 8.07827 30.4554 7.38876 30.4554 6.5749C30.4554 5.52367 31.3013 4.67214 32.3456 4.67214C32.7124 4.67214 33.053 4.77764 33.3412 4.95849L37.4133 2.2155C37.3984 2.11376 37.3871 2.01203 37.3871 1.90277C37.3871 0.851535 38.233 0 39.2773 0C40.3215 0 41.1674 0.851535 41.1674 1.90277C41.1674 2.0271 41.1562 2.14768 41.1337 2.26448L46.748 6.26594C47.0287 6.10015 47.3543 6.00596 47.7024 6.00596C48.7466 6.00596 49.5925 6.85749 49.5925 7.90872C49.5925 8.16493 49.5401 8.40984 49.4503 8.63592L53.5188 13.0029C53.7096 12.9388 53.9155 12.9011 54.1251 12.9011C55.1693 12.9011 56.0152 13.7527 56.0152 14.8039C56.0152 15.1882 55.9029 15.5462 55.7083 15.8438L58.9384 20.953C59.0245 20.9417 59.1143 20.9342 59.2041 20.9342C60.2484 20.9342 61.0942 21.7857 61.0942 22.8369C61.0942 23.5679 60.6863 24.2009 60.0837 24.5212L60.0949 24.5249ZM59.2303 36.7215L58.5716 25.2597L49.9481 38.4848L49.9556 38.4961L58.332 37.7689C58.493 37.3168 58.8149 36.9438 59.2341 36.7215H59.2303ZM58.463 39.3401L50.1577 40.0598C50.1165 40.1917 50.0641 40.3198 49.9967 40.4366L54.9897 47.3204C55.1095 47.2941 55.2292 47.2828 55.3565 47.279L58.7026 39.6679C58.6127 39.5662 58.5341 39.4569 58.4668 39.3364L58.463 39.3401ZM53.5786 49.7846L42.9265 48.6618C44.39 50.1689 46.7367 52.6218 48.2077 54.3513C48.3873 54.2947 48.5782 54.2646 48.7766 54.2646C48.9937 54.2646 49.2033 54.3023 49.3979 54.3701L53.6198 49.8977C53.6048 49.86 53.5899 49.8223 53.5786 49.7846ZM42.7843 47.068L53.7059 48.2172L48.7354 41.3635C48.6119 41.3899 48.4809 41.4049 48.3499 41.4049C48.159 41.4049 47.9756 41.3748 47.7997 41.322L42.7843 47.068ZM40.1456 58.3527L40.2429 49.7582L34.8944 55.0257C34.9693 55.2292 35.0067 55.4477 35.0067 55.6738C35.0067 55.8019 34.9955 55.9225 34.9693 56.043L39.7489 58.5901C39.8686 58.4959 40.0034 58.4168 40.1419 58.3527H40.1456ZM41.8037 49.7469L41.7064 58.3678C41.8486 58.4356 41.9796 58.5185 42.0994 58.6165L46.8827 56.2277C46.8827 56.205 46.8827 56.1862 46.8827 56.1636C46.8827 55.8019 46.9838 55.4628 47.1597 55.1727C45.8572 53.8388 43.3457 51.2993 41.8037 49.7432V49.7469ZM42.0994 15.6215L47.1672 9.73613C47.3393 9.78511 47.519 9.81525 47.7061 9.81525C47.9195 9.81525 48.1216 9.78134 48.3125 9.71352L52.3809 14.0805C52.3585 14.137 52.336 14.1973 52.321 14.2538L42.0994 15.6215ZM39.7638 18.5341L35.1302 24.849C35.1527 24.8867 35.1714 24.9281 35.1901 24.9658L44.5434 24.8452C44.5771 24.7699 44.6146 24.6983 44.6557 24.6267L40.49 18.5416C40.3814 18.5604 40.2691 18.5717 40.1568 18.5717C40.0221 18.5717 39.8911 18.5567 39.7601 18.5303L39.7638 18.5341ZM34.1309 23.5604L38.5063 17.5996C38.3528 17.3246 38.2667 17.0081 38.2667 16.6727C38.2667 16.3525 38.3453 16.051 38.4838 15.7873L33.2738 9.05792L34.1309 23.5604ZM57.5161 24.005L48.1253 26.017C48.0168 26.5144 47.7174 26.9364 47.3094 27.2039L48.8178 37.3432L57.5161 24.005ZM48.1178 24.4081L57.3626 22.4263C57.4113 22.1964 57.5011 21.9854 57.6246 21.797L54.3946 16.6878C54.3085 16.6991 54.2187 16.7067 54.1288 16.7067C53.9978 16.7067 53.8668 16.6916 53.7433 16.6652L48.1178 24.4081ZM35.4035 26.5332C38.1095 29.0539 44.2927 34.7245 47.2458 37.4261L45.7599 27.4375C45.2321 27.2868 44.798 26.91 44.5659 26.4164L35.4035 26.5332ZM46.4373 38.8126C43.5965 36.2091 37.1289 30.2785 34.2656 27.5995L34.2956 38.7411C34.6249 38.888 34.9019 39.1291 35.0965 39.4306L46.4336 38.8126H46.4373ZM41.5941 46.0431C41.4219 45.9904 41.2348 45.9603 41.0439 45.9603C40.8006 45.9603 40.5686 46.0055 40.3552 46.0884L35.2949 41.1223C35.3099 41.0809 35.3249 41.0357 35.3361 40.9905L46.5271 40.3801L41.5866 46.0394L41.5941 46.0431ZM33.9475 53.7522L39.2661 48.5149C39.1912 48.3114 39.1538 48.0929 39.1538 47.8668C39.1538 47.6407 39.1949 47.4222 39.2661 47.2187L34.2544 42.2979L33.9475 53.7522Z" fill="url(#paint0_linear_7_267)"/>
<defs>
<linearGradient id="paint0_linear_7_267" x1="-2.91837e-06" y1="72.075" x2="67.4527" y2="62.9038" gradientUnits="userSpaceOnUse">
<stop stop-color="#EE2762"/>
<stop offset="1" stop-color="#F05B3A"/>
</linearGradient>
</defs>
</svg>
