<svg width="73" height="58" viewBox="0 0 73 58" fill="none" xmlns="http://www.w3.org/2000/svg">
<g clip-path="url(#clip0_7_262)">
<path d="M42.0525 15.1686H43.3081V6.29454C42.77 6.1442 42.2904 5.85539 41.9083 5.46767C41.339 4.88608 40.9842 4.0869 40.9842 3.20464C40.9842 2.32237 41.339 1.52319 41.9083 0.94161C42.4814 0.360027 43.2691 0 44.1386 0C45.0081 0 45.7957 0.360027 46.3689 0.937653C46.9382 1.51924 47.293 2.31842 47.293 3.20068C47.293 4.08295 46.9382 4.88213 46.3689 5.46371C45.9868 5.85539 45.5072 6.1442 44.9691 6.29454V15.1726H52.5101V9.89877C51.972 9.74843 51.4924 9.45962 51.1103 9.0719C50.541 8.49031 50.1862 7.69113 50.1862 6.80887C50.1862 5.9266 50.541 5.12742 51.1103 4.54584C51.6795 3.96426 52.4711 3.60423 53.3406 3.60423C54.2101 3.60423 54.9977 3.96426 55.5709 4.54188C56.1402 5.12346 56.495 5.92265 56.495 6.80491C56.495 7.68718 56.1402 8.48636 55.5709 9.06794C55.1888 9.45962 54.7092 9.74843 54.1711 9.89877V15.1726H55.0484C55.836 15.1726 56.5535 15.501 57.0721 16.0271C57.579 16.5415 57.8987 17.2497 57.9143 18.0291H64.4805C64.6286 17.4831 64.9133 16.9965 65.2954 16.6087C65.8647 16.0271 66.6562 15.6671 67.5257 15.6671C68.3952 15.6671 69.1829 16.0271 69.756 16.6048C70.3253 17.1864 70.6801 17.9855 70.6801 18.8678C70.6801 19.7501 70.3253 20.5492 69.756 21.1308C69.1868 21.7124 68.3952 22.0724 67.5257 22.0724C66.6562 22.0724 65.8686 21.7124 65.2954 21.1348C64.9133 20.7431 64.6286 20.2565 64.4805 19.7105H57.9143V28.0188H66.8083C66.9564 27.4728 67.2411 26.9862 67.6232 26.5985C68.1925 26.0169 68.984 25.6569 69.8535 25.6569C70.723 25.6569 71.5107 26.0169 72.0838 26.5945C72.6531 27.1761 73.0079 27.9753 73.0079 28.8576C73.0079 29.7398 72.6531 30.539 72.0838 31.1206C71.5145 31.7022 70.723 32.0622 69.8535 32.0622C68.984 32.0622 68.1964 31.7022 67.6232 31.1246C67.2411 30.7329 66.9564 30.2462 66.8083 29.7003H57.9143V31.2551C57.9143 32.0543 57.5907 32.7823 57.0721 33.3085C56.5535 33.8347 55.836 34.163 55.0484 34.163H53.0754V38.6614H62.4334C62.5816 38.1154 62.8662 37.6288 63.2483 37.2411C63.8176 36.6595 64.6091 36.2995 65.4787 36.2995C66.3482 36.2995 67.1358 36.6595 67.709 37.2371C68.2783 37.8187 68.6331 38.6179 68.6331 39.5001C68.6331 40.3824 68.2783 41.1816 67.709 41.7632C67.1397 42.3447 66.3482 42.7048 65.4787 42.7048C64.6091 42.7048 63.8215 42.3447 63.2483 41.7671C62.8662 41.3754 62.5816 40.8888 62.4334 40.3428H53.0754V45.7947C53.6135 45.945 54.0931 46.2338 54.4752 46.6216C55.0445 47.2031 55.3993 48.0023 55.3993 48.8846C55.3993 49.7668 55.0445 50.566 54.4752 51.1476C53.906 51.7292 53.1144 52.0892 52.2449 52.0892C51.3754 52.0892 50.5878 51.7292 50.0146 51.1516C49.4453 50.57 49.0905 49.7708 49.0905 48.8885C49.0905 48.0063 49.4453 47.2071 50.0146 46.6255C50.3967 46.2338 50.8763 45.945 51.4144 45.7947V34.1591H44.8716V51.7015C45.4097 51.8518 45.8893 52.1407 46.2714 52.5284C46.8407 53.11 47.1955 53.9091 47.1955 54.7914C47.1955 55.6737 46.8407 56.4729 46.2714 57.0544C45.7021 57.636 44.9106 57.996 44.0411 57.996C43.1716 57.996 42.384 57.636 41.8108 57.0584C41.2415 56.4768 40.8867 55.6776 40.8867 54.7954C40.8867 53.9131 41.2415 53.1139 41.8108 52.5323C42.1929 52.1407 42.6725 51.8518 43.2106 51.7015V43.9985H37.9935C37.8453 44.5445 37.5607 45.0311 37.1786 45.4188C36.6093 46.0004 35.8178 46.3604 34.9483 46.3604C34.0788 46.3604 33.2911 46.0004 32.7179 45.4228C32.1487 44.8412 31.7938 44.042 31.7938 43.1598C31.7938 42.2775 32.1487 41.4783 32.7179 40.8967C33.2872 40.3151 34.0788 39.9551 34.9483 39.9551C35.8178 39.9551 36.6054 40.3151 37.1786 40.8928C37.5607 41.2844 37.8453 41.7711 37.9935 42.3171H43.2106V34.1591H42.0525C41.5495 34.1591 41.0777 34.0285 40.6683 33.7951L37.1669 37.3479L36.9251 37.5932H21.4143C21.2661 38.1273 20.9854 38.606 20.6072 38.9898C20.0379 39.5714 19.2464 39.9314 18.3769 39.9314C17.5073 39.9314 16.7197 39.5713 16.1465 38.9937C15.5773 38.4121 15.2224 37.613 15.2224 36.7307C15.2224 35.8484 15.5773 35.0492 16.1465 34.4677C16.7158 33.8861 17.5073 33.5261 18.3769 33.5261C19.2464 33.5261 20.034 33.8861 20.6072 34.4637C20.9971 34.8633 21.2817 35.3578 21.426 35.9117H36.235L39.5103 32.5884C39.3036 32.1888 39.1866 31.7299 39.1866 31.2512V29.3956H13.1013C12.9531 29.9416 12.6685 30.4282 12.2864 30.816C11.7171 31.3975 10.9256 31.7576 10.0561 31.7576C9.18654 31.7576 8.39891 31.3975 7.82574 30.8199C7.25646 30.2383 6.90164 29.4392 6.90164 28.5569C6.90164 27.6746 7.25646 26.8754 7.82574 26.2939C8.39891 25.7123 9.18654 25.3522 10.0561 25.3522C10.9256 25.3522 11.7132 25.7123 12.2864 26.2899C12.6685 26.6816 12.9531 27.1682 13.1013 27.7142H39.1866V23.1525H6.20369C6.05552 23.6985 5.77088 24.1851 5.38876 24.5728C4.81949 25.1544 4.02796 25.5145 3.15845 25.5145C2.28893 25.5145 1.5013 25.1544 0.928128 24.5768C0.358852 23.9952 0.00402832 23.196 0.00402832 22.3138C0.00402832 21.4315 0.358852 20.6323 0.928128 20.0507C1.49741 19.4692 2.28893 19.1091 3.15845 19.1091C4.02796 19.1091 4.81559 19.4692 5.38876 20.0468C5.77088 20.4385 6.05552 20.9251 6.20369 21.4711H16.6417L11.4442 16.1973C11.0269 16.407 10.5551 16.5217 10.06 16.5217C9.19044 16.5217 8.40281 16.1617 7.82963 15.584C7.26036 15.0025 6.90553 14.2033 6.90553 13.321C6.90553 12.4387 7.26036 11.6396 7.82963 11.058C8.40281 10.4764 9.19044 10.1164 10.06 10.1164C10.9295 10.1164 11.7171 10.4764 12.2903 11.054C12.8595 11.6356 13.2144 12.4348 13.2144 13.3171C13.2144 13.9698 13.0194 14.5752 12.6919 15.0816L18.989 21.4711H30.9321L19.9911 10.3656C19.6246 10.516 19.2269 10.599 18.8097 10.599C17.9401 10.599 17.1525 10.239 16.5793 9.66139C16.0101 9.07981 15.6552 8.28063 15.6552 7.39836C15.6552 6.5161 16.0101 5.71692 16.5793 5.13533C17.1486 4.55375 17.9401 4.19372 18.8097 4.19372C19.6792 4.19372 20.4668 4.55375 21.04 5.13138C21.6093 5.71296 21.9641 6.51214 21.9641 7.39441C21.9641 8.12237 21.7223 8.79495 21.3168 9.33301L33.2755 21.4671H39.1905V18.0686C39.1905 17.582 39.3114 17.1191 39.522 16.7156L29.4661 6.51214C29.0488 6.71787 28.5848 6.83261 28.0896 6.83261C27.2201 6.83261 26.4325 6.47258 25.8593 5.89495C25.2901 5.31337 24.9352 4.51419 24.9352 3.63192C24.9352 2.74966 25.2901 1.95048 25.8593 1.36889C26.4286 0.787312 27.2201 0.427285 28.0896 0.427285C28.9592 0.427285 29.7468 0.787312 30.32 1.36494C30.8892 1.94652 31.2441 2.7457 31.2441 3.62797C31.2441 4.28472 31.0491 4.894 30.7138 5.40041L40.6839 15.5168C41.0894 15.2913 41.5573 15.1607 42.0525 15.1607V15.1686ZM19.8624 6.32619C19.5934 6.05321 19.2152 5.88308 18.8019 5.88308C18.3885 5.88308 18.0103 6.05321 17.7413 6.32619C17.4722 6.59918 17.3046 6.98295 17.3046 7.40232C17.3046 7.82169 17.4722 8.20546 17.7413 8.47844C18.0103 8.75143 18.3885 8.92155 18.8019 8.92155C19.2152 8.92155 19.5934 8.75143 19.8624 8.47844C20.1315 8.20546 20.2991 7.82169 20.2991 7.40232C20.2991 6.98295 20.1315 6.59918 19.8624 6.32619ZM11.1166 12.2449C10.8437 11.9719 10.4694 11.8018 10.0561 11.8018C9.64274 11.8018 9.26452 11.9719 8.99548 12.2449C8.72644 12.5179 8.55878 12.9016 8.55878 13.321C8.55878 13.7404 8.72644 14.1241 8.99548 14.3971C9.26842 14.6701 9.64274 14.8402 10.0561 14.8402C10.4694 14.8402 10.8476 14.6701 11.1166 14.3971C11.3857 14.1241 11.5533 13.7404 11.5533 13.321C11.5533 12.9016 11.3857 12.5179 11.1166 12.2449ZM29.1463 2.55975C28.8734 2.28677 28.4991 2.11664 28.0858 2.11664C27.6724 2.11664 27.2942 2.28677 27.0252 2.55975C26.7561 2.83274 26.5885 3.21651 26.5885 3.63588C26.5885 4.05525 26.7561 4.43902 27.0252 4.71201C27.2981 4.98499 27.6724 5.15512 28.0858 5.15512C28.4991 5.15512 28.8773 4.98499 29.1463 4.71201C29.4154 4.43902 29.583 4.05525 29.583 3.63588C29.583 3.21651 29.4154 2.83274 29.1463 2.55975ZM66.5314 38.428C66.2585 38.155 65.8842 37.9849 65.4709 37.9849C65.0576 37.9849 64.6793 38.155 64.4103 38.428C64.1413 38.701 63.9736 39.0847 63.9736 39.5041C63.9736 39.9235 64.1413 40.3072 64.4103 40.5802C64.6832 40.8532 65.0576 41.0233 65.4709 41.0233C65.8842 41.0233 66.2624 40.8532 66.5314 40.5802C66.8005 40.3072 66.9681 39.9235 66.9681 39.5041C66.9681 39.0847 66.8005 38.701 66.5314 38.428ZM53.2977 47.8124C53.0287 47.5394 52.6504 47.3693 52.2371 47.3693C51.8238 47.3693 51.4456 47.5394 51.1766 47.8124C50.9075 48.0894 50.7399 48.4692 50.7399 48.8885C50.7399 49.3079 50.9075 49.6917 51.1766 49.9647C51.4456 50.2377 51.8238 50.4078 52.2371 50.4078C52.6504 50.4078 53.0287 50.2377 53.2977 49.9647C53.5667 49.6877 53.7344 49.3079 53.7344 48.8885C53.7344 48.4692 53.5667 48.0854 53.2977 47.8124ZM45.1952 2.12456C44.9223 1.85157 44.548 1.68145 44.1347 1.68145C43.7214 1.68145 43.3431 1.85157 43.0741 2.12456C42.8051 2.39754 42.6374 2.78131 42.6374 3.20068C42.6374 3.62005 42.8051 4.00382 43.0741 4.27681C43.347 4.5498 43.7214 4.71992 44.1347 4.71992C44.548 4.71992 44.9262 4.5498 45.1952 4.27681C45.4643 4.00382 45.632 3.62005 45.632 3.20068C45.632 2.78131 45.4643 2.39754 45.1952 2.12456ZM36.0088 42.0836C35.7398 41.8106 35.3616 41.6405 34.9483 41.6405C34.535 41.6405 34.1567 41.8106 33.8877 42.0836C33.6187 42.3606 33.451 42.7404 33.451 43.1598C33.451 43.5791 33.6187 43.9629 33.8877 44.2359C34.1567 44.5089 34.535 44.679 34.9483 44.679C35.3616 44.679 35.7398 44.5089 36.0088 44.2359C36.2779 43.9589 36.4455 43.5791 36.4455 43.1598C36.4455 42.7404 36.2779 42.3566 36.0088 42.0836ZM68.5785 17.7917C68.3094 17.5187 67.9312 17.3486 67.5179 17.3486C67.1046 17.3486 66.7264 17.5187 66.4574 17.7917C66.1883 18.0686 66.0206 18.4484 66.0206 18.8678C66.0206 19.2872 66.1883 19.6709 66.4574 19.9439C66.7264 20.2169 67.1046 20.387 67.5179 20.387C67.9312 20.387 68.3094 20.2169 68.5785 19.9439C68.8475 19.667 69.0152 19.2872 69.0152 18.8678C69.0152 18.4484 68.8475 18.0647 68.5785 17.7917ZM19.4374 35.6546C19.1645 35.3816 18.7902 35.2115 18.3769 35.2115C17.9635 35.2115 17.5853 35.3816 17.3163 35.6546C17.0472 35.9315 16.8796 36.3113 16.8796 36.7307C16.8796 37.1501 17.0472 37.5338 17.3163 37.8068C17.5892 38.0798 17.9635 38.2499 18.3769 38.2499C18.7902 38.2499 19.1684 38.0798 19.4374 37.8068C19.7065 37.5299 19.8741 37.1501 19.8741 36.7307C19.8741 36.3113 19.7065 35.9276 19.4374 35.6546ZM11.1205 27.4847C10.8476 27.2117 10.4733 27.0416 10.06 27.0416C9.64664 27.0416 9.26842 27.2117 8.99938 27.4847C8.73034 27.7617 8.56268 28.1415 8.56268 28.5608C8.56268 28.9802 8.73034 29.364 8.99938 29.637C9.27232 29.91 9.64664 30.0801 10.06 30.0801C10.4733 30.0801 10.8515 29.91 11.1205 29.637C11.3896 29.36 11.5572 28.9802 11.5572 28.5608C11.5572 28.1415 11.3896 27.7577 11.1205 27.4847ZM70.9063 27.7814C70.6333 27.5085 70.259 27.3383 69.8457 27.3383C69.4324 27.3383 69.0542 27.5085 68.7851 27.7814C68.5161 28.0584 68.3484 28.4382 68.3484 28.8576C68.3484 29.2769 68.5161 29.6607 68.7851 29.9337C69.0581 30.2067 69.4324 30.3768 69.8457 30.3768C70.259 30.3768 70.6372 30.2067 70.9063 29.9337C71.1753 29.6568 71.343 29.2769 71.343 28.8576C71.343 28.4382 71.1753 28.0544 70.9063 27.7814ZM54.3934 5.72879C54.1204 5.4558 53.7461 5.28568 53.3328 5.28568C52.9195 5.28568 52.5413 5.4558 52.2722 5.72879C52.0032 6.00177 51.8355 6.38554 51.8355 6.80491C51.8355 7.22428 52.0032 7.60805 52.2722 7.88104C52.5452 8.15402 52.9195 8.32415 53.3328 8.32415C53.7461 8.32415 54.1243 8.15402 54.3934 7.88104C54.6624 7.60805 54.8301 7.22428 54.8301 6.80491C54.8301 6.38554 54.6624 6.00177 54.3934 5.72879ZM4.21902 21.2416C3.94607 20.9686 3.57176 20.7985 3.15845 20.7985C2.74514 20.7985 2.36692 20.9686 2.09788 21.2416C1.82883 21.5186 1.66117 21.8984 1.66117 22.3177C1.66117 22.7371 1.82883 23.1209 2.09788 23.3939C2.37082 23.6668 2.74514 23.837 3.15845 23.837C3.57176 23.837 3.94997 23.6668 4.21902 23.3939C4.48806 23.1169 4.65572 22.7371 4.65572 22.3177C4.65572 21.8984 4.48806 21.5146 4.21902 21.2416ZM45.0978 53.7192C44.8248 53.4462 44.4505 53.2761 44.0372 53.2761C43.6239 53.2761 43.2457 53.4462 42.9766 53.7192C42.7076 53.9962 42.5399 54.376 42.5399 54.7954C42.5399 55.2147 42.7076 55.5985 42.9766 55.8715C43.2496 56.1445 43.6239 56.3146 44.0372 56.3146C44.4505 56.3146 44.8287 56.1445 45.0978 55.8715C45.3668 55.5945 45.5345 55.2147 45.5345 54.7954C45.5345 54.376 45.3668 53.9922 45.0978 53.7192ZM43.6473 18.1359H53.442C54.2881 18.1359 54.9782 18.8362 54.9782 19.6947V29.633C54.9782 30.4915 54.2881 31.1918 53.442 31.1918H43.6473C42.8012 31.1918 42.111 30.4915 42.111 29.633V19.6947C42.111 18.8362 42.8012 18.1359 43.6473 18.1359ZM55.0406 16.8501H42.0525C41.7211 16.8501 41.4209 16.9885 41.2025 17.2101C40.9842 17.4317 40.8477 17.7402 40.8477 18.0726V31.2512C40.8477 31.5874 40.9842 31.8921 41.2025 32.1136C41.4209 32.3352 41.725 32.4737 42.0525 32.4737H55.0406C55.372 32.4737 55.6723 32.3352 55.8906 32.1136C56.109 31.8921 56.2455 31.5835 56.2455 31.2512V18.0765C56.2455 17.7402 56.109 17.4356 55.8906 17.2141C55.6723 16.9925 55.3681 16.854 55.0406 16.854V16.8501Z" fill="url(#paint0_linear_7_262)"/>
</g>
<defs>
<linearGradient id="paint0_linear_7_262" x1="0.00402488" y1="67.4204" x2="78.5946" y2="53.9697" gradientUnits="userSpaceOnUse">
<stop stop-color="#EE2762"/>
<stop offset="1" stop-color="#F05B3A"/>
</linearGradient>
<clipPath id="clip0_7_262">
<rect width="73" height="58" fill="white"/>
</clipPath>
</defs>
</svg>
