<svg width="262" height="296" viewBox="0 0 262 296" fill="none" xmlns="http://www.w3.org/2000/svg">
<g clip-path="url(#clip0_6_38)">
<path d="M81.534 131.706L93.9717 144.107H104.591C106.042 140.938 109.239 138.74 112.968 138.74C118.039 138.74 122.172 142.843 122.172 147.918C122.172 152.992 118.057 157.095 112.968 157.095C109.331 157.095 106.171 154.988 104.682 151.911H93.9717L81.534 164.312C81.8831 165.283 82.0852 166.327 82.0852 167.426C82.0852 172.482 77.9699 176.604 72.8809 176.604C67.7919 176.604 63.6767 172.5 63.6767 167.426C63.6767 162.352 67.7919 158.249 72.8809 158.249C73.9832 158.249 75.0304 158.432 76.0041 158.798L86.8251 148.009L76.0041 137.22C75.0304 137.568 73.9832 137.769 72.8809 137.769C67.8103 137.769 63.6767 133.666 63.6767 128.592C63.6767 123.518 67.7919 119.415 72.8809 119.415C77.9699 119.415 82.0852 123.518 82.0852 128.592C82.0852 129.691 81.9015 130.735 81.534 131.706ZM152.706 244.673C151.696 244.673 150.741 244.838 149.84 245.131L134.922 230.257V204.575L149.583 189.957C150.41 190.195 151.292 190.342 152.21 190.342C157.281 190.342 161.415 186.239 161.415 181.165C161.415 176.091 157.299 171.987 152.21 171.987C147.121 171.987 143.006 176.091 143.006 181.165C143.006 182.447 143.263 183.656 143.741 184.755L131.009 197.449L118.737 185.213C119.343 183.986 119.674 182.612 119.674 181.165C119.674 176.109 115.559 171.987 110.47 171.987C105.381 171.987 101.265 176.091 101.265 181.165C101.265 186.239 105.381 190.342 110.47 190.342C111.186 190.342 111.903 190.25 112.564 190.104L127.078 204.575V230.257L112.233 245.058C111.407 244.82 110.525 244.691 109.624 244.691C104.554 244.691 100.42 248.795 100.42 253.869C100.42 258.943 104.535 263.046 109.624 263.046C114.713 263.046 118.829 258.943 118.829 253.869C118.829 252.586 118.572 251.359 118.094 250.26L130.991 237.401L144.145 250.498C143.741 251.542 143.502 252.678 143.502 253.869C143.502 258.924 147.617 263.046 152.706 263.046C157.795 263.046 161.911 258.943 161.911 253.869C161.911 248.795 157.795 244.691 152.706 244.691V244.673ZM152.706 104.009C151.696 104.009 150.741 104.174 149.84 104.467L134.922 89.5932V63.9114L149.583 49.2936C150.41 49.5318 151.292 49.6783 152.21 49.6783C157.281 49.6783 161.415 45.5751 161.415 40.501C161.415 35.4269 157.299 31.3237 152.21 31.3237C147.121 31.3237 143.006 35.4269 143.006 40.501C143.006 41.7833 143.263 42.9923 143.741 44.0913L131.009 56.7857L118.737 44.5493C119.343 43.322 119.674 41.9481 119.674 40.501C119.674 35.4453 115.559 31.3237 110.47 31.3237C105.381 31.3237 101.265 35.4269 101.265 40.501C101.265 45.5751 105.381 49.6783 110.47 49.6783C111.186 49.6783 111.903 49.5867 112.564 49.4402L127.078 63.9114V89.5932L112.233 104.394C111.407 104.156 110.525 104.028 109.624 104.028C104.554 104.028 100.42 108.131 100.42 113.205C100.42 118.279 104.535 122.382 109.624 122.382C114.713 122.382 118.829 118.279 118.829 113.205C118.829 111.923 118.572 110.695 118.094 109.596L130.991 96.7372L144.145 109.835C143.741 110.879 143.502 112.014 143.502 113.205C143.502 118.261 147.617 122.382 152.706 122.382C157.795 122.382 161.911 118.279 161.911 113.205C161.911 108.131 157.795 104.028 152.706 104.028V104.009ZM149.032 138.74C152.761 138.74 155.958 140.938 157.41 144.107H168.028L180.466 131.706C180.117 130.735 179.915 129.691 179.915 128.592C179.915 123.536 184.03 119.415 189.119 119.415C194.208 119.415 198.323 123.518 198.323 128.592C198.323 133.666 194.208 137.769 189.119 137.769C188.017 137.769 186.97 137.586 185.996 137.22L175.175 148.009L185.996 158.798C186.97 158.45 188.017 158.249 189.119 158.249C194.19 158.249 198.323 162.352 198.323 167.426C198.323 172.5 194.208 176.604 189.119 176.604C184.03 176.604 179.915 172.5 179.915 167.426C179.915 166.327 180.099 165.283 180.466 164.312L168.028 151.911H157.318C155.83 154.97 152.688 157.095 149.032 157.095C143.961 157.095 139.828 152.992 139.828 147.918C139.828 142.843 143.943 138.74 149.032 138.74ZM180.54 238.097C185.61 238.097 189.744 242.2 189.744 247.274C189.744 250.938 187.576 254.107 184.453 255.572V272.04L183.314 273.176L172.75 283.709C173.099 284.679 173.301 285.724 173.301 286.823C173.301 291.878 169.186 296 164.097 296C159.008 296 154.893 291.897 154.893 286.823C154.893 281.749 159.008 277.645 164.097 277.645C165.199 277.645 166.246 277.829 167.22 278.195L176.645 268.798V255.554C173.522 254.088 171.354 250.919 171.354 247.256C171.354 242.2 175.469 238.079 180.558 238.079L180.54 238.097ZM208.097 266.71C203.027 266.71 198.893 262.606 198.893 257.532C198.893 253.869 201.061 250.7 204.184 249.234V232.766L205.323 231.631L215.887 221.098C215.538 220.127 215.336 219.083 215.336 217.984C215.336 212.928 219.451 208.806 224.54 208.806C229.629 208.806 233.744 212.91 233.744 217.984C233.744 223.058 229.629 227.161 224.54 227.161C223.438 227.161 222.39 226.96 221.417 226.612L211.992 236.009V249.253C215.115 250.718 217.283 253.887 217.283 257.551C217.283 262.606 213.168 266.728 208.079 266.728L208.097 266.71ZM172.64 214.54C167.569 214.54 163.435 210.437 163.435 205.363C163.435 200.289 167.551 196.185 172.64 196.185C176.314 196.185 179.492 198.347 180.962 201.461H199.205L214.417 186.294C214.068 185.323 213.866 184.279 213.866 183.18C213.866 178.124 217.981 174.002 223.07 174.002C228.159 174.002 232.275 178.106 232.275 183.18C232.275 188.254 228.159 192.357 223.07 192.357C221.968 192.357 220.921 192.174 219.947 191.807L203.596 208.11L202.457 209.246H180.98C179.511 212.36 176.332 214.522 172.658 214.522L172.64 214.54ZM248.901 177.996C245.778 179.461 243.61 182.63 243.61 186.294C243.61 191.349 247.725 195.471 252.814 195.471C257.903 195.471 262.018 191.368 262.018 186.294C262.018 182.63 259.851 179.461 256.727 177.996V159.733L255.588 158.597L244.969 148.009L255.588 137.421L256.727 136.286V118.023C259.851 116.557 262.018 113.388 262.018 109.725C262.018 104.669 257.903 100.547 252.814 100.547C247.725 100.547 243.61 104.651 243.61 109.725C243.61 113.388 245.778 116.557 248.901 118.023V133.062L237.804 144.126H221.803C220.333 141.012 217.155 138.85 213.48 138.85C208.41 138.85 204.276 142.953 204.276 148.027C204.276 153.102 208.391 157.205 213.48 157.205C217.155 157.205 220.333 155.043 221.803 151.929H237.804L248.901 162.993V178.032V177.996ZM180.54 57.9214C185.61 57.9214 189.744 53.8182 189.744 48.7441C189.744 45.0805 187.576 41.9115 184.453 40.4461V23.9599L183.314 22.8242L172.75 12.2914C173.099 11.3205 173.301 10.2764 173.301 9.1773C173.301 4.12154 169.186 0 164.097 0C159.008 0 154.893 4.10322 154.893 9.1773C154.893 14.2514 159.008 18.3546 164.097 18.3546C165.199 18.3546 166.246 18.1714 167.22 17.8051L176.645 27.2022V40.4461C173.522 41.9115 171.354 45.0805 171.354 48.7441C171.354 53.7999 175.469 57.9214 180.558 57.9214H180.54ZM208.097 29.3087C203.027 29.3087 198.893 33.412 198.893 38.486C198.893 42.1496 201.061 45.3186 204.184 46.7841V63.2519L205.323 64.3876L215.887 74.9205C215.538 75.8913 215.336 76.9354 215.336 78.0345C215.336 83.0903 219.451 87.2118 224.54 87.2118C229.629 87.2118 233.744 83.1086 233.744 78.0345C233.744 72.9604 229.629 68.8572 224.54 68.8572C223.438 68.8572 222.39 69.0404 221.417 69.4068L211.992 60.0096V46.7658C215.115 45.3003 217.283 42.1313 217.283 38.4677C217.283 33.412 213.168 29.2904 208.079 29.2904L208.097 29.3087ZM172.64 81.4783C167.569 81.4783 163.435 85.5815 163.435 90.6556C163.435 95.7297 167.551 99.8329 172.64 99.8329C176.314 99.8329 179.492 97.6714 180.962 94.5573H199.205L214.417 109.725C214.068 110.695 213.866 111.74 213.866 112.839C213.866 117.894 217.981 122.016 223.07 122.016C228.159 122.016 232.275 117.913 232.275 112.839C232.275 107.765 228.159 103.661 223.07 103.661C221.968 103.661 220.921 103.845 219.947 104.211L203.596 87.9079L202.457 86.7722H180.98C179.511 83.6581 176.332 81.4966 172.658 81.4966L172.64 81.4783ZM81.4789 238.115C76.4083 238.115 72.2747 242.218 72.2747 247.293C72.2747 250.956 74.4425 254.125 77.5657 255.591V272.058L78.7048 273.194L89.2685 283.727C88.9195 284.698 88.7174 285.742 88.7174 286.841C88.7174 291.897 92.8327 296.018 97.9217 296.018C103.011 296.018 107.126 291.915 107.126 286.841C107.126 281.767 103.011 277.664 97.9217 277.664C96.8194 277.664 95.7722 277.847 94.7985 278.213L85.3737 268.816V255.572C88.4969 254.107 90.6648 250.938 90.6648 247.274C90.6648 242.218 86.5495 238.097 81.4605 238.097L81.4789 238.115ZM53.9212 266.728C58.9919 266.728 63.1255 262.625 63.1255 257.551C63.1255 253.887 60.9576 250.718 57.8344 249.253V232.785L56.6954 231.649L46.1316 221.116C46.4807 220.145 46.6828 219.101 46.6828 218.002C46.6828 212.946 42.5675 208.825 37.4785 208.825C32.3895 208.825 28.2742 212.928 28.2742 218.002C28.2742 223.076 32.3895 227.179 37.4785 227.179C38.5808 227.179 39.628 226.996 40.6017 226.63L50.0264 236.027V249.271C46.9032 250.736 44.7354 253.905 44.7354 257.569C44.7354 262.625 48.8506 266.746 53.9396 266.746L53.9212 266.728ZM89.3788 214.558C94.4494 214.558 98.583 210.455 98.583 205.381C98.583 200.307 94.4678 196.204 89.3788 196.204C85.7044 196.204 82.5261 198.365 81.0564 201.479H62.8132L47.6013 186.312C47.9504 185.341 48.1525 184.297 48.1525 183.198C48.1525 178.142 44.0372 174.021 38.9482 174.021C33.8593 174.021 29.744 178.124 29.744 183.198C29.744 188.272 33.8593 192.375 38.9482 192.375C40.0505 192.375 41.0977 192.192 42.0714 191.826L58.4223 208.129L59.5614 209.264H81.038C82.5077 212.378 85.6861 214.54 89.3604 214.54L89.3788 214.558ZM13.0991 177.996C16.2223 179.461 18.3902 182.63 18.3902 186.294C18.3902 191.349 14.2749 195.471 9.18595 195.471C4.09697 195.471 -0.0183105 191.368 -0.0183105 186.294C-0.0183105 182.63 2.14956 179.461 5.27276 177.996V159.733L6.41181 158.597L17.0307 148.009L6.41181 137.421L5.27276 136.286V118.023C2.14956 116.557 -0.0183105 113.388 -0.0183105 109.725C-0.0183105 104.669 4.09697 100.547 9.18595 100.547C14.2749 100.547 18.3902 104.651 18.3902 109.725C18.3902 113.388 16.2223 116.557 13.0991 118.023V133.062L24.1957 144.126H40.1975C41.6673 141.012 44.8456 138.85 48.5199 138.85C53.5905 138.85 57.7242 142.953 57.7242 148.027C57.7242 153.102 53.6089 157.205 48.5199 157.205C44.8456 157.205 41.6673 155.043 40.1975 151.929H24.1957L13.0991 162.993V178.032V177.996ZM81.4605 57.9214C76.3899 57.9214 72.2563 53.8182 72.2563 48.7441C72.2563 45.0805 74.4241 41.9115 77.5473 40.4461V23.9599L78.6864 22.8242L89.2502 12.2914C88.9011 11.3205 88.699 10.2764 88.699 9.1773C88.699 4.12154 92.8143 0 97.9033 0C102.992 0 107.108 4.10322 107.108 9.1773C107.108 14.2514 102.992 18.3546 97.9033 18.3546C96.801 18.3546 95.7538 18.1714 94.7801 17.8051L85.3554 27.2022V40.4461C88.4786 41.9115 90.6464 45.0805 90.6464 48.7441C90.6464 53.7999 86.5312 57.9214 81.4422 57.9214H81.4605ZM53.9029 29.3087C58.9735 29.3087 63.1071 33.412 63.1071 38.486C63.1071 42.1496 60.9393 45.3186 57.8161 46.7841V63.2519L56.677 64.3876L46.1132 74.9205C46.4623 75.8913 46.6644 76.9354 46.6644 78.0345C46.6644 83.0903 42.5491 87.2118 37.4601 87.2118C32.3711 87.2118 28.2559 83.1086 28.2559 78.0345C28.2559 72.9604 32.3711 68.8572 37.4601 68.8572C38.5624 68.8572 39.6096 69.0587 40.5833 69.4068L50.0081 60.0096V46.7658C46.8848 45.3003 44.717 42.1313 44.717 38.4677C44.717 33.412 48.8323 29.2904 53.9212 29.2904L53.9029 29.3087ZM89.3604 81.4783C94.431 81.4783 98.5647 85.5815 98.5647 90.6556C98.5647 95.7297 94.4494 99.8329 89.3604 99.8329C85.6861 99.8329 82.5077 97.6714 81.038 94.5573H62.7948L47.583 109.725C47.932 110.695 48.1341 111.74 48.1341 112.839C48.1341 117.894 44.0189 122.016 38.9299 122.016C33.8409 122.016 29.7256 117.913 29.7256 112.839C29.7256 107.765 33.8409 103.661 38.9299 103.661C40.0322 103.661 41.0794 103.845 42.0531 104.211L58.404 87.9079L59.543 86.7722H81.0196C82.4894 83.6581 85.6677 81.4966 89.342 81.4966L89.3604 81.4783Z" fill="black"/>
<path d="M81.534 131.706L93.9717 144.107H104.591C106.042 140.938 109.239 138.74 112.968 138.74C118.039 138.74 122.172 142.843 122.172 147.918C122.172 152.992 118.057 157.095 112.968 157.095C109.331 157.095 106.171 154.988 104.682 151.911H93.9717L81.534 164.312C81.8831 165.283 82.0852 166.327 82.0852 167.426C82.0852 172.482 77.9699 176.604 72.8809 176.604C67.7919 176.604 63.6767 172.5 63.6767 167.426C63.6767 162.352 67.7919 158.249 72.8809 158.249C73.9832 158.249 75.0304 158.432 76.0041 158.798L86.8251 148.009L76.0041 137.22C75.0304 137.568 73.9832 137.769 72.8809 137.769C67.8103 137.769 63.6767 133.666 63.6767 128.592C63.6767 123.518 67.7919 119.415 72.8809 119.415C77.9699 119.415 82.0852 123.518 82.0852 128.592C82.0852 129.691 81.9015 130.735 81.534 131.706ZM152.706 244.673C151.696 244.673 150.741 244.838 149.84 245.131L134.922 230.257V204.575L149.583 189.957C150.41 190.195 151.292 190.342 152.21 190.342C157.281 190.342 161.415 186.239 161.415 181.165C161.415 176.091 157.299 171.987 152.21 171.987C147.121 171.987 143.006 176.091 143.006 181.165C143.006 182.447 143.263 183.656 143.741 184.755L131.009 197.449L118.737 185.213C119.343 183.986 119.674 182.612 119.674 181.165C119.674 176.109 115.559 171.987 110.47 171.987C105.381 171.987 101.265 176.091 101.265 181.165C101.265 186.239 105.381 190.342 110.47 190.342C111.186 190.342 111.903 190.25 112.564 190.104L127.078 204.575V230.257L112.233 245.058C111.407 244.82 110.525 244.691 109.624 244.691C104.554 244.691 100.42 248.795 100.42 253.869C100.42 258.943 104.535 263.046 109.624 263.046C114.713 263.046 118.829 258.943 118.829 253.869C118.829 252.586 118.572 251.359 118.094 250.26L130.991 237.401L144.145 250.498C143.741 251.542 143.502 252.678 143.502 253.869C143.502 258.924 147.617 263.046 152.706 263.046C157.795 263.046 161.911 258.943 161.911 253.869C161.911 248.795 157.795 244.691 152.706 244.691V244.673ZM152.706 104.009C151.696 104.009 150.741 104.174 149.84 104.467L134.922 89.5932V63.9114L149.583 49.2936C150.41 49.5318 151.292 49.6783 152.21 49.6783C157.281 49.6783 161.415 45.5751 161.415 40.501C161.415 35.4269 157.299 31.3237 152.21 31.3237C147.121 31.3237 143.006 35.4269 143.006 40.501C143.006 41.7833 143.263 42.9923 143.741 44.0913L131.009 56.7857L118.737 44.5493C119.343 43.322 119.674 41.9481 119.674 40.501C119.674 35.4453 115.559 31.3237 110.47 31.3237C105.381 31.3237 101.265 35.4269 101.265 40.501C101.265 45.5751 105.381 49.6783 110.47 49.6783C111.186 49.6783 111.903 49.5867 112.564 49.4402L127.078 63.9114V89.5932L112.233 104.394C111.407 104.156 110.525 104.028 109.624 104.028C104.554 104.028 100.42 108.131 100.42 113.205C100.42 118.279 104.535 122.382 109.624 122.382C114.713 122.382 118.829 118.279 118.829 113.205C118.829 111.923 118.572 110.695 118.094 109.596L130.991 96.7372L144.145 109.835C143.741 110.879 143.502 112.014 143.502 113.205C143.502 118.261 147.617 122.382 152.706 122.382C157.795 122.382 161.911 118.279 161.911 113.205C161.911 108.131 157.795 104.028 152.706 104.028V104.009ZM149.032 138.74C152.761 138.74 155.958 140.938 157.41 144.107H168.028L180.466 131.706C180.117 130.735 179.915 129.691 179.915 128.592C179.915 123.536 184.03 119.415 189.119 119.415C194.208 119.415 198.323 123.518 198.323 128.592C198.323 133.666 194.208 137.769 189.119 137.769C188.017 137.769 186.97 137.586 185.996 137.22L175.175 148.009L185.996 158.798C186.97 158.45 188.017 158.249 189.119 158.249C194.19 158.249 198.323 162.352 198.323 167.426C198.323 172.5 194.208 176.604 189.119 176.604C184.03 176.604 179.915 172.5 179.915 167.426C179.915 166.327 180.099 165.283 180.466 164.312L168.028 151.911H157.318C155.83 154.97 152.688 157.095 149.032 157.095C143.961 157.095 139.828 152.992 139.828 147.918C139.828 142.843 143.943 138.74 149.032 138.74ZM180.54 238.097C185.61 238.097 189.744 242.2 189.744 247.274C189.744 250.938 187.576 254.107 184.453 255.572V272.04L183.314 273.176L172.75 283.709C173.099 284.679 173.301 285.724 173.301 286.823C173.301 291.878 169.186 296 164.097 296C159.008 296 154.893 291.897 154.893 286.823C154.893 281.749 159.008 277.645 164.097 277.645C165.199 277.645 166.246 277.829 167.22 278.195L176.645 268.798V255.554C173.522 254.088 171.354 250.919 171.354 247.256C171.354 242.2 175.469 238.079 180.558 238.079L180.54 238.097ZM208.097 266.71C203.027 266.71 198.893 262.606 198.893 257.532C198.893 253.869 201.061 250.7 204.184 249.234V232.766L205.323 231.631L215.887 221.098C215.538 220.127 215.336 219.083 215.336 217.984C215.336 212.928 219.451 208.806 224.54 208.806C229.629 208.806 233.744 212.91 233.744 217.984C233.744 223.058 229.629 227.161 224.54 227.161C223.438 227.161 222.39 226.96 221.417 226.612L211.992 236.009V249.253C215.115 250.718 217.283 253.887 217.283 257.551C217.283 262.606 213.168 266.728 208.079 266.728L208.097 266.71ZM172.64 214.54C167.569 214.54 163.435 210.437 163.435 205.363C163.435 200.289 167.551 196.185 172.64 196.185C176.314 196.185 179.492 198.347 180.962 201.461H199.205L214.417 186.294C214.068 185.323 213.866 184.279 213.866 183.18C213.866 178.124 217.981 174.002 223.07 174.002C228.159 174.002 232.275 178.106 232.275 183.18C232.275 188.254 228.159 192.357 223.07 192.357C221.968 192.357 220.921 192.174 219.947 191.807L203.596 208.11L202.457 209.246H180.98C179.511 212.36 176.332 214.522 172.658 214.522L172.64 214.54ZM248.901 177.996C245.778 179.461 243.61 182.63 243.61 186.294C243.61 191.349 247.725 195.471 252.814 195.471C257.903 195.471 262.018 191.368 262.018 186.294C262.018 182.63 259.851 179.461 256.727 177.996V159.733L255.588 158.597L244.969 148.009L255.588 137.421L256.727 136.286V118.023C259.851 116.557 262.018 113.388 262.018 109.725C262.018 104.669 257.903 100.547 252.814 100.547C247.725 100.547 243.61 104.651 243.61 109.725C243.61 113.388 245.778 116.557 248.901 118.023V133.062L237.804 144.126H221.803C220.333 141.012 217.155 138.85 213.48 138.85C208.41 138.85 204.276 142.953 204.276 148.027C204.276 153.102 208.391 157.205 213.48 157.205C217.155 157.205 220.333 155.043 221.803 151.929H237.804L248.901 162.993V178.032V177.996ZM180.54 57.9214C185.61 57.9214 189.744 53.8182 189.744 48.7441C189.744 45.0805 187.576 41.9115 184.453 40.4461V23.9599L183.314 22.8242L172.75 12.2914C173.099 11.3205 173.301 10.2764 173.301 9.1773C173.301 4.12154 169.186 0 164.097 0C159.008 0 154.893 4.10322 154.893 9.1773C154.893 14.2514 159.008 18.3546 164.097 18.3546C165.199 18.3546 166.246 18.1714 167.22 17.8051L176.645 27.2022V40.4461C173.522 41.9115 171.354 45.0805 171.354 48.7441C171.354 53.7999 175.469 57.9214 180.558 57.9214H180.54ZM208.097 29.3087C203.027 29.3087 198.893 33.412 198.893 38.486C198.893 42.1496 201.061 45.3186 204.184 46.7841V63.2519L205.323 64.3876L215.887 74.9205C215.538 75.8913 215.336 76.9354 215.336 78.0345C215.336 83.0903 219.451 87.2118 224.54 87.2118C229.629 87.2118 233.744 83.1086 233.744 78.0345C233.744 72.9604 229.629 68.8572 224.54 68.8572C223.438 68.8572 222.39 69.0404 221.417 69.4068L211.992 60.0096V46.7658C215.115 45.3003 217.283 42.1313 217.283 38.4677C217.283 33.412 213.168 29.2904 208.079 29.2904L208.097 29.3087ZM172.64 81.4783C167.569 81.4783 163.435 85.5815 163.435 90.6556C163.435 95.7297 167.551 99.8329 172.64 99.8329C176.314 99.8329 179.492 97.6714 180.962 94.5573H199.205L214.417 109.725C214.068 110.695 213.866 111.74 213.866 112.839C213.866 117.894 217.981 122.016 223.07 122.016C228.159 122.016 232.275 117.913 232.275 112.839C232.275 107.765 228.159 103.661 223.07 103.661C221.968 103.661 220.921 103.845 219.947 104.211L203.596 87.9079L202.457 86.7722H180.98C179.511 83.6581 176.332 81.4966 172.658 81.4966L172.64 81.4783ZM81.4789 238.115C76.4083 238.115 72.2747 242.218 72.2747 247.293C72.2747 250.956 74.4425 254.125 77.5657 255.591V272.058L78.7048 273.194L89.2685 283.727C88.9195 284.698 88.7174 285.742 88.7174 286.841C88.7174 291.897 92.8327 296.018 97.9217 296.018C103.011 296.018 107.126 291.915 107.126 286.841C107.126 281.767 103.011 277.664 97.9217 277.664C96.8194 277.664 95.7722 277.847 94.7985 278.213L85.3737 268.816V255.572C88.4969 254.107 90.6648 250.938 90.6648 247.274C90.6648 242.218 86.5495 238.097 81.4605 238.097L81.4789 238.115ZM53.9212 266.728C58.9919 266.728 63.1255 262.625 63.1255 257.551C63.1255 253.887 60.9576 250.718 57.8344 249.253V232.785L56.6954 231.649L46.1316 221.116C46.4807 220.145 46.6828 219.101 46.6828 218.002C46.6828 212.946 42.5675 208.825 37.4785 208.825C32.3895 208.825 28.2742 212.928 28.2742 218.002C28.2742 223.076 32.3895 227.179 37.4785 227.179C38.5808 227.179 39.628 226.996 40.6017 226.63L50.0264 236.027V249.271C46.9032 250.736 44.7354 253.905 44.7354 257.569C44.7354 262.625 48.8506 266.746 53.9396 266.746L53.9212 266.728ZM89.3788 214.558C94.4494 214.558 98.583 210.455 98.583 205.381C98.583 200.307 94.4678 196.204 89.3788 196.204C85.7044 196.204 82.5261 198.365 81.0564 201.479H62.8132L47.6013 186.312C47.9504 185.341 48.1525 184.297 48.1525 183.198C48.1525 178.142 44.0372 174.021 38.9482 174.021C33.8593 174.021 29.744 178.124 29.744 183.198C29.744 188.272 33.8593 192.375 38.9482 192.375C40.0505 192.375 41.0977 192.192 42.0714 191.826L58.4223 208.129L59.5614 209.264H81.038C82.5077 212.378 85.6861 214.54 89.3604 214.54L89.3788 214.558ZM13.0991 177.996C16.2223 179.461 18.3902 182.63 18.3902 186.294C18.3902 191.349 14.2749 195.471 9.18595 195.471C4.09697 195.471 -0.0183105 191.368 -0.0183105 186.294C-0.0183105 182.63 2.14956 179.461 5.27276 177.996V159.733L6.41181 158.597L17.0307 148.009L6.41181 137.421L5.27276 136.286V118.023C2.14956 116.557 -0.0183105 113.388 -0.0183105 109.725C-0.0183105 104.669 4.09697 100.547 9.18595 100.547C14.2749 100.547 18.3902 104.651 18.3902 109.725C18.3902 113.388 16.2223 116.557 13.0991 118.023V133.062L24.1957 144.126H40.1975C41.6673 141.012 44.8456 138.85 48.5199 138.85C53.5905 138.85 57.7242 142.953 57.7242 148.027C57.7242 153.102 53.6089 157.205 48.5199 157.205C44.8456 157.205 41.6673 155.043 40.1975 151.929H24.1957L13.0991 162.993V178.032V177.996ZM81.4605 57.9214C76.3899 57.9214 72.2563 53.8182 72.2563 48.7441C72.2563 45.0805 74.4241 41.9115 77.5473 40.4461V23.9599L78.6864 22.8242L89.2502 12.2914C88.9011 11.3205 88.699 10.2764 88.699 9.1773C88.699 4.12154 92.8143 0 97.9033 0C102.992 0 107.108 4.10322 107.108 9.1773C107.108 14.2514 102.992 18.3546 97.9033 18.3546C96.801 18.3546 95.7538 18.1714 94.7801 17.8051L85.3554 27.2022V40.4461C88.4786 41.9115 90.6464 45.0805 90.6464 48.7441C90.6464 53.7999 86.5312 57.9214 81.4422 57.9214H81.4605ZM53.9029 29.3087C58.9735 29.3087 63.1071 33.412 63.1071 38.486C63.1071 42.1496 60.9393 45.3186 57.8161 46.7841V63.2519L56.677 64.3876L46.1132 74.9205C46.4623 75.8913 46.6644 76.9354 46.6644 78.0345C46.6644 83.0903 42.5491 87.2118 37.4601 87.2118C32.3711 87.2118 28.2559 83.1086 28.2559 78.0345C28.2559 72.9604 32.3711 68.8572 37.4601 68.8572C38.5624 68.8572 39.6096 69.0587 40.5833 69.4068L50.0081 60.0096V46.7658C46.8848 45.3003 44.717 42.1313 44.717 38.4677C44.717 33.412 48.8323 29.2904 53.9212 29.2904L53.9029 29.3087ZM89.3604 81.4783C94.431 81.4783 98.5647 85.5815 98.5647 90.6556C98.5647 95.7297 94.4494 99.8329 89.3604 99.8329C85.6861 99.8329 82.5077 97.6714 81.038 94.5573H62.7948L47.583 109.725C47.932 110.695 48.1341 111.74 48.1341 112.839C48.1341 117.894 44.0189 122.016 38.9299 122.016C33.8409 122.016 29.7256 117.913 29.7256 112.839C29.7256 107.765 33.8409 103.661 38.9299 103.661C40.0322 103.661 41.0794 103.845 42.0531 104.211L58.404 87.9079L59.543 86.7722H81.0196C82.4894 83.6581 85.6677 81.4966 89.342 81.4966L89.3604 81.4783Z" fill="url(#paint0_linear_6_38)"/>
</g>
<defs>
<linearGradient id="paint0_linear_6_38" x1="-0.0183229" y1="344.121" x2="286.188" y2="309.674" gradientUnits="userSpaceOnUse">
<stop stop-color="#EE2762"/>
<stop offset="1" stop-color="#F05B3A"/>
</linearGradient>
<clipPath id="clip0_6_38">
<rect width="262" height="296" fill="white"/>
</clipPath>
</defs>
</svg>
