<svg width="53" height="35" viewBox="0 0 53 35" fill="none" xmlns="http://www.w3.org/2000/svg">
<path fill-rule="evenodd" clip-rule="evenodd" d="M8.24053 0.136226C8.07355 0.208953 7.81003 0.402927 7.65485 0.567389C7.3294 0.912118 7.24706 1.06578 3.13719 8.99955C0.252915 14.5672 0.0509182 14.9911 0.0112992 15.5602C-0.0217165 16.033 0.0137004 16.2562 0.169775 16.5606C0.280328 16.7762 0.476421 17.0497 0.605583 17.1684C0.734745 17.2872 1.99585 17.9736 3.40812 18.694C5.18447 19.6 6.0789 20.0037 6.31021 20.0037C6.83206 20.0037 7.29628 19.8349 7.72769 19.4882L8.12408 19.1697L8.53487 19.3876C8.81681 19.5372 9.02391 19.7532 9.19509 20.0763C9.33226 20.3353 9.67932 20.8512 9.96636 21.2228L10.4882 21.8986L10.3415 22.3142C10.012 23.2481 10.217 24.0351 10.9913 24.8094C11.5402 25.3582 12.0468 25.6058 12.621 25.6058C12.8587 25.6058 12.8752 25.6408 12.9151 26.231C12.9383 26.5749 13.0384 27.0244 13.1376 27.23C13.5364 28.0568 14.4258 28.62 15.3458 28.6283C15.8869 28.6331 15.8976 28.6388 15.8976 28.9234C15.8976 29.2814 16.1272 29.8461 16.439 30.2547C16.5682 30.4241 16.9149 30.6939 17.2095 30.8542C17.6021 31.0678 17.9045 31.1522 18.342 31.1701L18.9387 31.1945L19.0673 31.6354C19.2248 32.1752 19.8808 32.9414 20.437 33.2348C20.7452 33.3975 21.0275 33.4534 21.5503 33.4553C22.1115 33.4574 22.335 33.4097 22.6751 33.2152L23.0997 32.9724L23.3254 33.1723C24.4138 34.136 25.0047 34.6115 25.3013 34.762C25.4935 34.8597 25.9454 34.9605 26.3056 34.9863C26.8329 35.024 27.0615 34.9897 27.4796 34.8098C28.2864 34.4628 29.1039 33.4571 29.1039 32.8117C29.1039 32.6998 29.1282 32.6084 29.1579 32.6084C29.1876 32.6084 29.4014 32.7089 29.6332 32.8318C29.9677 33.0092 30.219 33.0551 30.8547 33.0551C31.4826 33.0551 31.7429 33.0086 32.0621 32.839C32.834 32.4292 33.506 31.4731 33.506 30.7848C33.506 30.5376 33.5362 30.4995 33.6811 30.5635C33.7773 30.6061 34.1996 30.6604 34.6194 30.6843C35.2305 30.7191 35.4723 30.6882 35.8322 30.5289C36.7474 30.1242 37.3681 29.3154 37.5616 28.2758C37.6071 28.0311 37.6772 27.9118 37.7575 27.9427C37.8263 27.969 38.0844 28.0209 38.3312 28.0579C38.6377 28.1038 38.9824 28.0686 39.4194 27.9468C39.9508 27.7987 40.1536 27.6743 40.6168 27.2123C40.9971 26.833 41.2278 26.4994 41.3422 26.1632C41.6822 25.1634 41.4846 24.1456 40.7996 23.3674L40.4045 22.9186L40.7321 22.6807C42.2183 21.6014 42.6665 21.224 43.3135 20.5076C43.7207 20.0566 44.1325 19.6456 44.2285 19.5942C44.3666 19.5203 44.4964 19.5938 44.8473 19.9448C45.2816 20.379 45.7783 20.6022 46.3133 20.6033C46.6353 20.6041 51.8213 18.8875 52.1522 18.6707C52.2895 18.5807 52.526 18.3444 52.6779 18.1453C52.8854 17.8732 52.9643 17.6402 52.9956 17.2072C53.0344 16.6713 52.8621 16.1003 50.5145 8.98895L47.9917 1.34668L47.561 0.931725C46.9997 0.390923 46.377 0.236664 45.5961 0.445042C44.3794 0.769664 40.5541 2.10887 40.2412 2.31965C40.0475 2.45019 39.7928 2.77171 39.6436 3.07403C39.4386 3.48958 39.3935 3.70276 39.43 4.08291L39.4764 4.56499L38.5349 4.89591C37.6606 5.20323 37.5315 5.22254 36.7253 5.16761C36.2478 5.135 34.7991 4.90662 33.506 4.65992C29.5685 3.90894 27.4576 3.68056 26.3526 3.88613C26.0224 3.94746 25.4822 4.13083 25.152 4.29349C24.8219 4.45615 24.0856 4.96724 23.5159 5.42931L22.48 6.26943L20.7646 6.33275C18.3607 6.42168 17.9784 6.35566 16.5784 5.61028L15.4308 4.99925L15.4753 4.46315C15.5308 3.7935 15.2655 3.14005 14.7811 2.75361C14.5944 2.60465 13.3491 1.9233 12.0137 1.23944C9.80858 0.110316 9.53795 -0.00342565 9.06493 7.56621e-05C8.77849 0.00227649 8.40751 0.0634987 8.24053 0.136226ZM11.6284 2.39818C12.9035 3.05902 14.0254 3.69426 14.1217 3.8098C14.2181 3.92535 14.2968 4.12622 14.2968 4.25627C14.2968 4.38642 12.6728 7.63314 10.6878 11.4715C8.70285 15.3097 7.03396 18.5041 6.97913 18.5702C6.9243 18.6363 6.74742 18.7193 6.58614 18.7547C6.34153 18.8084 5.89781 18.6168 3.91677 17.6013C2.60994 16.9314 1.46189 16.2927 1.36565 16.1817C1.2694 16.0708 1.19056 15.8536 1.19056 15.6992C1.19056 15.5298 1.97784 13.8977 3.17581 11.5837C4.26763 9.47463 5.64669 6.80373 6.24028 5.64829C7.90927 2.39978 8.30666 1.6649 8.52607 1.42171C8.64793 1.28656 8.84512 1.19662 9.01961 1.19662C9.19549 1.19662 10.225 1.6708 11.6284 2.39818ZM46.7391 1.77184C46.9262 1.97922 51.8148 16.6605 51.8148 17.0149C51.8148 17.5481 51.6222 17.6503 48.9246 18.5494C46.1951 19.4591 45.9389 19.4998 45.667 19.066C45.5016 18.8021 40.6094 4.11012 40.6094 3.87733C40.6094 3.78459 40.7107 3.59252 40.8345 3.45047C41.0086 3.25059 41.5922 3.01471 43.4107 2.40898C44.7039 1.97822 45.9463 1.61928 46.1716 1.61128C46.449 1.60148 46.6322 1.6533 46.7391 1.77184ZM29.9043 5.26315C30.4821 5.34708 32.0128 5.61738 33.3059 5.86387C34.7825 6.14538 36.0664 6.33095 36.7576 6.36296C37.8186 6.41198 37.8948 6.40128 38.8817 6.06335L39.9054 5.71282L41.9588 11.9328C43.0881 15.3539 44.0119 18.2009 44.0116 18.2595C44.0112 18.318 43.8534 18.4412 43.6608 18.533C43.4681 18.6249 43.1417 18.8898 42.9354 19.1215C42.0564 20.1094 41.1971 20.8938 40.4052 21.4311C39.5842 21.9881 39.2825 22.1047 39.1629 21.9111C39.1312 21.8598 37.3164 20.2745 35.1301 18.3882C32.9437 16.5018 30.1674 14.1017 28.9605 13.0544C27.7536 12.0072 26.6512 11.0727 26.5109 10.9779C26.3705 10.8831 26.0634 10.7766 25.8282 10.7414C25.4837 10.6897 25.2958 10.7287 24.8581 10.9429C24.2425 11.244 23.7594 11.7441 23.4852 12.3637C23.3823 12.5964 23.2535 13.1389 23.199 13.5692C23.1446 13.9995 23.0265 14.5766 22.9366 14.8517C22.5195 16.1276 21.7441 17.2232 20.9835 17.6112C20.5913 17.8113 19.9483 17.8624 19.7115 17.7124C19.5996 17.6415 19.5685 16.9948 19.5473 14.2904C19.5322 12.3607 19.5611 10.8492 19.6161 10.703C19.6683 10.5638 19.8998 10.254 20.1304 10.0144C20.6072 9.51905 22.8869 7.5187 24.2951 6.36016C25.293 5.53905 25.7617 5.25545 26.376 5.10079C26.8417 4.98364 28.5062 5.06017 29.9043 5.26315ZM16.0406 6.70349C16.6688 7.03621 17.3325 7.35493 17.5156 7.41176C17.6988 7.46858 18.5409 7.54521 19.3872 7.58202L20.9257 7.64904L20.0058 8.44934C19.0258 9.30176 18.5604 9.90019 18.3926 10.5232C18.2707 10.9756 18.2727 10.8583 18.3193 14.9247L18.3555 18.0989L18.6833 18.437C19.0659 18.8316 19.5594 19.0033 20.3113 19.0032C21.6269 19.003 23.0785 17.7729 23.7735 16.0694C24.1419 15.1661 24.2926 14.6111 24.4007 13.7594C24.4536 13.342 24.5667 12.8654 24.6522 12.7002C24.7375 12.5351 24.9856 12.2821 25.2034 12.1379C25.5929 11.8801 25.604 11.8788 25.876 12.056C26.028 12.1551 26.7828 12.7815 27.5532 13.4478C28.3235 14.1143 29.7867 15.377 30.8047 16.254C32.7082 17.8938 37.1699 21.7577 38.9783 23.3324C39.7651 24.0176 40.0368 24.3211 40.1658 24.6589C40.3573 25.1601 40.3102 25.5894 40.0097 26.0819C39.9004 26.2612 39.6642 26.4973 39.4848 26.6067C39.0567 26.8677 38.2659 26.873 37.8581 26.6175C37.693 26.5141 36.836 25.8053 35.9537 25.0423C31.4418 21.1409 30.6748 20.5002 30.4485 20.4434C30.2972 20.4054 30.1073 20.4444 29.9536 20.5452C29.7715 20.6644 29.7042 20.7973 29.7042 21.0373C29.7042 21.218 29.7605 21.4361 29.8293 21.5218C29.8981 21.6076 31.2991 22.8392 32.9425 24.259C34.586 25.6787 36.0153 26.9789 36.1187 27.1484C36.2364 27.3414 36.3068 27.6439 36.3069 27.9585C36.3073 28.3261 36.2421 28.5565 36.0633 28.8195C35.9292 29.017 35.6634 29.2524 35.4729 29.3429C35.0496 29.5438 34.4482 29.5539 34.0885 29.3663C33.867 29.2506 31.3209 27.0894 28.1958 24.3642C27.793 24.013 27.4638 23.8051 27.3102 23.8051C26.9968 23.8051 26.6027 24.1739 26.6027 24.4673C26.6027 24.5921 26.704 24.8046 26.8278 24.9395C26.9517 25.0744 28.1109 26.0925 29.404 27.202C30.6972 28.3115 31.879 29.3808 32.0303 29.5783C32.5658 30.2767 32.3178 31.2918 31.5067 31.7229C31.0694 31.9552 30.6428 31.9586 30.2345 31.7331C30.0603 31.6368 28.8525 30.6352 27.5507 29.5072C26.2488 28.3793 25.0523 27.3917 24.8916 27.3127C24.6255 27.1818 24.5751 27.1871 24.3255 27.3726C23.9364 27.6618 23.9153 28.0549 24.2689 28.4291C24.4245 28.5939 25.2534 29.3311 26.111 30.0674C26.9686 30.8036 27.7227 31.5212 27.7868 31.6619C27.9479 32.0152 27.9326 32.6617 27.7553 33.0047C27.4559 33.5834 26.8152 33.8898 26.1608 33.767C25.961 33.7295 25.5085 33.4318 24.993 32.999C24.5302 32.6102 24.0938 32.2365 24.0233 32.1684C23.9195 32.0683 23.9478 31.9508 24.1723 31.5513C24.3904 31.1632 24.4493 30.9298 24.4482 30.4576C24.4464 29.6668 24.1157 29.0036 23.4672 28.4902C23.2009 28.2793 22.945 28.1067 22.8984 28.1067C22.8519 28.1067 22.7005 28.0636 22.562 28.0109L22.31 27.9151L22.5805 27.4357C22.8043 27.039 22.8504 26.8355 22.8479 26.256C22.8445 25.4574 22.6348 24.959 22.0844 24.4415C21.6807 24.062 21.2686 23.8458 20.7714 23.7525L20.3997 23.6828V23.1304C20.3997 22.8264 20.3468 22.4012 20.2821 22.1852C20.1128 21.6202 19.4999 20.9719 18.8848 20.7073C18.4772 20.5321 18.2264 20.4916 17.7401 20.5225C17.2614 20.553 17.0011 20.6343 16.616 20.8737L16.1148 21.1852L15.8392 20.7494C15.5379 20.2727 14.939 19.8001 14.407 19.6191C13.9308 19.4572 13.1578 19.4752 12.7179 19.6585C12.5133 19.7437 12.1121 20.0643 11.8263 20.3709L11.3067 20.9283L11.0572 20.6411C10.9199 20.4831 10.7035 20.1815 10.5762 19.9709C9.90613 18.8619 9.72454 18.6428 9.27423 18.3997C9.0154 18.2601 8.77439 18.1165 8.73847 18.0806C8.70255 18.0447 9.15717 17.0785 9.74875 15.9334C10.3402 14.7882 11.4528 12.6359 12.2209 11.1504C12.9892 9.6648 13.891 7.92045 14.225 7.2739C14.559 6.62736 14.8471 6.09846 14.8654 6.09846C14.8836 6.09846 15.4125 6.37067 16.0406 6.70349ZM14.6183 21.1903C15.1387 21.7482 15.137 22.1518 14.6113 22.8456C14.3991 23.1257 14.0029 23.5913 13.7308 23.8801C13.3042 24.3331 13.1843 24.4053 12.8594 24.4053C12.6523 24.4053 12.3845 24.3548 12.2643 24.2931C11.5957 23.9497 11.2482 23.2575 11.4842 22.7396C11.6517 22.3722 12.9792 20.8248 13.1768 20.7668C13.27 20.7394 13.5473 20.7322 13.7929 20.7506C14.1648 20.7786 14.3026 20.8521 14.6183 21.1903ZM18.5082 21.8593C18.673 21.9444 18.8957 22.1583 19.0031 22.3345C19.2727 22.7765 19.2532 23.2974 18.9503 23.7438C18.4853 24.4288 16.3045 27.0903 16.0782 27.2488C15.9501 27.3385 15.6486 27.4065 15.3785 27.4065C14.9926 27.4065 14.8394 27.3497 14.5575 27.1021C14.1802 26.7709 14.043 26.3682 14.1389 25.8731C14.1778 25.6719 14.7124 24.9152 15.6001 23.8051C16.37 22.8422 17.1234 21.9759 17.2742 21.8799C17.614 21.6636 18.1138 21.6553 18.5082 21.8593ZM21.1001 25.1882C21.2376 25.2875 21.4336 25.5365 21.5356 25.7416C21.8188 26.3114 21.6979 26.6739 20.8881 27.6818C19.541 29.3584 19.1149 29.7946 18.7038 29.9178C18.3665 30.0188 18.2599 30.0065 17.8801 29.8227C17.6402 29.7065 17.3662 29.4798 17.271 29.3189C17.0804 28.996 17.0482 28.5445 17.1908 28.1882C17.2953 27.9274 19.4279 25.3244 19.6839 25.1454C20.0803 24.8682 20.6816 24.8864 21.1001 25.1882ZM22.5132 29.3135C22.8116 29.4657 22.9701 29.6381 23.117 29.9702C23.2783 30.3348 23.2961 30.4781 23.2107 30.7232C23.1527 30.8898 22.8774 31.2887 22.5991 31.6099C22.042 32.253 21.71 32.393 21.1669 32.2139C20.6503 32.0433 20.2854 31.5995 20.2256 31.0687C20.1771 30.639 20.2026 30.5796 20.6952 29.9725C20.9816 29.6195 21.3137 29.2834 21.4331 29.2256C21.7684 29.0636 22.0715 29.0882 22.5132 29.3135Z" fill="black"/>
<path fill-rule="evenodd" clip-rule="evenodd" d="M8.24053 0.136226C8.07355 0.208953 7.81003 0.402927 7.65485 0.567389C7.3294 0.912118 7.24706 1.06578 3.13719 8.99955C0.252915 14.5672 0.0509182 14.9911 0.0112992 15.5602C-0.0217165 16.033 0.0137004 16.2562 0.169775 16.5606C0.280328 16.7762 0.476421 17.0497 0.605583 17.1684C0.734745 17.2872 1.99585 17.9736 3.40812 18.694C5.18447 19.6 6.0789 20.0037 6.31021 20.0037C6.83206 20.0037 7.29628 19.8349 7.72769 19.4882L8.12408 19.1697L8.53487 19.3876C8.81681 19.5372 9.02391 19.7532 9.19509 20.0763C9.33226 20.3353 9.67932 20.8512 9.96636 21.2228L10.4882 21.8986L10.3415 22.3142C10.012 23.2481 10.217 24.0351 10.9913 24.8094C11.5402 25.3582 12.0468 25.6058 12.621 25.6058C12.8587 25.6058 12.8752 25.6408 12.9151 26.231C12.9383 26.5749 13.0384 27.0244 13.1376 27.23C13.5364 28.0568 14.4258 28.62 15.3458 28.6283C15.8869 28.6331 15.8976 28.6388 15.8976 28.9234C15.8976 29.2814 16.1272 29.8461 16.439 30.2547C16.5682 30.4241 16.9149 30.6939 17.2095 30.8542C17.6021 31.0678 17.9045 31.1522 18.342 31.1701L18.9387 31.1945L19.0673 31.6354C19.2248 32.1752 19.8808 32.9414 20.437 33.2348C20.7452 33.3975 21.0275 33.4534 21.5503 33.4553C22.1115 33.4574 22.335 33.4097 22.6751 33.2152L23.0997 32.9724L23.3254 33.1723C24.4138 34.136 25.0047 34.6115 25.3013 34.762C25.4935 34.8597 25.9454 34.9605 26.3056 34.9863C26.8329 35.024 27.0615 34.9897 27.4796 34.8098C28.2864 34.4628 29.1039 33.4571 29.1039 32.8117C29.1039 32.6998 29.1282 32.6084 29.1579 32.6084C29.1876 32.6084 29.4014 32.7089 29.6332 32.8318C29.9677 33.0092 30.219 33.0551 30.8547 33.0551C31.4826 33.0551 31.7429 33.0086 32.0621 32.839C32.834 32.4292 33.506 31.4731 33.506 30.7848C33.506 30.5376 33.5362 30.4995 33.6811 30.5635C33.7773 30.6061 34.1996 30.6604 34.6194 30.6843C35.2305 30.7191 35.4723 30.6882 35.8322 30.5289C36.7474 30.1242 37.3681 29.3154 37.5616 28.2758C37.6071 28.0311 37.6772 27.9118 37.7575 27.9427C37.8263 27.969 38.0844 28.0209 38.3312 28.0579C38.6377 28.1038 38.9824 28.0686 39.4194 27.9468C39.9508 27.7987 40.1536 27.6743 40.6168 27.2123C40.9971 26.833 41.2278 26.4994 41.3422 26.1632C41.6822 25.1634 41.4846 24.1456 40.7996 23.3674L40.4045 22.9186L40.7321 22.6807C42.2183 21.6014 42.6665 21.224 43.3135 20.5076C43.7207 20.0566 44.1325 19.6456 44.2285 19.5942C44.3666 19.5203 44.4964 19.5938 44.8473 19.9448C45.2816 20.379 45.7783 20.6022 46.3133 20.6033C46.6353 20.6041 51.8213 18.8875 52.1522 18.6707C52.2895 18.5807 52.526 18.3444 52.6779 18.1453C52.8854 17.8732 52.9643 17.6402 52.9956 17.2072C53.0344 16.6713 52.8621 16.1003 50.5145 8.98895L47.9917 1.34668L47.561 0.931725C46.9997 0.390923 46.377 0.236664 45.5961 0.445042C44.3794 0.769664 40.5541 2.10887 40.2412 2.31965C40.0475 2.45019 39.7928 2.77171 39.6436 3.07403C39.4386 3.48958 39.3935 3.70276 39.43 4.08291L39.4764 4.56499L38.5349 4.89591C37.6606 5.20323 37.5315 5.22254 36.7253 5.16761C36.2478 5.135 34.7991 4.90662 33.506 4.65992C29.5685 3.90894 27.4576 3.68056 26.3526 3.88613C26.0224 3.94746 25.4822 4.13083 25.152 4.29349C24.8219 4.45615 24.0856 4.96724 23.5159 5.42931L22.48 6.26943L20.7646 6.33275C18.3607 6.42168 17.9784 6.35566 16.5784 5.61028L15.4308 4.99925L15.4753 4.46315C15.5308 3.7935 15.2655 3.14005 14.7811 2.75361C14.5944 2.60465 13.3491 1.9233 12.0137 1.23944C9.80858 0.110316 9.53795 -0.00342565 9.06493 7.56621e-05C8.77849 0.00227649 8.40751 0.0634987 8.24053 0.136226ZM11.6284 2.39818C12.9035 3.05902 14.0254 3.69426 14.1217 3.8098C14.2181 3.92535 14.2968 4.12622 14.2968 4.25627C14.2968 4.38642 12.6728 7.63314 10.6878 11.4715C8.70285 15.3097 7.03396 18.5041 6.97913 18.5702C6.9243 18.6363 6.74742 18.7193 6.58614 18.7547C6.34153 18.8084 5.89781 18.6168 3.91677 17.6013C2.60994 16.9314 1.46189 16.2927 1.36565 16.1817C1.2694 16.0708 1.19056 15.8536 1.19056 15.6992C1.19056 15.5298 1.97784 13.8977 3.17581 11.5837C4.26763 9.47463 5.64669 6.80373 6.24028 5.64829C7.90927 2.39978 8.30666 1.6649 8.52607 1.42171C8.64793 1.28656 8.84512 1.19662 9.01961 1.19662C9.19549 1.19662 10.225 1.6708 11.6284 2.39818ZM46.7391 1.77184C46.9262 1.97922 51.8148 16.6605 51.8148 17.0149C51.8148 17.5481 51.6222 17.6503 48.9246 18.5494C46.1951 19.4591 45.9389 19.4998 45.667 19.066C45.5016 18.8021 40.6094 4.11012 40.6094 3.87733C40.6094 3.78459 40.7107 3.59252 40.8345 3.45047C41.0086 3.25059 41.5922 3.01471 43.4107 2.40898C44.7039 1.97822 45.9463 1.61928 46.1716 1.61128C46.449 1.60148 46.6322 1.6533 46.7391 1.77184ZM29.9043 5.26315C30.4821 5.34708 32.0128 5.61738 33.3059 5.86387C34.7825 6.14538 36.0664 6.33095 36.7576 6.36296C37.8186 6.41198 37.8948 6.40128 38.8817 6.06335L39.9054 5.71282L41.9588 11.9328C43.0881 15.3539 44.0119 18.2009 44.0116 18.2595C44.0112 18.318 43.8534 18.4412 43.6608 18.533C43.4681 18.6249 43.1417 18.8898 42.9354 19.1215C42.0564 20.1094 41.1971 20.8938 40.4052 21.4311C39.5842 21.9881 39.2825 22.1047 39.1629 21.9111C39.1312 21.8598 37.3164 20.2745 35.1301 18.3882C32.9437 16.5018 30.1674 14.1017 28.9605 13.0544C27.7536 12.0072 26.6512 11.0727 26.5109 10.9779C26.3705 10.8831 26.0634 10.7766 25.8282 10.7414C25.4837 10.6897 25.2958 10.7287 24.8581 10.9429C24.2425 11.244 23.7594 11.7441 23.4852 12.3637C23.3823 12.5964 23.2535 13.1389 23.199 13.5692C23.1446 13.9995 23.0265 14.5766 22.9366 14.8517C22.5195 16.1276 21.7441 17.2232 20.9835 17.6112C20.5913 17.8113 19.9483 17.8624 19.7115 17.7124C19.5996 17.6415 19.5685 16.9948 19.5473 14.2904C19.5322 12.3607 19.5611 10.8492 19.6161 10.703C19.6683 10.5638 19.8998 10.254 20.1304 10.0144C20.6072 9.51905 22.8869 7.5187 24.2951 6.36016C25.293 5.53905 25.7617 5.25545 26.376 5.10079C26.8417 4.98364 28.5062 5.06017 29.9043 5.26315ZM16.0406 6.70349C16.6688 7.03621 17.3325 7.35493 17.5156 7.41176C17.6988 7.46858 18.5409 7.54521 19.3872 7.58202L20.9257 7.64904L20.0058 8.44934C19.0258 9.30176 18.5604 9.90019 18.3926 10.5232C18.2707 10.9756 18.2727 10.8583 18.3193 14.9247L18.3555 18.0989L18.6833 18.437C19.0659 18.8316 19.5594 19.0033 20.3113 19.0032C21.6269 19.003 23.0785 17.7729 23.7735 16.0694C24.1419 15.1661 24.2926 14.6111 24.4007 13.7594C24.4536 13.342 24.5667 12.8654 24.6522 12.7002C24.7375 12.5351 24.9856 12.2821 25.2034 12.1379C25.5929 11.8801 25.604 11.8788 25.876 12.056C26.028 12.1551 26.7828 12.7815 27.5532 13.4478C28.3235 14.1143 29.7867 15.377 30.8047 16.254C32.7082 17.8938 37.1699 21.7577 38.9783 23.3324C39.7651 24.0176 40.0368 24.3211 40.1658 24.6589C40.3573 25.1601 40.3102 25.5894 40.0097 26.0819C39.9004 26.2612 39.6642 26.4973 39.4848 26.6067C39.0567 26.8677 38.2659 26.873 37.8581 26.6175C37.693 26.5141 36.836 25.8053 35.9537 25.0423C31.4418 21.1409 30.6748 20.5002 30.4485 20.4434C30.2972 20.4054 30.1073 20.4444 29.9536 20.5452C29.7715 20.6644 29.7042 20.7973 29.7042 21.0373C29.7042 21.218 29.7605 21.4361 29.8293 21.5218C29.8981 21.6076 31.2991 22.8392 32.9425 24.259C34.586 25.6787 36.0153 26.9789 36.1187 27.1484C36.2364 27.3414 36.3068 27.6439 36.3069 27.9585C36.3073 28.3261 36.2421 28.5565 36.0633 28.8195C35.9292 29.017 35.6634 29.2524 35.4729 29.3429C35.0496 29.5438 34.4482 29.5539 34.0885 29.3663C33.867 29.2506 31.3209 27.0894 28.1958 24.3642C27.793 24.013 27.4638 23.8051 27.3102 23.8051C26.9968 23.8051 26.6027 24.1739 26.6027 24.4673C26.6027 24.5921 26.704 24.8046 26.8278 24.9395C26.9517 25.0744 28.1109 26.0925 29.404 27.202C30.6972 28.3115 31.879 29.3808 32.0303 29.5783C32.5658 30.2767 32.3178 31.2918 31.5067 31.7229C31.0694 31.9552 30.6428 31.9586 30.2345 31.7331C30.0603 31.6368 28.8525 30.6352 27.5507 29.5072C26.2488 28.3793 25.0523 27.3917 24.8916 27.3127C24.6255 27.1818 24.5751 27.1871 24.3255 27.3726C23.9364 27.6618 23.9153 28.0549 24.2689 28.4291C24.4245 28.5939 25.2534 29.3311 26.111 30.0674C26.9686 30.8036 27.7227 31.5212 27.7868 31.6619C27.9479 32.0152 27.9326 32.6617 27.7553 33.0047C27.4559 33.5834 26.8152 33.8898 26.1608 33.767C25.961 33.7295 25.5085 33.4318 24.993 32.999C24.5302 32.6102 24.0938 32.2365 24.0233 32.1684C23.9195 32.0683 23.9478 31.9508 24.1723 31.5513C24.3904 31.1632 24.4493 30.9298 24.4482 30.4576C24.4464 29.6668 24.1157 29.0036 23.4672 28.4902C23.2009 28.2793 22.945 28.1067 22.8984 28.1067C22.8519 28.1067 22.7005 28.0636 22.562 28.0109L22.31 27.9151L22.5805 27.4357C22.8043 27.039 22.8504 26.8355 22.8479 26.256C22.8445 25.4574 22.6348 24.959 22.0844 24.4415C21.6807 24.062 21.2686 23.8458 20.7714 23.7525L20.3997 23.6828V23.1304C20.3997 22.8264 20.3468 22.4012 20.2821 22.1852C20.1128 21.6202 19.4999 20.9719 18.8848 20.7073C18.4772 20.5321 18.2264 20.4916 17.7401 20.5225C17.2614 20.553 17.0011 20.6343 16.616 20.8737L16.1148 21.1852L15.8392 20.7494C15.5379 20.2727 14.939 19.8001 14.407 19.6191C13.9308 19.4572 13.1578 19.4752 12.7179 19.6585C12.5133 19.7437 12.1121 20.0643 11.8263 20.3709L11.3067 20.9283L11.0572 20.6411C10.9199 20.4831 10.7035 20.1815 10.5762 19.9709C9.90613 18.8619 9.72454 18.6428 9.27423 18.3997C9.0154 18.2601 8.77439 18.1165 8.73847 18.0806C8.70255 18.0447 9.15717 17.0785 9.74875 15.9334C10.3402 14.7882 11.4528 12.6359 12.2209 11.1504C12.9892 9.6648 13.891 7.92045 14.225 7.2739C14.559 6.62736 14.8471 6.09846 14.8654 6.09846C14.8836 6.09846 15.4125 6.37067 16.0406 6.70349ZM14.6183 21.1903C15.1387 21.7482 15.137 22.1518 14.6113 22.8456C14.3991 23.1257 14.0029 23.5913 13.7308 23.8801C13.3042 24.3331 13.1843 24.4053 12.8594 24.4053C12.6523 24.4053 12.3845 24.3548 12.2643 24.2931C11.5957 23.9497 11.2482 23.2575 11.4842 22.7396C11.6517 22.3722 12.9792 20.8248 13.1768 20.7668C13.27 20.7394 13.5473 20.7322 13.7929 20.7506C14.1648 20.7786 14.3026 20.8521 14.6183 21.1903ZM18.5082 21.8593C18.673 21.9444 18.8957 22.1583 19.0031 22.3345C19.2727 22.7765 19.2532 23.2974 18.9503 23.7438C18.4853 24.4288 16.3045 27.0903 16.0782 27.2488C15.9501 27.3385 15.6486 27.4065 15.3785 27.4065C14.9926 27.4065 14.8394 27.3497 14.5575 27.1021C14.1802 26.7709 14.043 26.3682 14.1389 25.8731C14.1778 25.6719 14.7124 24.9152 15.6001 23.8051C16.37 22.8422 17.1234 21.9759 17.2742 21.8799C17.614 21.6636 18.1138 21.6553 18.5082 21.8593ZM21.1001 25.1882C21.2376 25.2875 21.4336 25.5365 21.5356 25.7416C21.8188 26.3114 21.6979 26.6739 20.8881 27.6818C19.541 29.3584 19.1149 29.7946 18.7038 29.9178C18.3665 30.0188 18.2599 30.0065 17.8801 29.8227C17.6402 29.7065 17.3662 29.4798 17.271 29.3189C17.0804 28.996 17.0482 28.5445 17.1908 28.1882C17.2953 27.9274 19.4279 25.3244 19.6839 25.1454C20.0803 24.8682 20.6816 24.8864 21.1001 25.1882ZM22.5132 29.3135C22.8116 29.4657 22.9701 29.6381 23.117 29.9702C23.2783 30.3348 23.2961 30.4781 23.2107 30.7232C23.1527 30.8898 22.8774 31.2887 22.5991 31.6099C22.042 32.253 21.71 32.393 21.1669 32.2139C20.6503 32.0433 20.2854 31.5995 20.2256 31.0687C20.1771 30.639 20.2026 30.5796 20.6952 29.9725C20.9816 29.6195 21.3137 29.2834 21.4331 29.2256C21.7684 29.0636 22.0715 29.0882 22.5132 29.3135Z" fill="url(#paint0_linear_13_57)"/>
<defs>
<linearGradient id="paint0_linear_13_57" x1="-2.49473e-06" y1="40.6875" x2="56.3389" y2="29.0879" gradientUnits="userSpaceOnUse">
<stop stop-color="#EE2762"/>
<stop offset="1" stop-color="#F05B3A"/>
</linearGradient>
</defs>
</svg>
