<svg width="26" height="38" viewBox="0 0 26 38" fill="none" xmlns="http://www.w3.org/2000/svg">
<path fill-rule="evenodd" clip-rule="evenodd" d="M13 2.25C6.64873 2.25 1.5 7.39873 1.5 13.75C1.5 16.8159 2.69879 19.6003 4.65472 21.6625C6.09276 23.1786 7.53508 25.0105 8.16759 27.127L8.16897 27.1279L8.18666 27.1394C8.20325 27.1501 8.22928 27.1667 8.26411 27.1884C8.33383 27.2317 8.43859 27.2953 8.57331 27.3722C8.84329 27.5265 9.23075 27.7331 9.69545 27.9396C10.638 28.3585 11.8391 28.75 13.0003 28.75C14.1615 28.75 15.3624 28.3585 16.3048 27.9396C16.7694 27.7331 17.1568 27.5265 17.4267 27.3723C17.5614 27.2953 17.6662 27.2318 17.7359 27.1884C17.7707 27.1667 17.7967 27.1501 17.8133 27.1394L17.831 27.1279L17.8324 27.127C18.4649 25.0105 19.9072 23.1786 21.3453 21.6625C23.3012 19.6003 24.5 16.8159 24.5 13.75C24.5 7.39873 19.3513 2.25 13 2.25ZM9.0863 29.3104C8.87306 29.2156 8.67443 29.1209 8.4933 29.0301C8.49774 29.1342 8.5 29.2388 8.5 29.3441V31.25C8.5 33.7353 10.5147 35.75 13 35.75C15.4853 35.75 17.5 33.7353 17.5 31.25V29.3441C17.5 29.2389 17.5023 29.1342 17.5067 29.0302C17.3257 29.1209 17.1271 29.2156 16.914 29.3104C15.8877 29.7665 14.4638 30.25 13.0003 30.25C11.5368 30.25 10.1127 29.7665 9.0863 29.3104ZM0 13.75C0 6.5703 5.8203 0.75 13 0.75C20.1797 0.75 26 6.5703 26 13.75C26 17.2151 24.6433 20.365 22.4336 22.6947C20.5503 24.6803 19 26.8924 19 29.3441V31.25C19 34.5637 16.3137 37.25 13 37.25C9.68629 37.25 7 34.5637 7 31.25V29.3441C7 26.8924 5.44971 24.6803 3.56639 22.6947C1.35671 20.365 0 17.2151 0 13.75ZM13.1471 6.23544C13.5533 6.1542 13.8167 5.75908 13.7354 5.35291C13.6542 4.94674 13.2591 4.68333 12.8529 4.76456C11.5343 5.02828 9.39701 5.69047 7.57615 7.24157C5.72721 8.81659 4.25 11.2727 4.25 15C4.25 15.4142 4.58579 15.75 5 15.75C5.41421 15.75 5.75 15.4142 5.75 15C5.75 11.7273 7.02279 9.68341 8.54885 8.38343C10.103 7.05953 11.9657 6.47172 13.1471 6.23544Z" fill="url(#paint0_linear_13_35)"/>
<defs>
<linearGradient id="paint0_linear_13_35" x1="-1.22383e-06" y1="43.1812" x2="28.5418" y2="40.4169" gradientUnits="userSpaceOnUse">
<stop stop-color="#EE2762"/>
<stop offset="1" stop-color="#F05B3A"/>
</linearGradient>
</defs>
</svg>
