<svg width="42" height="42" viewBox="0 0 42 42" fill="none" xmlns="http://www.w3.org/2000/svg">
<g clip-path="url(#clip0_13_31)">
<path fill-rule="evenodd" clip-rule="evenodd" d="M31.3517 16.0592C31.2756 16.0592 31.1996 16.0669 31.1261 16.0797L28.3068 11.9596C28.36 11.8702 28.4031 11.7707 28.4361 11.6685L35.5147 10.7215L31.6154 16.0873C31.5317 16.0694 31.443 16.0592 31.3542 16.0592H31.3517ZM19.8642 21.2847L19.8591 36.3636C19.8591 39.0389 18.7208 40.6548 17.197 41.3874C16.5404 41.7039 15.8128 41.852 15.0801 41.8443C14.355 41.8392 13.6197 41.6835 12.9326 41.3925C11.2948 40.6981 9.9283 39.238 9.62913 37.2162C8.70121 37.3975 7.84934 37.3566 7.09128 37.1422C6.27491 36.9074 5.57516 36.4683 5.0174 35.8812C4.46723 35.3017 4.06158 34.5742 3.8258 33.7598C3.55959 32.8409 3.51142 31.8096 3.72185 30.7451C2.56321 30.4592 1.59472 29.6525 0.938077 28.5982C0.598345 28.0545 0.342278 27.4418 0.182553 26.8011C0.0253639 26.1578 -0.0354836 25.4865 0.0202933 24.8253C0.131847 23.503 0.694687 22.2113 1.84318 21.2438C0.694687 20.2789 0.131847 18.9872 0.0202933 17.6624C-0.0354836 16.9986 0.0253639 16.3273 0.182553 15.6865C0.339743 15.0458 0.598345 14.4332 0.938077 13.8894C1.59472 12.8351 2.56321 12.0285 3.72185 11.7426C3.51142 10.6781 3.55959 9.64679 3.8258 8.72781C4.06158 7.91349 4.46723 7.18596 5.0174 6.60649C5.57516 6.01937 6.27491 5.5803 7.09128 5.34545C7.84681 5.12847 8.70121 5.08762 9.62913 5.27142C9.9283 3.24966 11.2948 1.7895 12.9326 1.09516C13.6197 0.804148 14.355 0.648432 15.0801 0.643326C15.8153 0.638221 16.5404 0.783726 17.197 1.10026C18.7208 1.83545 19.8591 3.44877 19.8591 6.12403L19.8642 20.6312V21.203C19.8642 21.2157 19.8642 21.2311 19.8642 21.2438C19.8642 21.2566 19.8642 21.2719 19.8642 21.2847V21.2847ZM18.807 20.5674L18.8019 6.12148C18.8019 3.92358 17.9221 2.62424 16.7432 2.05754C16.2362 1.81248 15.6682 1.70016 15.0902 1.70271C14.502 1.70781 13.9037 1.83545 13.3459 2.07285C11.9211 2.6753 10.7523 3.98995 10.6382 5.80749C11.0286 6.86943 11.6472 7.48208 12.3039 7.83946C12.8693 8.14579 13.4803 8.27598 14.0152 8.34235C14.0609 7.71182 14.2688 7.0762 14.6744 6.45588C14.8341 6.21082 15.1637 6.1419 15.4071 6.30272C15.6505 6.46354 15.719 6.7954 15.5592 7.04046C15.1916 7.60206 15.0446 8.17642 15.0674 8.73036C15.0953 9.35068 15.3361 9.95822 15.724 10.5096C15.8939 10.7496 15.8381 11.0814 15.5998 11.2525C15.3615 11.4235 15.0319 11.3673 14.862 11.1274C14.4919 10.6015 14.2231 10.0271 14.0938 9.42726C13.4194 9.35833 12.598 9.21027 11.8044 8.77886C10.9881 8.33469 10.2249 7.60461 9.72547 6.37675C8.85333 6.15721 8.06484 6.17253 7.38538 6.36654C6.75409 6.54778 6.2166 6.88474 5.78813 7.33402C5.35459 7.79096 5.03261 8.36788 4.84499 9.01627C4.62189 9.78974 4.58639 10.6653 4.77654 11.5792C4.88049 11.5715 4.98951 11.5664 5.1036 11.5613C5.4915 11.5486 5.93011 11.5613 6.48027 11.6022C6.77183 11.6252 6.9924 11.8804 6.96959 12.174C6.94677 12.4676 6.69324 12.6896 6.40168 12.6667C5.87687 12.6258 5.47375 12.6131 5.13656 12.6258C4.92359 12.6335 4.72837 12.6488 4.54329 12.6718C4.50526 12.6845 4.46216 12.6947 4.41906 12.6973V12.6896V12.6973C3.34916 12.7892 2.43898 13.4835 1.83811 14.4485C1.55923 14.8952 1.34626 15.4006 1.21696 15.9316C1.08766 16.46 1.03695 17.0165 1.08259 17.5653C1.18147 18.7549 1.73924 19.9087 2.90294 20.7001H11.1605C11.4546 20.7001 11.6903 20.94 11.6903 21.2336C11.6903 21.5272 11.452 21.7671 11.1605 21.7671H2.89787C1.73417 22.5559 1.1764 23.7123 1.07752 24.9019C1.03188 25.4507 1.08005 26.0072 1.21189 26.5356C1.34373 27.0666 1.55416 27.572 1.83304 28.0188C2.43391 28.9837 3.34409 29.678 4.41399 29.7699V29.7776V29.7699C4.45709 29.7725 4.50019 29.7827 4.53822 29.7955C4.7233 29.8184 4.91852 29.8363 5.13148 29.8414C5.46868 29.8516 5.86926 29.8414 6.39661 29.8006C6.68817 29.7776 6.94423 29.9997 6.96452 30.2932C6.98733 30.5868 6.76676 30.8446 6.4752 30.865C5.92504 30.9084 5.48643 30.9187 5.09853 30.9059C4.98444 30.9033 4.87542 30.8957 4.77147 30.888C4.58386 31.8019 4.61682 32.68 4.83992 33.451C5.02754 34.1019 5.34952 34.6763 5.78306 35.1332C6.20899 35.585 6.74901 35.922 7.38031 36.1007C8.05977 36.2947 8.84825 36.31 9.7204 36.0905C10.2199 34.8626 10.983 34.1325 11.7994 33.6884C12.5929 33.257 13.4169 33.1089 14.0887 33.04C14.218 32.4401 14.4868 31.8657 14.8569 31.3399C15.0268 31.0999 15.3564 31.0437 15.5947 31.2148C15.833 31.3858 15.8888 31.7177 15.719 31.9576C15.3285 32.509 15.0877 33.1166 15.0623 33.7369C15.0395 34.2908 15.1865 34.8652 15.5542 35.4268C15.7139 35.6718 15.648 36.0011 15.402 36.1645C15.1561 36.3279 14.8316 36.259 14.6693 36.0113C14.2637 35.391 14.0558 34.7529 14.0102 34.1249C13.4777 34.1913 12.8642 34.3214 12.2988 34.6278C11.6396 34.9851 11.0236 35.5978 10.6331 36.6597C10.7472 38.4773 11.916 39.7919 13.3408 40.3944C13.9011 40.6318 14.4995 40.7594 15.0851 40.7645C15.6632 40.7696 16.2311 40.6548 16.7381 40.4097C17.9171 39.843 18.7968 38.5437 18.7968 36.3458L18.8019 21.8999C18.4824 22.0096 18.1934 22.1705 17.9576 22.3823C17.623 22.681 17.3821 23.092 17.2756 23.6281C17.2199 23.9165 16.941 24.1054 16.6545 24.0493C16.368 23.9931 16.1804 23.7123 16.2362 23.4239C16.3908 22.6427 16.7534 22.0352 17.2579 21.5859C17.41 21.4506 17.5723 21.3306 17.7447 21.226C17.5723 21.1213 17.4075 21.0013 17.2579 20.866C16.7534 20.4167 16.3908 19.8066 16.2362 19.0281C16.1804 18.7396 16.368 18.4588 16.6545 18.4026C16.941 18.3465 17.2199 18.5354 17.2756 18.8238C17.3821 19.3599 17.623 19.7709 17.9576 20.0696C18.196 20.2814 18.4824 20.4423 18.8044 20.552L18.807 20.5674ZM13.1 16.871C11.9489 16.5545 11.1047 16.0158 10.5038 15.3675C10.0601 15.6891 9.49476 15.9393 8.89643 16.0975C8.10541 16.3069 7.2358 16.3605 6.49041 16.2047C6.20392 16.146 6.02138 15.8627 6.07969 15.5742C6.138 15.2858 6.41942 15.102 6.70591 15.1607C7.28904 15.2832 7.98371 15.2373 8.62768 15.0662C9.10686 14.9386 9.548 14.7471 9.88013 14.5072C9.28686 13.4529 9.17024 12.2684 9.32996 11.301C9.37813 11.0099 9.64941 10.8134 9.93844 10.8593C10.2275 10.9078 10.4227 11.181 10.377 11.472C10.2401 12.3093 10.3618 13.3533 10.9627 14.234C11.4317 14.9233 12.2025 15.5155 13.3814 15.8397C13.6628 15.9163 13.8301 16.2098 13.7516 16.4932C13.6755 16.7766 13.3839 16.945 13.1025 16.8659L13.1 16.871ZM13.3789 26.6428C12.1999 26.967 11.4292 27.5593 10.9602 28.2485C10.3593 29.1292 10.2376 30.1733 10.3745 31.0106C10.4227 31.3016 10.2249 31.5747 9.9359 31.6232C9.64688 31.6717 9.3756 31.4726 9.32743 31.1816C9.1677 30.2167 9.28179 29.0322 9.87759 27.9779C9.54547 27.7405 9.10686 27.5465 8.62515 27.4189C7.98118 27.2478 7.2865 27.2019 6.70338 27.3244C6.41689 27.3831 6.138 27.1993 6.07716 26.9109C6.01884 26.6224 6.20139 26.3416 6.48788 26.2804C7.23326 26.1246 8.10287 26.1782 8.89389 26.3876C9.49222 26.5458 10.0576 26.7986 10.5013 27.1176C11.1021 26.4693 11.9464 25.9306 13.0974 25.6141C13.3789 25.5375 13.6704 25.7034 13.7465 25.9868C13.8225 26.2701 13.6577 26.5637 13.3763 26.6403L13.3789 26.6428ZM27.2217 2.42258L27.749 9.84846L31.1539 5.89428C31.0779 5.73091 31.0373 5.54711 31.0373 5.35566C31.0373 5.27142 31.0449 5.18973 31.0601 5.1106L27.2572 2.3996C27.2572 2.3996 27.2343 2.41237 27.2217 2.42002V2.42258ZM26.6791 9.74635L26.1644 2.49916C26.0833 2.46853 26.0073 2.43023 25.9363 2.38684L23.1778 4.24522C23.188 4.31415 23.1956 4.38307 23.1956 4.45455C23.1956 4.67153 23.1424 4.87575 23.0485 5.05444L26.6816 9.74635H26.6791ZM40.707 16.6106L41.1786 24.8125C41.6577 24.9989 41.9975 25.466 41.9975 26.0149C41.9975 26.722 41.4321 27.2963 40.7298 27.304L38.4633 32.4605C38.6635 32.6877 38.7878 32.9889 38.7878 33.3182C38.7878 34.0304 38.2148 34.6073 37.5074 34.6073C37.3604 34.6073 37.2184 34.5818 37.0866 34.5359L34.2267 37.566C34.2876 37.7166 34.3205 37.8774 34.3205 38.051C34.3205 38.7632 33.7476 39.3401 33.0402 39.3401C32.7334 39.3401 32.452 39.2303 32.2314 39.0491L28.9913 40.6675C28.9913 40.6828 28.9913 40.6956 28.9913 40.7109C28.9913 41.4231 28.4183 42 27.711 42C27.0036 42 26.4307 41.4231 26.4307 40.7109C26.4307 40.6854 26.4307 40.6599 26.4307 40.6343L23.0612 38.8398C22.8761 38.9444 22.6606 39.0057 22.4325 39.0057C21.7251 39.0057 21.1521 38.4288 21.1521 37.7166C21.1521 37.183 21.4741 36.7236 21.9355 36.527L22.1485 28.5804C21.7226 28.371 21.4285 27.9294 21.4285 27.4214C21.4285 26.9134 21.7353 26.4514 22.1764 26.2472L22.1561 18.6324C21.7099 18.4307 21.4006 17.9789 21.4006 17.4556C21.4006 16.9603 21.6769 16.5315 22.0826 16.3145L21.4513 5.65433C20.9721 5.46798 20.6299 5.00083 20.6299 4.44944C20.6299 3.73723 21.2028 3.16031 21.9102 3.16031C22.1586 3.16031 22.3894 3.23179 22.5846 3.35432L25.343 1.49594C25.3329 1.42701 25.3253 1.35809 25.3253 1.28406C25.3253 0.57185 25.8982 -0.00506592 26.6056 -0.00506592C27.3129 -0.00506592 27.8859 0.57185 27.8859 1.28406C27.8859 1.3683 27.8783 1.44999 27.8631 1.52912L31.6661 4.24012C31.8562 4.1278 32.0768 4.06398 32.3126 4.06398C33.0199 4.06398 33.5929 4.6409 33.5929 5.35311C33.5929 5.52669 33.5574 5.69262 33.4966 5.84578L36.2525 8.80439C36.3818 8.761 36.5212 8.73547 36.6632 8.73547C37.3705 8.73547 37.9435 9.31238 37.9435 10.0246C37.9435 10.285 37.8675 10.5275 37.7356 10.7291L39.9236 14.1906C39.9819 14.183 40.0427 14.1779 40.1036 14.1779C40.8109 14.1779 41.3839 14.7548 41.3839 15.467C41.3839 15.9622 41.1076 16.3911 40.6994 16.6081L40.707 16.6106ZM40.1213 24.8738L39.6751 17.1084L33.8338 26.0685L33.8388 26.0761L39.5129 25.5835C39.6219 25.2771 39.8399 25.0244 40.1239 24.8738H40.1213ZM39.6016 26.6479L33.9757 27.1355C33.9479 27.2249 33.9124 27.3117 33.8667 27.3908L37.2488 32.0546C37.33 32.0367 37.4111 32.0291 37.4973 32.0265L39.7639 26.87C39.703 26.8011 39.6498 26.7271 39.6041 26.6454L39.6016 26.6479ZM36.293 33.7241L29.0775 32.9634C30.0688 33.9845 31.6585 35.6463 32.6548 36.818C32.7765 36.7797 32.9058 36.7593 33.0402 36.7593C33.1873 36.7593 33.3292 36.7848 33.4611 36.8308L36.3209 33.8007C36.3108 33.7752 36.3006 33.7496 36.293 33.7241V33.7241ZM28.9812 31.8836L36.3792 32.6622L33.0123 28.0188C32.9287 28.0366 32.8399 28.0468 32.7512 28.0468C32.6219 28.0468 32.4977 28.0264 32.3785 27.9907L28.9812 31.8836ZM27.1938 39.529L27.2597 33.7062L23.6367 37.2749C23.6874 37.4128 23.7128 37.5609 23.7128 37.714C23.7128 37.8008 23.7052 37.8825 23.6874 37.9642L26.925 39.6898C27.0062 39.626 27.0974 39.5724 27.1912 39.529H27.1938ZM28.3169 33.6986L28.251 39.5392C28.3474 39.5852 28.4361 39.6413 28.5172 39.7077L31.7573 38.0893C31.7573 38.074 31.7573 38.0612 31.7573 38.0459C31.7573 37.8008 31.8258 37.5711 31.945 37.3745C31.0627 36.4708 29.3615 34.7503 28.3169 33.696V33.6986ZM28.5172 10.5785L31.95 6.59118C32.0667 6.62436 32.1883 6.64479 32.3151 6.64479C32.4596 6.64479 32.5965 6.62181 32.7258 6.57586L35.4817 9.53447C35.4665 9.57276 35.4513 9.61361 35.4412 9.6519L28.5172 10.5785V10.5785ZM26.9352 12.5518L23.7965 16.8302C23.8117 16.8557 23.8244 16.8838 23.837 16.9093L30.1728 16.8276C30.1956 16.7766 30.2209 16.7281 30.2488 16.6795L27.427 12.5569C27.3535 12.5697 27.2774 12.5773 27.2014 12.5773C27.1101 12.5773 27.0214 12.5671 26.9326 12.5492L26.9352 12.5518ZM23.1195 15.9571L26.0833 11.9187C25.9794 11.7324 25.9211 11.5179 25.9211 11.2907C25.9211 11.0738 25.9743 10.8695 26.0681 10.6909L22.5389 6.13169L23.1195 15.9571ZM38.9602 16.2584L32.5991 17.6215C32.5255 17.9585 32.3227 18.2444 32.0464 18.4256L33.0681 25.295L38.9602 16.2584ZM32.594 16.5315L38.8562 15.1888C38.8892 15.033 38.95 14.8901 39.0337 14.7625L36.8457 11.301C36.7874 11.3086 36.7266 11.3137 36.6657 11.3137C36.577 11.3137 36.4882 11.3035 36.4046 11.2856L32.594 16.5315V16.5315ZM23.9815 17.9712C25.8146 19.679 30.0029 23.5209 32.0033 25.3512L30.9968 18.5839C30.6393 18.4818 30.3452 18.2265 30.188 17.8921L23.9815 17.9712ZM31.4556 26.2906C29.5313 24.5266 25.1503 20.5086 23.2108 18.6937L23.2311 26.2421C23.4542 26.3416 23.6418 26.505 23.7736 26.7092L31.4531 26.2906H31.4556ZM28.1749 31.1892C28.0583 31.1535 27.9316 31.1331 27.8023 31.1331C27.6375 31.1331 27.4803 31.1637 27.3358 31.2199L23.908 27.8554C23.9182 27.8273 23.9283 27.7967 23.9359 27.766L31.5165 27.3525L28.1699 31.1867L28.1749 31.1892ZM22.9953 36.4121L26.598 32.8638C26.5473 32.726 26.5219 32.5779 26.5219 32.4248C26.5219 32.2716 26.5498 32.1235 26.598 31.9857L23.2032 28.6518L22.9953 36.4121V36.4121Z" fill="url(#paint0_linear_13_31)"/>
</g>
<defs>
<linearGradient id="paint0_linear_13_31" x1="-1.97684e-06" y1="48.8259" x2="45.6913" y2="42.6146" gradientUnits="userSpaceOnUse">
<stop stop-color="#EE2762"/>
<stop offset="1" stop-color="#F05B3A"/>
</linearGradient>
<clipPath id="clip0_13_31">
<rect width="42" height="42" fill="white"/>
</clipPath>
</defs>
</svg>
