<svg width="52" height="50" viewBox="0 0 52 50" fill="none" xmlns="http://www.w3.org/2000/svg">
<path fill-rule="evenodd" clip-rule="evenodd" d="M33.8546 0.633297C32.9613 0.998038 32.2564 1.35293 32.1356 1.49859C31.9474 1.72551 31.9368 1.87075 32.0046 3.28172L32.0785 4.81781L31.4891 5.38352L30.8996 5.94922L29.3416 5.87411C27.909 5.80515 27.7635 5.81521 27.5316 5.99933C27.3804 6.11936 27.0225 6.80996 26.6376 7.7242C26.2847 8.5628 25.9969 9.34832 25.9982 9.46994C26.0013 9.75756 26.1735 9.94973 27.3774 11.0097L28.3797 11.8923V12.7131V13.5338L27.3232 14.464C26.2593 15.4007 26.0067 15.6946 25.9996 16.0033C25.9975 16.0958 26.2847 16.8575 26.6376 17.6961C27.023 18.6117 27.3802 19.3006 27.5316 19.4206C27.763 19.604 27.9128 19.6145 29.355 19.5482L30.9262 19.4759L31.5048 20.0521L32.0835 20.6284L32.0067 22.1516C31.9361 23.5522 31.9464 23.6944 32.1347 23.9211C32.2575 24.0689 32.9639 24.4188 33.8991 24.7951C34.7569 25.1402 35.5604 25.4215 35.6847 25.4203C35.979 25.4172 36.1755 25.2488 37.2598 24.0719L38.1625 23.092H38.9991H39.8356L40.7384 24.0719C41.8226 25.2488 42.0192 25.4172 42.3134 25.4203C42.4378 25.4215 43.2413 25.1402 44.0991 24.7951C45.0342 24.4188 45.7406 24.0689 45.8634 23.9211C46.0517 23.6944 46.062 23.5522 45.9915 22.1516L45.9147 20.6284L46.4933 20.0521L47.072 19.4759L48.6432 19.5482C50.0854 19.6145 50.2351 19.604 50.4666 19.4206C50.618 19.3006 50.9751 18.6117 51.3606 17.6961C51.7135 16.8575 52.0013 16.0719 52 15.9503C51.9969 15.6627 51.8247 15.4705 50.6208 14.4105L49.6184 13.528V12.7072V11.8865L50.675 10.9562C51.7388 10.0195 51.9914 9.72567 51.9986 9.41697C52.0006 9.32449 51.7135 8.5628 51.3606 7.7242C50.9751 6.80858 50.618 6.11968 50.4666 5.99965C50.2351 5.81627 50.0854 5.80578 48.6432 5.8721L47.072 5.94435L46.4933 5.36816L45.9147 4.79186L45.9915 3.26869C46.062 1.8681 46.0517 1.72583 45.8634 1.49912C45.7406 1.35134 45.0342 1.00143 44.0991 0.625139C43.2413 0.280102 42.4378 -0.00126695 42.3134 4.2908e-06C42.0192 0.00307647 41.8226 0.171411 40.7384 1.34837L39.8356 2.32829H38.9991H38.1625L37.2598 1.34837C36.7633 0.80947 36.2567 0.286141 36.1339 0.185394C36.0112 0.084754 35.7889 0.00519529 35.6399 0.00869121C35.4909 0.0121871 34.6875 0.293238 33.8546 0.633297ZM36.4012 2.96137L37.4334 4.02328H38.9902H40.5471L41.0471 3.52008C41.322 3.24338 41.7867 2.75998 42.0795 2.44599C42.6092 1.87795 42.6138 1.87573 42.9842 2.00656C43.1889 2.07902 43.5661 2.22892 43.8223 2.33973L44.2883 2.54122L44.228 4.02858L44.1679 5.51594L45.2605 6.58421L46.3532 7.65237L47.8834 7.61233L49.4135 7.57218L49.7327 8.31067C49.9082 8.71683 50.0519 9.08443 50.0519 9.12744C50.0519 9.17045 49.7958 9.43371 49.483 9.71243C49.1702 9.99115 48.6825 10.4392 48.3994 10.7079L47.8847 11.1967V12.7101V14.2235L48.3994 14.7123C48.6825 14.9811 49.1702 15.4291 49.483 15.7078C49.7958 15.9866 50.0519 16.2498 50.0519 16.2928C50.0519 16.3358 49.9082 16.7034 49.7327 17.1096L49.4135 17.8481L47.8834 17.8079L46.3532 17.7679L45.2629 18.8338L44.1726 19.8998L44.2135 21.3993L44.2546 22.899L43.4544 23.2281L42.6543 23.5572L41.6095 22.4771L40.5648 21.397H38.9991H37.4334L36.3918 22.4738L35.3502 23.5506L34.547 23.2222L33.7436 22.8939L33.7846 21.3968L33.8256 19.8998L32.7353 18.8338L31.6449 17.7679L30.1137 17.8079L28.5823 17.8481L28.2465 17.0627L27.9106 16.2774L29.012 15.2591L30.1135 14.2408V12.7101V11.1794L29.012 10.1612L27.9106 9.14291L28.2465 8.3576L28.5823 7.57218L30.1137 7.61233L31.6449 7.65237L32.7353 6.58643L33.8256 5.52049L33.7846 4.0235L33.7436 2.5265L34.4479 2.22617C34.8353 2.06101 35.201 1.9199 35.2606 1.9127C35.3202 1.9055 35.8335 2.37745 36.4012 2.96137ZM2.6259 2.64176C1.99882 2.78774 1.13583 3.34423 0.730456 3.86396C-0.0708729 4.89112 -0.0169092 3.44169 0.0148406 23.092L0.0433395 40.7305L0.335372 41.2715C0.76784 42.0731 1.09444 42.403 1.85286 42.8051L2.53564 43.1671L10.6356 43.1967C15.0907 43.2131 18.7352 43.2608 18.7347 43.3027C18.7342 43.3446 18.6371 44.38 18.5189 45.6036C18.4006 46.8272 18.3036 47.9355 18.303 48.0667C18.3021 48.3011 18.2798 48.305 16.9476 48.305H15.5931V49.1525V50H25.1289H34.6646V49.1525V48.305H33.3101C31.9779 48.305 31.9556 48.3011 31.9548 48.0667C31.9542 47.9355 31.8571 46.8272 31.7389 45.6036C31.6207 44.38 31.5236 43.3446 31.523 43.3027C31.5226 43.2608 35.1672 43.2131 39.6222 43.1967L47.7221 43.1671L48.4049 42.8051C49.1633 42.403 49.4899 42.0731 49.9224 41.2715L50.2144 40.7305L50.2442 30.9578L50.274 21.1851H49.4044H48.5348V27.9651V34.7451H25.1289H1.72293V22.8801V11.0151H12.9925H24.262V10.1676V9.32014H12.9859H1.70982L1.74341 7.31475C1.77419 5.48352 1.79651 5.28394 2.00055 5.01719C2.12344 4.85648 2.35858 4.6267 2.52318 4.50657C2.82128 4.28898 2.87589 4.28802 16.5763 4.26048L30.3302 4.23272V3.3865V2.54016L16.6496 2.55097C9.12539 2.55701 2.81467 2.59779 2.6259 2.64176ZM3.45671 6.77765V7.62515H4.32359H5.19048V6.77765V5.93015H4.32359H3.45671V6.77765ZM6.92426 6.77765V7.62515H7.79114H8.65803V6.77765V5.93015H7.79114H6.92426V6.77765ZM10.3918 6.77765V7.62515H11.2587H12.1256V6.77765V5.93015H11.2587H10.3918V6.77765ZM37.7109 7.79263C36.2671 8.17221 34.9432 9.24397 34.3263 10.5328C33.6261 11.9957 33.6455 13.5286 34.3827 14.9867C34.6618 15.539 34.9664 15.9345 35.4484 16.3708C35.8196 16.7067 36.4325 17.1232 36.8107 17.2961C37.7202 17.7122 38.8817 17.8759 39.8148 17.7197C40.8189 17.5516 41.8244 17.0563 42.5662 16.3645C43.9238 15.0986 44.4937 13.2202 44.0387 11.5123C43.7999 10.6158 43.381 9.88277 42.7206 9.20594C41.4365 7.88978 39.461 7.33244 37.7109 7.79263ZM40.6301 9.75544C41.3629 10.1372 41.6938 10.4742 42.1161 11.2686C42.3604 11.7284 42.404 11.9449 42.4061 12.7101C42.4082 13.5347 42.3773 13.6668 42.0402 14.2781C41.6302 15.0216 41.2901 15.3426 40.4735 15.7574C40.0016 15.9971 39.7846 16.0386 38.9991 16.0386C38.2136 16.0386 37.9965 15.9971 37.5246 15.7574C36.7089 15.343 36.3685 15.022 35.956 14.2781C35.6152 13.6637 35.5861 13.539 35.5909 12.7101C35.5952 11.9493 35.6405 11.7258 35.8829 11.2686C36.0406 10.971 36.2903 10.5875 36.4376 10.4163C36.7288 10.0779 37.6498 9.54748 38.1796 9.41284C38.3621 9.36644 38.8407 9.34769 39.243 9.3712C39.8041 9.40383 40.1273 9.49335 40.6301 9.75544ZM4.58962 13.8177C4.32576 14.0756 4.32359 14.0941 4.32359 16.1001C4.32359 18.1061 4.32576 18.1247 4.58962 18.3825C4.85337 18.6405 4.87233 18.6426 6.92426 18.6426C8.97618 18.6426 8.99514 18.6405 9.25889 18.3825C9.52275 18.1247 9.52492 18.1061 9.52492 16.1001C9.52492 14.0941 9.52275 14.0756 9.25889 13.8177C8.99514 13.5597 8.97618 13.5576 6.92426 13.5576C4.87233 13.5576 4.85337 13.5597 4.58962 13.8177ZM11.5247 13.8177C11.2609 14.0756 11.2587 14.0941 11.2587 16.1001C11.2587 18.1061 11.2609 18.1247 11.5247 18.3825C11.7885 18.6405 11.8074 18.6426 13.8594 18.6426C15.9113 18.6426 15.9302 18.6405 16.194 18.3825C16.4578 18.1247 16.46 18.1061 16.46 16.1001C16.46 14.0941 16.4578 14.0756 16.194 13.8177C15.9302 13.5597 15.9113 13.5576 13.8594 13.5576C11.8074 13.5576 11.7885 13.5597 11.5247 13.8177ZM18.4598 13.8177C18.196 14.0756 18.1938 14.0941 18.1938 16.1001C18.1938 18.1061 18.196 18.1247 18.4598 18.3825C18.7236 18.6405 18.7425 18.6426 20.7944 18.6426C22.8464 18.6426 22.8653 18.6405 23.1291 18.3825C23.3929 18.1247 23.3951 18.1061 23.3951 16.1001C23.3951 14.0941 23.3929 14.0756 23.1291 13.8177C22.8653 13.5597 22.8464 13.5576 20.7944 13.5576C18.7425 13.5576 18.7236 13.5597 18.4598 13.8177ZM7.79114 16.1001V16.9476H6.92426H6.05737V16.1001V15.2526H6.92426H7.79114V16.1001ZM14.7262 16.1001V16.9476H13.8594H12.9925V16.1001V15.2526H13.8594H14.7262V16.1001ZM21.6613 16.1001V16.9476H20.7944H19.9276V16.1001V15.2526H20.7944H21.6613V16.1001ZM4.58962 20.5977C4.32576 20.8555 4.32359 20.8741 4.32359 22.8801C4.32359 24.8861 4.32576 24.9047 4.58962 25.1625C4.85337 25.4205 4.87233 25.4226 6.92426 25.4226C8.97618 25.4226 8.99514 25.4205 9.25889 25.1625C9.52275 24.9047 9.52492 24.8861 9.52492 22.8801C9.52492 20.8741 9.52275 20.8555 9.25889 20.5977C8.99514 20.3397 8.97618 20.3376 6.92426 20.3376C4.87233 20.3376 4.85337 20.3397 4.58962 20.5977ZM11.5247 20.5977C11.2609 20.8555 11.2587 20.8741 11.2587 22.8801C11.2587 24.8861 11.2609 24.9047 11.5247 25.1625C11.7885 25.4205 11.8074 25.4226 13.8594 25.4226C15.9113 25.4226 15.9302 25.4205 16.194 25.1625C16.4578 24.9047 16.46 24.8861 16.46 22.8801C16.46 20.8741 16.4578 20.8555 16.194 20.5977C15.9302 20.3397 15.9113 20.3376 13.8594 20.3376C11.8074 20.3376 11.7885 20.3397 11.5247 20.5977ZM18.4598 20.5977C18.196 20.8555 18.1938 20.8741 18.1938 22.8801C18.1938 24.8861 18.196 24.9047 18.4598 25.1625C18.7236 25.4205 18.7425 25.4226 20.7944 25.4226C22.8464 25.4226 22.8653 25.4205 23.1291 25.1625C23.3929 24.9047 23.3951 24.8861 23.3951 22.8801C23.3951 20.8741 23.3929 20.8555 23.1291 20.5977C22.8653 20.3397 22.8464 20.3376 20.7944 20.3376C18.7425 20.3376 18.7236 20.3397 18.4598 20.5977ZM7.79114 22.8801V23.7276H6.92426H6.05737V22.8801V22.0326H6.92426H7.79114V22.8801ZM14.7262 22.8801V23.7276H13.8594H12.9925V22.8801V22.0326H13.8594H14.7262V22.8801ZM21.6613 22.8801V23.7276H20.7944H19.9276V22.8801V22.0326H20.7944H21.6613V22.8801ZM4.58962 27.3777C4.32576 27.6355 4.32359 27.654 4.32359 29.6601C4.32359 31.6661 4.32576 31.6846 4.58962 31.9425C4.85337 32.2004 4.87233 32.2026 6.92426 32.2026C8.97618 32.2026 8.99514 32.2004 9.25889 31.9425C9.52275 31.6846 9.52492 31.6661 9.52492 29.6601C9.52492 27.654 9.52275 27.6355 9.25889 27.3777C8.99514 27.1197 8.97618 27.1176 6.92426 27.1176C4.87233 27.1176 4.85337 27.1197 4.58962 27.3777ZM11.5247 27.3777C11.2609 27.6355 11.2587 27.654 11.2587 29.6601C11.2587 31.6661 11.2609 31.6846 11.5247 31.9425C11.7885 32.2004 11.8074 32.2026 13.8594 32.2026C15.9113 32.2026 15.9302 32.2004 16.194 31.9425C16.4578 31.6846 16.46 31.6661 16.46 29.6601C16.46 27.654 16.4578 27.6355 16.194 27.3777C15.9302 27.1197 15.9113 27.1176 13.8594 27.1176C11.8074 27.1176 11.7885 27.1197 11.5247 27.3777ZM18.4598 27.3777C18.196 27.6355 18.1938 27.654 18.1938 29.6601C18.1938 31.6661 18.196 31.6846 18.4598 31.9425C18.7236 32.2004 18.7425 32.2026 20.7944 32.2026C22.8464 32.2026 22.8653 32.2004 23.1291 31.9425C23.3929 31.6846 23.3951 31.6661 23.3951 29.6601C23.3951 27.654 23.3929 27.6355 23.1291 27.3777C22.8653 27.1197 22.8464 27.1176 20.7944 27.1176C18.7425 27.1176 18.7236 27.1197 18.4598 27.3777ZM27.7295 27.9651V28.8126H28.5964H29.4633V27.9651V27.1176H28.5964H27.7295V27.9651ZM31.1971 27.9651V28.8126H38.5656H45.9342V27.9651V27.1176H38.5656H31.1971V27.9651ZM7.79114 29.6601V30.5076H6.92426H6.05737V29.6601V28.8126H6.92426H7.79114V29.6601ZM14.7262 29.6601V30.5076H13.8594H12.9925V29.6601V28.8126H13.8594H14.7262V29.6601ZM21.6613 29.6601V30.5076H20.7944H19.9276V29.6601V28.8126H20.7944H21.6613V29.6601ZM25.9958 31.3551V32.2026H34.2312H42.4666V31.3551V30.5076H34.2312H25.9958V31.3551ZM48.5144 38.4454C48.4836 40.2767 48.4613 40.4763 48.2572 40.743C48.1343 40.9037 47.8992 41.1335 47.7346 41.2536L47.4353 41.4721H25.1289H2.82247L2.52318 41.2536C2.35858 41.1335 2.12344 40.9037 2.00055 40.743C1.79651 40.4763 1.77419 40.2767 1.74341 38.4454L1.70982 36.44H25.1289H48.5479L48.5144 38.4454ZM24.262 38.9825V39.83H25.1289H25.9958V38.9825V38.135H25.1289H24.262V38.9825ZM29.7893 43.3524C29.7898 43.4253 29.8869 44.486 30.0051 45.7095C30.1233 46.9331 30.2204 48.0177 30.221 48.1196C30.2217 48.2936 29.9074 48.305 25.1289 48.305C20.3504 48.305 20.036 48.2936 20.0368 48.1196C20.0373 48.0177 20.1344 46.9331 20.2526 45.7095C20.3709 44.486 20.468 43.4253 20.4685 43.3524C20.4691 43.2486 21.474 43.22 25.1289 43.22C28.7838 43.22 29.7886 43.2486 29.7893 43.3524Z" fill="black"/>
<path fill-rule="evenodd" clip-rule="evenodd" d="M33.8546 0.633297C32.9613 0.998038 32.2564 1.35293 32.1356 1.49859C31.9474 1.72551 31.9368 1.87075 32.0046 3.28172L32.0785 4.81781L31.4891 5.38352L30.8996 5.94922L29.3416 5.87411C27.909 5.80515 27.7635 5.81521 27.5316 5.99933C27.3804 6.11936 27.0225 6.80996 26.6376 7.7242C26.2847 8.5628 25.9969 9.34832 25.9982 9.46994C26.0013 9.75756 26.1735 9.94973 27.3774 11.0097L28.3797 11.8923V12.7131V13.5338L27.3232 14.464C26.2593 15.4007 26.0067 15.6946 25.9996 16.0033C25.9975 16.0958 26.2847 16.8575 26.6376 17.6961C27.023 18.6117 27.3802 19.3006 27.5316 19.4206C27.763 19.604 27.9128 19.6145 29.355 19.5482L30.9262 19.4759L31.5048 20.0521L32.0835 20.6284L32.0067 22.1516C31.9361 23.5522 31.9464 23.6944 32.1347 23.9211C32.2575 24.0689 32.9639 24.4188 33.8991 24.7951C34.7569 25.1402 35.5604 25.4215 35.6847 25.4203C35.979 25.4172 36.1755 25.2488 37.2598 24.0719L38.1625 23.092H38.9991H39.8356L40.7384 24.0719C41.8226 25.2488 42.0192 25.4172 42.3134 25.4203C42.4378 25.4215 43.2413 25.1402 44.0991 24.7951C45.0342 24.4188 45.7406 24.0689 45.8634 23.9211C46.0517 23.6944 46.062 23.5522 45.9915 22.1516L45.9147 20.6284L46.4933 20.0521L47.072 19.4759L48.6432 19.5482C50.0854 19.6145 50.2351 19.604 50.4666 19.4206C50.618 19.3006 50.9751 18.6117 51.3606 17.6961C51.7135 16.8575 52.0013 16.0719 52 15.9503C51.9969 15.6627 51.8247 15.4705 50.6208 14.4105L49.6184 13.528V12.7072V11.8865L50.675 10.9562C51.7388 10.0195 51.9914 9.72567 51.9986 9.41697C52.0006 9.32449 51.7135 8.5628 51.3606 7.7242C50.9751 6.80858 50.618 6.11968 50.4666 5.99965C50.2351 5.81627 50.0854 5.80578 48.6432 5.8721L47.072 5.94435L46.4933 5.36816L45.9147 4.79186L45.9915 3.26869C46.062 1.8681 46.0517 1.72583 45.8634 1.49912C45.7406 1.35134 45.0342 1.00143 44.0991 0.625139C43.2413 0.280102 42.4378 -0.00126695 42.3134 4.2908e-06C42.0192 0.00307647 41.8226 0.171411 40.7384 1.34837L39.8356 2.32829H38.9991H38.1625L37.2598 1.34837C36.7633 0.80947 36.2567 0.286141 36.1339 0.185394C36.0112 0.084754 35.7889 0.00519529 35.6399 0.00869121C35.4909 0.0121871 34.6875 0.293238 33.8546 0.633297ZM36.4012 2.96137L37.4334 4.02328H38.9902H40.5471L41.0471 3.52008C41.322 3.24338 41.7867 2.75998 42.0795 2.44599C42.6092 1.87795 42.6138 1.87573 42.9842 2.00656C43.1889 2.07902 43.5661 2.22892 43.8223 2.33973L44.2883 2.54122L44.228 4.02858L44.1679 5.51594L45.2605 6.58421L46.3532 7.65237L47.8834 7.61233L49.4135 7.57218L49.7327 8.31067C49.9082 8.71683 50.0519 9.08443 50.0519 9.12744C50.0519 9.17045 49.7958 9.43371 49.483 9.71243C49.1702 9.99115 48.6825 10.4392 48.3994 10.7079L47.8847 11.1967V12.7101V14.2235L48.3994 14.7123C48.6825 14.9811 49.1702 15.4291 49.483 15.7078C49.7958 15.9866 50.0519 16.2498 50.0519 16.2928C50.0519 16.3358 49.9082 16.7034 49.7327 17.1096L49.4135 17.8481L47.8834 17.8079L46.3532 17.7679L45.2629 18.8338L44.1726 19.8998L44.2135 21.3993L44.2546 22.899L43.4544 23.2281L42.6543 23.5572L41.6095 22.4771L40.5648 21.397H38.9991H37.4334L36.3918 22.4738L35.3502 23.5506L34.547 23.2222L33.7436 22.8939L33.7846 21.3968L33.8256 19.8998L32.7353 18.8338L31.6449 17.7679L30.1137 17.8079L28.5823 17.8481L28.2465 17.0627L27.9106 16.2774L29.012 15.2591L30.1135 14.2408V12.7101V11.1794L29.012 10.1612L27.9106 9.14291L28.2465 8.3576L28.5823 7.57218L30.1137 7.61233L31.6449 7.65237L32.7353 6.58643L33.8256 5.52049L33.7846 4.0235L33.7436 2.5265L34.4479 2.22617C34.8353 2.06101 35.201 1.9199 35.2606 1.9127C35.3202 1.9055 35.8335 2.37745 36.4012 2.96137ZM2.6259 2.64176C1.99882 2.78774 1.13583 3.34423 0.730456 3.86396C-0.0708729 4.89112 -0.0169092 3.44169 0.0148406 23.092L0.0433395 40.7305L0.335372 41.2715C0.76784 42.0731 1.09444 42.403 1.85286 42.8051L2.53564 43.1671L10.6356 43.1967C15.0907 43.2131 18.7352 43.2608 18.7347 43.3027C18.7342 43.3446 18.6371 44.38 18.5189 45.6036C18.4006 46.8272 18.3036 47.9355 18.303 48.0667C18.3021 48.3011 18.2798 48.305 16.9476 48.305H15.5931V49.1525V50H25.1289H34.6646V49.1525V48.305H33.3101C31.9779 48.305 31.9556 48.3011 31.9548 48.0667C31.9542 47.9355 31.8571 46.8272 31.7389 45.6036C31.6207 44.38 31.5236 43.3446 31.523 43.3027C31.5226 43.2608 35.1672 43.2131 39.6222 43.1967L47.7221 43.1671L48.4049 42.8051C49.1633 42.403 49.4899 42.0731 49.9224 41.2715L50.2144 40.7305L50.2442 30.9578L50.274 21.1851H49.4044H48.5348V27.9651V34.7451H25.1289H1.72293V22.8801V11.0151H12.9925H24.262V10.1676V9.32014H12.9859H1.70982L1.74341 7.31475C1.77419 5.48352 1.79651 5.28394 2.00055 5.01719C2.12344 4.85648 2.35858 4.6267 2.52318 4.50657C2.82128 4.28898 2.87589 4.28802 16.5763 4.26048L30.3302 4.23272V3.3865V2.54016L16.6496 2.55097C9.12539 2.55701 2.81467 2.59779 2.6259 2.64176ZM3.45671 6.77765V7.62515H4.32359H5.19048V6.77765V5.93015H4.32359H3.45671V6.77765ZM6.92426 6.77765V7.62515H7.79114H8.65803V6.77765V5.93015H7.79114H6.92426V6.77765ZM10.3918 6.77765V7.62515H11.2587H12.1256V6.77765V5.93015H11.2587H10.3918V6.77765ZM37.7109 7.79263C36.2671 8.17221 34.9432 9.24397 34.3263 10.5328C33.6261 11.9957 33.6455 13.5286 34.3827 14.9867C34.6618 15.539 34.9664 15.9345 35.4484 16.3708C35.8196 16.7067 36.4325 17.1232 36.8107 17.2961C37.7202 17.7122 38.8817 17.8759 39.8148 17.7197C40.8189 17.5516 41.8244 17.0563 42.5662 16.3645C43.9238 15.0986 44.4937 13.2202 44.0387 11.5123C43.7999 10.6158 43.381 9.88277 42.7206 9.20594C41.4365 7.88978 39.461 7.33244 37.7109 7.79263ZM40.6301 9.75544C41.3629 10.1372 41.6938 10.4742 42.1161 11.2686C42.3604 11.7284 42.404 11.9449 42.4061 12.7101C42.4082 13.5347 42.3773 13.6668 42.0402 14.2781C41.6302 15.0216 41.2901 15.3426 40.4735 15.7574C40.0016 15.9971 39.7846 16.0386 38.9991 16.0386C38.2136 16.0386 37.9965 15.9971 37.5246 15.7574C36.7089 15.343 36.3685 15.022 35.956 14.2781C35.6152 13.6637 35.5861 13.539 35.5909 12.7101C35.5952 11.9493 35.6405 11.7258 35.8829 11.2686C36.0406 10.971 36.2903 10.5875 36.4376 10.4163C36.7288 10.0779 37.6498 9.54748 38.1796 9.41284C38.3621 9.36644 38.8407 9.34769 39.243 9.3712C39.8041 9.40383 40.1273 9.49335 40.6301 9.75544ZM4.58962 13.8177C4.32576 14.0756 4.32359 14.0941 4.32359 16.1001C4.32359 18.1061 4.32576 18.1247 4.58962 18.3825C4.85337 18.6405 4.87233 18.6426 6.92426 18.6426C8.97618 18.6426 8.99514 18.6405 9.25889 18.3825C9.52275 18.1247 9.52492 18.1061 9.52492 16.1001C9.52492 14.0941 9.52275 14.0756 9.25889 13.8177C8.99514 13.5597 8.97618 13.5576 6.92426 13.5576C4.87233 13.5576 4.85337 13.5597 4.58962 13.8177ZM11.5247 13.8177C11.2609 14.0756 11.2587 14.0941 11.2587 16.1001C11.2587 18.1061 11.2609 18.1247 11.5247 18.3825C11.7885 18.6405 11.8074 18.6426 13.8594 18.6426C15.9113 18.6426 15.9302 18.6405 16.194 18.3825C16.4578 18.1247 16.46 18.1061 16.46 16.1001C16.46 14.0941 16.4578 14.0756 16.194 13.8177C15.9302 13.5597 15.9113 13.5576 13.8594 13.5576C11.8074 13.5576 11.7885 13.5597 11.5247 13.8177ZM18.4598 13.8177C18.196 14.0756 18.1938 14.0941 18.1938 16.1001C18.1938 18.1061 18.196 18.1247 18.4598 18.3825C18.7236 18.6405 18.7425 18.6426 20.7944 18.6426C22.8464 18.6426 22.8653 18.6405 23.1291 18.3825C23.3929 18.1247 23.3951 18.1061 23.3951 16.1001C23.3951 14.0941 23.3929 14.0756 23.1291 13.8177C22.8653 13.5597 22.8464 13.5576 20.7944 13.5576C18.7425 13.5576 18.7236 13.5597 18.4598 13.8177ZM7.79114 16.1001V16.9476H6.92426H6.05737V16.1001V15.2526H6.92426H7.79114V16.1001ZM14.7262 16.1001V16.9476H13.8594H12.9925V16.1001V15.2526H13.8594H14.7262V16.1001ZM21.6613 16.1001V16.9476H20.7944H19.9276V16.1001V15.2526H20.7944H21.6613V16.1001ZM4.58962 20.5977C4.32576 20.8555 4.32359 20.8741 4.32359 22.8801C4.32359 24.8861 4.32576 24.9047 4.58962 25.1625C4.85337 25.4205 4.87233 25.4226 6.92426 25.4226C8.97618 25.4226 8.99514 25.4205 9.25889 25.1625C9.52275 24.9047 9.52492 24.8861 9.52492 22.8801C9.52492 20.8741 9.52275 20.8555 9.25889 20.5977C8.99514 20.3397 8.97618 20.3376 6.92426 20.3376C4.87233 20.3376 4.85337 20.3397 4.58962 20.5977ZM11.5247 20.5977C11.2609 20.8555 11.2587 20.8741 11.2587 22.8801C11.2587 24.8861 11.2609 24.9047 11.5247 25.1625C11.7885 25.4205 11.8074 25.4226 13.8594 25.4226C15.9113 25.4226 15.9302 25.4205 16.194 25.1625C16.4578 24.9047 16.46 24.8861 16.46 22.8801C16.46 20.8741 16.4578 20.8555 16.194 20.5977C15.9302 20.3397 15.9113 20.3376 13.8594 20.3376C11.8074 20.3376 11.7885 20.3397 11.5247 20.5977ZM18.4598 20.5977C18.196 20.8555 18.1938 20.8741 18.1938 22.8801C18.1938 24.8861 18.196 24.9047 18.4598 25.1625C18.7236 25.4205 18.7425 25.4226 20.7944 25.4226C22.8464 25.4226 22.8653 25.4205 23.1291 25.1625C23.3929 24.9047 23.3951 24.8861 23.3951 22.8801C23.3951 20.8741 23.3929 20.8555 23.1291 20.5977C22.8653 20.3397 22.8464 20.3376 20.7944 20.3376C18.7425 20.3376 18.7236 20.3397 18.4598 20.5977ZM7.79114 22.8801V23.7276H6.92426H6.05737V22.8801V22.0326H6.92426H7.79114V22.8801ZM14.7262 22.8801V23.7276H13.8594H12.9925V22.8801V22.0326H13.8594H14.7262V22.8801ZM21.6613 22.8801V23.7276H20.7944H19.9276V22.8801V22.0326H20.7944H21.6613V22.8801ZM4.58962 27.3777C4.32576 27.6355 4.32359 27.654 4.32359 29.6601C4.32359 31.6661 4.32576 31.6846 4.58962 31.9425C4.85337 32.2004 4.87233 32.2026 6.92426 32.2026C8.97618 32.2026 8.99514 32.2004 9.25889 31.9425C9.52275 31.6846 9.52492 31.6661 9.52492 29.6601C9.52492 27.654 9.52275 27.6355 9.25889 27.3777C8.99514 27.1197 8.97618 27.1176 6.92426 27.1176C4.87233 27.1176 4.85337 27.1197 4.58962 27.3777ZM11.5247 27.3777C11.2609 27.6355 11.2587 27.654 11.2587 29.6601C11.2587 31.6661 11.2609 31.6846 11.5247 31.9425C11.7885 32.2004 11.8074 32.2026 13.8594 32.2026C15.9113 32.2026 15.9302 32.2004 16.194 31.9425C16.4578 31.6846 16.46 31.6661 16.46 29.6601C16.46 27.654 16.4578 27.6355 16.194 27.3777C15.9302 27.1197 15.9113 27.1176 13.8594 27.1176C11.8074 27.1176 11.7885 27.1197 11.5247 27.3777ZM18.4598 27.3777C18.196 27.6355 18.1938 27.654 18.1938 29.6601C18.1938 31.6661 18.196 31.6846 18.4598 31.9425C18.7236 32.2004 18.7425 32.2026 20.7944 32.2026C22.8464 32.2026 22.8653 32.2004 23.1291 31.9425C23.3929 31.6846 23.3951 31.6661 23.3951 29.6601C23.3951 27.654 23.3929 27.6355 23.1291 27.3777C22.8653 27.1197 22.8464 27.1176 20.7944 27.1176C18.7425 27.1176 18.7236 27.1197 18.4598 27.3777ZM27.7295 27.9651V28.8126H28.5964H29.4633V27.9651V27.1176H28.5964H27.7295V27.9651ZM31.1971 27.9651V28.8126H38.5656H45.9342V27.9651V27.1176H38.5656H31.1971V27.9651ZM7.79114 29.6601V30.5076H6.92426H6.05737V29.6601V28.8126H6.92426H7.79114V29.6601ZM14.7262 29.6601V30.5076H13.8594H12.9925V29.6601V28.8126H13.8594H14.7262V29.6601ZM21.6613 29.6601V30.5076H20.7944H19.9276V29.6601V28.8126H20.7944H21.6613V29.6601ZM25.9958 31.3551V32.2026H34.2312H42.4666V31.3551V30.5076H34.2312H25.9958V31.3551ZM48.5144 38.4454C48.4836 40.2767 48.4613 40.4763 48.2572 40.743C48.1343 40.9037 47.8992 41.1335 47.7346 41.2536L47.4353 41.4721H25.1289H2.82247L2.52318 41.2536C2.35858 41.1335 2.12344 40.9037 2.00055 40.743C1.79651 40.4763 1.77419 40.2767 1.74341 38.4454L1.70982 36.44H25.1289H48.5479L48.5144 38.4454ZM24.262 38.9825V39.83H25.1289H25.9958V38.9825V38.135H25.1289H24.262V38.9825ZM29.7893 43.3524C29.7898 43.4253 29.8869 44.486 30.0051 45.7095C30.1233 46.9331 30.2204 48.0177 30.221 48.1196C30.2217 48.2936 29.9074 48.305 25.1289 48.305C20.3504 48.305 20.036 48.2936 20.0368 48.1196C20.0373 48.0177 20.1344 46.9331 20.2526 45.7095C20.3709 44.486 20.468 43.4253 20.4685 43.3524C20.4691 43.2486 21.474 43.22 25.1289 43.22C28.7838 43.22 29.7886 43.2486 29.7893 43.3524Z" fill="url(#paint0_linear_12_286)"/>
<defs>
<linearGradient id="paint0_linear_12_286" x1="-2.44766e-06" y1="58.125" x2="56.4896" y2="50.1372" gradientUnits="userSpaceOnUse">
<stop stop-color="#EE2762"/>
<stop offset="1" stop-color="#F05B3A"/>
</linearGradient>
</defs>
</svg>
