<svg width="13" height="25" viewBox="0 0 13 25" fill="none" xmlns="http://www.w3.org/2000/svg">
<path d="M12.3036 1.27859C12.3036 2.4236 12.3036 3.54317 12.3036 4.68818C12.3036 5.42607 11.9009 5.88407 11.2522 5.90952C10.6258 5.93496 9.97709 5.90952 9.35072 5.90952C8.79147 5.90952 8.63488 6.08763 8.61251 6.6983C8.59014 7.28353 8.61251 7.86876 8.61251 8.50487C9.46258 8.50487 10.2455 8.50487 11.0509 8.50487C11.8338 8.50487 12.2141 8.93743 12.2141 9.82799C12.2141 10.973 12.2141 12.1435 12.2141 13.2885C12.2141 14.1536 11.8562 14.5861 11.0732 14.5861C10.2679 14.6116 9.48495 14.5861 8.61251 14.5861C8.61251 14.8406 8.61251 15.0441 8.61251 15.2477C8.61251 17.9703 8.61251 20.6929 8.61251 23.4409C8.61251 24.4332 8.27696 24.8149 7.40453 24.8403C6.39787 24.8403 5.36884 24.8403 4.36218 24.8403C3.48975 24.8403 3.13182 24.4078 3.13182 23.39C3.13182 20.7183 3.13182 18.0466 3.13182 15.3749C3.13182 15.1459 3.13182 14.9169 3.13182 14.5861C2.48309 14.5861 1.8791 14.5861 1.2751 14.5861C0.357925 14.5861 0 14.179 0 13.1358C0 12.0162 0 10.8967 0 9.7771C0 8.88654 0.402666 8.45398 1.16325 8.45398C1.78962 8.45398 2.41598 8.45398 3.17657 8.45398C3.17657 7.4362 3.13183 6.49474 3.17657 5.52785C3.31079 2.55083 5.45832 0.159029 8.07563 0.0318058C9.1494 -0.0190835 10.2008 0.00636114 11.2746 0.00636114C11.9457 0.10814 12.3036 0.540699 12.3036 1.27859ZM11.1627 4.63729C11.1627 3.49228 11.1627 2.44905 11.1627 1.35493C10.1561 1.35493 9.19413 1.32948 8.23222 1.35493C6.33075 1.40582 4.74247 2.83072 4.42929 4.99351C4.22796 6.34208 4.29507 7.74153 4.25033 9.11554C4.25033 9.34454 4.25033 9.5481 4.25033 9.82799C3.15419 9.82799 2.14754 9.82799 1.14088 9.82799C1.14088 11.0239 1.14088 12.1435 1.14088 13.3648C2.16991 13.3648 3.17656 13.3648 4.25033 13.3648C4.25033 16.7998 4.25033 20.1585 4.25033 23.5427C5.36884 23.5427 6.42024 23.5427 7.51638 23.5427C7.51638 20.1331 7.51638 16.7744 7.51638 13.3648C7.74008 13.3648 7.91904 13.3648 8.098 13.3648C8.94807 13.3648 9.79813 13.3648 10.6482 13.3648C10.7824 13.3648 11.0509 13.2121 11.0509 13.1104C11.0732 12.0162 11.0732 10.9221 11.0732 9.7771C9.84287 9.7771 8.70199 9.7771 7.51638 9.7771C7.51638 8.63209 7.47164 7.56342 7.51638 6.49474C7.56112 5.32429 8.16511 4.73906 9.19414 4.68818C9.5968 4.66273 9.99946 4.68818 10.4021 4.66273C10.6706 4.63729 10.9166 4.63729 11.1627 4.63729Z" fill="url(#paint0_linear_12_149)"/>
<defs>
<linearGradient id="paint0_linear_12_149" x1="-5.79135e-07" y1="28.8769" x2="13.5716" y2="27.9629" gradientUnits="userSpaceOnUse">
<stop stop-color="#EE2762"/>
<stop offset="1" stop-color="#F05B3A"/>
</linearGradient>
</defs>
</svg>
