<svg width="22" height="28" viewBox="0 0 22 28" fill="none" xmlns="http://www.w3.org/2000/svg">
<path d="M16.0416 10.4988C15.221 10.4984 14.413 10.7567 13.69 11.2508C13.624 11.0296 13.5067 10.8392 13.3537 10.7049C13.2007 10.5706 13.0192 10.4987 12.8333 10.4988H9.16664C9.04624 10.4987 8.92701 10.5288 8.81577 10.5874C8.70452 10.646 8.60344 10.732 8.51831 10.8403C8.43317 10.9487 8.36565 11.0773 8.31961 11.2189C8.27357 11.3605 8.24991 11.5122 8.24997 11.6655V25.6655C8.2499 25.8187 8.27357 25.9705 8.31961 26.112C8.36565 26.2536 8.43317 26.3823 8.5183 26.4906C8.60344 26.599 8.70452 26.6849 8.81576 26.7435C8.92701 26.8021 9.04624 26.8322 9.16664 26.8321H12.8333C12.9537 26.8322 13.0729 26.8021 13.1842 26.7435C13.2954 26.6849 13.3965 26.599 13.4816 26.4906C13.5668 26.3823 13.6343 26.2536 13.6803 26.112C13.7264 25.9705 13.75 25.8187 13.75 25.6655V19.2488C13.75 18.9394 13.8466 18.6426 14.0185 18.4238C14.1904 18.2051 14.4235 18.0821 14.6666 18.0821C14.9098 18.0821 15.1429 18.2051 15.3148 18.4238C15.4867 18.6426 15.5833 18.9394 15.5833 19.2488V25.6655C15.5832 25.8187 15.6069 25.9705 15.6529 26.112C15.699 26.2536 15.7665 26.3823 15.8516 26.4906C15.9368 26.599 16.0379 26.6849 16.1491 26.7435C16.2603 26.8021 16.3796 26.8322 16.5 26.8321H20.1666C20.287 26.8322 20.4063 26.8021 20.5175 26.7435C20.6288 26.6849 20.7298 26.599 20.815 26.4906C20.9001 26.3823 20.9676 26.2536 21.0137 26.112C21.0597 25.9705 21.0834 25.8187 21.0833 25.6655V16.9155C21.0816 15.2143 20.5499 13.5834 19.6048 12.3805C18.6597 11.1776 17.3783 10.5009 16.0416 10.4988ZM19.25 24.4988H17.4166V19.2488C17.4166 18.3205 17.1269 17.4303 16.6112 16.7739C16.0955 16.1176 15.396 15.7488 14.6666 15.7488C13.9373 15.7488 13.2378 16.1176 12.7221 16.7739C12.2064 17.4303 11.9166 18.3205 11.9166 19.2488V24.4988H10.0833V12.8321H11.9166V13.6525C11.9168 13.8942 11.9758 14.1299 12.0857 14.3271C12.1956 14.5243 12.3509 14.6731 12.5301 14.7532C12.7093 14.8332 12.9037 14.8404 13.0862 14.7739C13.2688 14.7073 13.4307 14.5703 13.5495 14.3816C13.9608 13.7167 14.5251 13.2318 15.1635 12.9947C15.8018 12.7577 16.4824 12.7802 17.1102 13.0593C17.738 13.3384 18.2817 13.86 18.6653 14.5513C19.0489 15.2426 19.2533 16.0691 19.25 16.9155V24.4988ZM6.41664 10.4988H2.74997C2.62958 10.4987 2.51035 10.5288 2.3991 10.5874C2.28785 10.646 2.18677 10.732 2.10164 10.8403C2.0165 10.9487 1.94899 11.0773 1.90294 11.2189C1.8569 11.3605 1.83324 11.5122 1.83331 11.6655V25.6655C1.83324 25.8187 1.8569 25.9705 1.90294 26.112C1.94898 26.2536 2.0165 26.3823 2.10164 26.4906C2.18677 26.599 2.28785 26.6849 2.3991 26.7435C2.51034 26.8021 2.62958 26.8322 2.74997 26.8321H6.41664C6.53704 26.8322 6.65627 26.8021 6.76752 26.7435C6.87876 26.6849 6.97984 26.599 7.06498 26.4906C7.15011 26.3823 7.21763 26.2536 7.26367 26.112C7.30971 25.9705 7.33338 25.8187 7.33331 25.6655V11.6655C7.33338 11.5122 7.30971 11.3605 7.26367 11.2189C7.21763 11.0773 7.15011 10.9487 7.06497 10.8403C6.97984 10.732 6.87876 10.646 6.76751 10.5874C6.65627 10.5288 6.53704 10.4987 6.41664 10.4988ZM5.49997 24.4988H3.66664V12.8321H5.49997V24.4988ZM4.59674 1.79898C4.19557 1.76841 3.79371 1.84202 3.41559 2.01533C3.03747 2.18863 2.69101 2.45801 2.39726 2.80708C2.10351 3.15615 1.86861 3.57762 1.70686 4.04586C1.54511 4.51409 1.45988 5.01931 1.45635 5.53078C1.45283 6.04225 1.53108 6.5493 1.68635 7.02107C1.84162 7.49285 2.07067 7.9195 2.35956 8.27507C2.64846 8.63065 2.99116 8.90772 3.36682 9.08945C3.74249 9.27117 4.14328 9.35374 4.54481 9.33214H4.57077C4.973 9.36255 5.37588 9.28825 5.75478 9.1138C6.13369 8.93935 6.48067 8.66839 6.77453 8.3175C7.06838 7.96661 7.30293 7.54314 7.46385 7.07298C7.62477 6.60282 7.70867 6.09584 7.71044 5.58301C7.71221 5.07018 7.6318 4.56228 7.47413 4.09034C7.31645 3.61841 7.08483 3.19234 6.79341 2.83818C6.50199 2.48402 6.15689 2.2092 5.77919 2.03053C5.4015 1.85185 4.99915 1.77306 4.59673 1.79898H4.59674ZM4.57078 6.99881H4.54481C4.38628 7.02331 4.22548 7.00438 4.07317 6.94331C3.92087 6.88223 3.78058 6.78041 3.66173 6.64468C3.54287 6.50895 3.4482 6.34244 3.38404 6.15633C3.31989 5.97021 3.28775 5.76879 3.28977 5.56557C3.28977 4.69512 3.80271 4.1323 4.59674 4.1323C4.75688 4.10513 4.91973 4.12195 5.07433 4.18163C5.22894 4.24131 5.37169 4.34246 5.49299 4.47827C5.61429 4.61409 5.71132 4.78141 5.77753 4.96896C5.84374 5.15652 5.87761 5.35995 5.87684 5.56557C5.87684 6.43601 5.3639 6.99881 4.57078 6.99881Z" fill="url(#paint0_linear_12_159)"/>
<defs>
<linearGradient id="paint0_linear_12_159" x1="1.45624" y1="30.9011" x2="22.96" y2="28.6094" gradientUnits="userSpaceOnUse">
<stop stop-color="#EE2762"/>
<stop offset="1" stop-color="#F05B3A"/>
</linearGradient>
</defs>
</svg>
