<svg width="26" height="24" viewBox="0 0 26 24" fill="none" xmlns="http://www.w3.org/2000/svg">
<path d="M25.3715 3.75765C25.4835 3.93486 25.5955 4.23866 25.3491 4.64373C24.7891 5.55512 24.1395 6.33993 23.4227 6.97284C23.2211 7.15006 23.1315 7.35259 23.1315 7.68171C23.0643 14.6944 19.0996 20.9982 13.455 23.0235C11.8646 23.5805 10.319 23.8843 8.79589 23.8843C6.19755 23.8843 3.71121 23.0741 1.31447 21.4286C1.29207 21.4033 1.26967 21.4033 1.24727 21.3779C1.15767 21.3273 1.04568 21.2514 1.00088 21.1248C0.88888 20.8463 0.866482 20.6184 0.911281 20.4412C1.02328 20.0108 1.42647 20.0108 1.56086 20.0108C1.74006 20.0108 1.94165 20.0108 2.12085 20.0108C2.70324 20.0108 3.30802 20.0108 3.91281 19.9602C4.94318 19.8336 5.95115 19.4539 6.98153 18.7703C5.68236 18.2387 4.71918 17.3779 4.0696 16.1881C3.9128 15.8843 3.75601 15.5551 3.59922 15.1248C3.39762 14.5425 3.44242 14.2893 3.86801 13.9855L3.62161 13.7324C2.45684 12.5172 1.82966 11.0741 1.78486 9.40323C1.76246 8.97285 1.85206 8.71968 2.00885 8.56779C2.14325 8.4412 2.34484 8.4412 2.63604 8.51715C2.59124 8.41589 2.54644 8.31462 2.50164 8.21335C2.34484 7.83361 2.16565 7.45386 2.05365 7.04879C1.60566 5.55512 1.71766 4.03613 2.36725 2.49182C2.54644 2.08676 2.72563 1.85891 2.94963 1.83359C3.17362 1.80828 3.39762 1.96017 3.68881 2.31461C5.48077 4.69436 7.76551 6.26398 10.4758 7.02348C10.9014 7.15006 11.327 7.22601 11.7302 7.30196C11.887 7.32728 12.0438 7.35259 12.1782 7.40322C12.2006 7.20069 12.223 7.02348 12.223 6.82095C12.2678 6.33993 12.3126 5.85892 12.4022 5.40322C12.8502 3.15005 14.687 1.25131 16.7477 0.896881C18.3381 0.6184 19.7716 1.09941 21.026 2.26397C21.2052 2.44119 21.3396 2.46651 21.5188 2.39056C22.2356 2.08676 22.9523 1.75764 23.6691 1.42853C23.6915 1.42853 23.7139 1.40321 23.7363 1.37789C23.7811 1.32726 23.8483 1.30195 23.9379 1.27663H24.0051C24.1843 1.27663 24.3635 1.25131 24.5203 1.35258C24.7667 1.47916 24.8563 1.80828 24.7443 2.13739C24.6323 2.49182 24.4755 2.82094 24.3187 3.15005L24.2515 3.32727C24.2291 3.35258 24.2291 3.3779 24.2067 3.42853C24.1843 3.47917 24.1619 3.5298 24.1395 3.55511C24.2739 3.50448 24.4083 3.47917 24.5427 3.42853C24.9459 3.42853 25.1923 3.47917 25.3715 3.75765ZM23.0867 5.5298C23.1091 5.50449 23.1315 5.50449 23.1315 5.47917C22.9971 5.50449 22.8627 5.55512 22.7283 5.58044C22.6611 5.60575 22.594 5.63107 22.5268 5.63107C22.3252 5.6817 22.1236 5.73234 21.9444 5.6817C21.7652 5.60575 21.586 5.40322 21.5188 5.20069C21.4068 4.92221 21.5188 4.64373 21.7876 4.44119C22.0788 4.21334 22.4372 3.96018 22.7508 3.5298C22.7284 3.5298 22.7059 3.55511 22.6611 3.55511C22.3924 3.65638 22.1236 3.73233 21.8772 3.8336C21.3396 4.06145 20.8916 3.96018 20.4436 3.47917C19.3236 2.33992 18.0245 1.98549 16.5685 2.44119C14.4181 3.09942 13.1862 5.35259 13.567 7.88424C13.6342 8.31462 13.5894 8.56778 13.455 8.745C13.3206 8.8969 13.0966 8.94753 12.783 8.92222C12.0438 8.84627 11.2822 8.745 10.5206 8.54247C7.89991 7.85892 5.54796 6.36525 3.53201 4.06145C3.46482 3.9855 3.39762 3.90955 3.30802 3.80828C2.68083 5.70702 3.24082 7.80829 4.69679 9.09943C5.09998 9.45386 5.27917 9.70703 5.12238 10.0868C4.94318 10.5678 4.51759 10.5425 4.1592 10.4918C3.98001 10.4665 3.80081 10.4159 3.62161 10.3653C3.53201 10.3399 3.46482 10.3146 3.37522 10.3146L3.17362 10.264C3.35282 11.0994 3.64401 11.783 4.092 12.3653C4.67439 13.1501 5.36877 13.6311 6.19755 13.8589C6.24235 13.8843 6.30955 13.8843 6.35435 13.9096L6.42154 13.9349C6.71274 14.0362 6.86954 14.2893 6.84714 14.6437C6.82474 14.9729 6.66794 15.2007 6.37675 15.2513C6.06316 15.3273 5.74956 15.3779 5.41357 15.4286C5.32397 15.4539 5.23438 15.4539 5.14478 15.4792C5.41357 16.0108 5.77196 16.4412 6.21995 16.8463C6.89193 17.4286 7.65351 17.7324 8.45989 17.783C8.59429 17.783 9.01988 17.8083 9.15428 18.3146C9.26628 18.7197 9.01988 18.9729 8.84069 19.1248L8.72869 19.2007C8.66149 19.2514 8.61669 19.302 8.54949 19.3526C7.20552 20.4159 5.70476 21.0741 3.9576 21.4033C6.08555 22.3906 8.3703 22.6944 10.7446 22.34C13.4998 21.9349 15.8517 20.6944 17.7333 18.6184C20.5332 15.5805 21.9444 11.7577 21.9444 7.27664C21.9444 6.79563 22.0788 6.49183 22.37 6.23867C22.594 6.03613 22.8403 5.78297 23.0867 5.5298Z" fill="url(#paint0_linear_12_154)"/>
<defs>
<linearGradient id="paint0_linear_12_154" x1="0.889647" y1="27.6323" x2="27.5938" y2="23.7586" gradientUnits="userSpaceOnUse">
<stop stop-color="#EE2762"/>
<stop offset="1" stop-color="#F05B3A"/>
</linearGradient>
</defs>
</svg>
