<?xml version="1.0" standalone="no"?>
<!DOCTYPE svg PUBLIC "-//W3C//DTD SVG 20010904//EN"
 "http://www.w3.org/TR/2001/REC-SVG-20010904/DTD/svg10.dtd">
<svg version="1.0" xmlns="http://www.w3.org/2000/svg"
 width="250.000000pt" height="250.000000pt" viewBox="0 0 250.000000 250.000000"
 preserveAspectRatio="xMidYMid meet">
<metadata>
Created by potrace 1.14, written by Peter Selinger 2001-2017
</metadata>
<g transform="translate(0.000000,250.000000) scale(0.100000,-0.100000)"
fill="#000000" stroke="none">
<path d="M1185 2449 c-272 -43 -427 -118 -540 -260 -67 -85 -165 -330 -159
-400 14 -190 15 -174 -18 -241 -17 -35 -34 -65 -37 -68 -7 -6 -71 -110 -71
-115 0 -3 -14 -26 -30 -52 -40 -62 -39 -95 3 -126 17 -14 48 -30 67 -36 66
-22 73 -32 74 -116 1 -47 6 -79 14 -84 9 -5 9 -14 0 -38 -11 -28 -9 -36 14
-70 21 -30 27 -52 29 -103 3 -90 17 -127 53 -149 55 -34 119 -40 291 -26 48 4
91 2 108 -4 28 -11 30 -14 67 -116 12 -33 26 -69 30 -80 15 -36 48 -149 54
-186 4 -19 1 -50 -5 -68 -7 -19 -8 -36 -3 -41 10 -10 216 -32 224 -24 3 3 5
288 5 632 l0 627 -107 107 -108 108 -117 1 c-101 0 -124 4 -158 22 -50 28 -60
67 -21 92 31 20 63 7 72 -30 3 -14 11 -26 18 -26 6 -1 59 -2 118 -3 l108 -1
95 -95 95 -95 0 35 c0 32 -11 46 -107 140 l-108 105 -210 -2 c-207 -2 -210 -1
-235 21 -14 13 -38 30 -55 37 -58 27 -35 104 27 92 19 -4 29 -13 33 -33 13
-61 23 -63 257 -61 l213 2 121 -123 121 -123 -1 -703 c-1 -387 2 -708 5 -714
3 -5 21 -8 40 -6 l34 4 0 698 0 698 172 174 171 173 0 83 c-1 46 -4 85 -8 88
-18 13 -19 48 -3 69 38 47 109 -6 77 -56 -9 -15 -14 -53 -14 -116 l0 -93 -170
-171 c-111 -112 -170 -178 -170 -192 0 -12 3 -21 6 -21 17 0 166 160 175 188
6 17 14 33 17 33 51 10 84 -12 77 -49 -2 -9 -4 -20 -4 -24 -1 -4 -16 -14 -34
-22 -48 -20 -237 -214 -237 -243 0 -13 2 -23 5 -23 3 0 108 102 233 228 216
216 227 229 229 267 1 22 -3 43 -9 46 -19 12 -17 57 3 75 40 36 106 -20 74
-63 -8 -10 -15 -41 -15 -70 l0 -52 -260 -261 -260 -261 2 -547 3 -547 30 3
c17 2 33 7 37 11 5 4 8 169 7 366 0 198 0 369 1 380 1 11 1 26 1 33 -2 23 -2
47 -2 170 l0 123 132 132 131 131 58 1 c64 2 85 13 94 50 9 37 42 50 72 30 40
-26 25 -84 -23 -91 -8 -2 -25 -12 -37 -23 -17 -16 -35 -21 -80 -21 l-58 0
-115 -115 -115 -114 1 -488 c0 -268 0 -503 1 -521 0 -33 1 -33 33 -27 17 4 35
12 38 17 3 5 5 232 4 506 l-1 497 30 32 c24 26 38 33 67 33 21 0 40 4 43 9 3
5 17 11 31 14 36 6 63 -33 47 -68 -14 -31 -48 -41 -70 -22 -19 17 -67 16 -84
-1 -12 -12 -18 -955 -7 -974 14 -23 247 101 367 195 l63 50 -23 26 c-13 14
-34 37 -47 51 -60 64 -102 148 -116 232 -3 18 -10 60 -16 93 -13 74 -13 229 0
273 5 17 8 32 6 32 -8 0 55 170 98 266 69 153 88 227 92 364 6 229 -82 394
-307 573 -76 61 -267 141 -388 163 -76 13 -248 10 -355 -7z m-79 -110 c3 -5
21 -9 41 -9 32 0 46 -11 146 -111 61 -62 125 -118 143 -125 20 -8 33 -22 36
-37 12 -63 -68 -84 -93 -24 -15 37 -211 237 -236 242 -10 1 -28 -3 -40 -11
-62 -39 -121 39 -61 80 19 14 54 11 64 -5z m309 1 c3 -5 21 -10 40 -10 26 0
43 -10 79 -44 l45 -44 0 -169 0 -168 -72 -72 c-39 -40 -75 -73 -78 -73 -4 0
-112 106 -239 235 -210 211 -236 234 -262 231 -36 -4 -76 -40 -95 -84 -7 -18
-21 -36 -29 -39 -22 -8 -60 12 -67 36 -6 24 18 61 41 61 9 0 35 19 59 42 40
39 46 42 95 41 l52 -2 223 -223 223 -223 48 48 48 48 -1 144 c0 143 -1 144
-28 173 -30 31 -46 34 -89 13 -23 -12 -31 -12 -53 3 -29 19 -32 42 -8 68 17
19 58 24 68 8z m309 -143 c22 -16 27 -46 11 -72 -9 -14 -12 -61 -11 -150 l1
-130 -32 -32 c-18 -17 -33 -38 -33 -47 0 -20 -28 -46 -50 -46 -26 0 -50 27
-50 55 0 17 10 28 43 43 23 11 48 31 54 44 16 32 12 245 -5 276 -11 20 -11 27
3 48 17 27 42 31 69 11z m-746 -69 c5 -7 11 -21 13 -30 2 -9 44 -58 93 -108
l89 -90 -54 -1 c-30 0 -105 0 -167 0 l-113 1 -41 43 c-23 23 -56 47 -72 52
-54 17 -45 88 11 91 29 1 52 -19 53 -47 0 -9 17 -32 38 -51 38 -35 39 -35 126
-35 l88 0 -42 40 c-23 23 -56 48 -74 56 -36 18 -45 51 -21 75 19 19 58 21 73
4z m-304 -174 c9 -8 16 -23 16 -31 0 -9 19 -33 42 -55 l41 -38 221 0 221 0
112 -112 c100 -99 115 -111 128 -98 8 8 16 24 17 35 6 33 18 45 47 45 32 0 51
-16 51 -44 0 -21 -27 -56 -44 -56 -5 0 -27 -17 -48 -37 l-38 -37 -125 124
-124 124 -224 1 -223 0 -46 48 c-25 26 -53 47 -62 47 -8 0 -24 9 -35 21 -44
47 28 109 73 63z"/>
</g>
</svg>
